<svg xmlns="http://www.w3.org/2000/svg" xmlns:xlink="http://www.w3.org/1999/xlink" width="572" height="471" fill="none">
  <defs>
    <path id="reuse-0" fill="#060606" d="m553.961 204.41-.233-.288-.261.206.177.278.317-.196Zm-47.544-74.719-.316.196.205.322.32-.213-.209-.305Zm-.002-.003.316-.196-.211-.331-.322.227.217.3Zm-.142.1.212.303.005-.003-.217-.3Zm-.387.273.217.3.004-.004-.221-.296Zm-5.608 3.955-.217-.3-.283.2.183.293.317-.193Zm.903 1.444.326.178.106-.188-.115-.183-.317.193Zm45.079 72.137.318-.193-.127-.203-.24.031.049.365Zm.982 1.571-.318.193.21.335.324-.228-.216-.3Zm6.736-4.731.216.3.287-.202-.187-.294-.316.196Zm7.009-18.99c0 8.755-2.758 15.13-7.259 18.675l.466.576c4.736-3.731 7.539-10.357 7.539-19.251h-.746Zm-31.478-53.797c8.674 4.942 16.548 13.435 22.254 23.187 5.706 9.752 9.224 20.727 9.224 30.61h.746c0-10.043-3.569-21.144-9.324-30.978-5.754-9.834-13.713-18.435-22.527-23.456l-.373.637Zm-22.883-1.654c5.624-3.742 13.749-3.549 22.883 1.654l.373-.637c-9.276-5.285-17.727-5.584-23.674-1.627l.418.61Zm.107-.501-.002-.003-.632.392.002.003.632-.392Zm-.535-.107-.142.101.434.599.142-.101-.434-.599Zm-.091.969c.125-.091.251-.179.378-.266l-.425-.606c-.133.091-.265.185-.396.28l.443.592Zm-.438-.595-5.608 3.954.434.599 5.608-3.954-.434-.599Zm-5.708 4.447.902 1.444.635-.386-.902-1.445-.635.387Zm-1.556 15.161c0-5.582 1.122-10.201 3.102-13.732l-.653-.356c-2.055 3.664-3.196 8.412-3.196 14.088h.747Zm31.477 53.796c-8.673-4.941-16.547-13.435-22.253-23.187-5.706-9.752-9.224-20.727-9.224-30.609h-.747c0 10.042 3.57 21.143 9.325 30.977 5.754 9.834 13.712 18.435 22.526 23.456l.373-.637Zm16.329 4.066c-4.715.618-10.306-.635-16.329-4.066l-.373.637c6.122 3.488 11.878 4.803 16.8 4.159l-.098-.73Zm-.268.558.981 1.571.636-.386-.982-1.571-.635.386Zm1.515 1.678 6.736-4.731-.433-.6-6.735 4.731.432.6Zm6.836-5.227-.017-.026-.633.391.018.027.632-.392Z"/>
    <path id="reuse-1" fill="#fff" d="M404.867 272.13c-15.181 8.653-27.489 1.638-27.489-15.668 0-17.305 12.308-38.349 27.489-47.002 15.182-8.653 27.489-1.638 27.489 15.668 0 17.305-12.307 38.349-27.489 47.002Z"/>
    <path id="reuse-2" fill="#060606" d="m506.444 106.874-.234-.286-.262.204.178.277.318-.195Zm-31.237-48.6943-.317.1951.206.3211.321-.212-.21-.3042Zm-.001-.0019.318-.195-.212-.33-.324.2265.218.2985Zm-.082.0575.213.3021.005-.0037-.218-.2984Zm-.277.1937.218.2986.005-.0037-.223-.2949Zm-3.673 2.5694-.218-.2986-.285.1993.184.2918.319-.1925Zm.593.941.328.1776.106-.1877-.115-.1825-.319.1926Zm29.617 47.0116.319-.193-.127-.202-.241.031.049.364Zm.646 1.024-.32.192.211.334.326-.227-.217-.299Zm4.425-3.083.217.299.289-.201-.189-.293-.317.195Zm4.475-12.3768c0 5.6818-1.804 9.7938-4.72 12.0728l.468.573c3.152-2.464 5.002-6.825 5.002-12.6458h-.75Zm-20.616-34.9487c5.675 3.2065 10.833 8.7233 14.573 15.0643 3.741 6.341 6.043 13.4716 6.043 19.8844h.75c0-6.5719-2.354-13.8283-6.143-20.2513-3.789-6.423-9.033-12.0469-14.848-15.3329l-.375.6355Zm-14.897-1.0826c3.639-2.4019 8.921-2.2943 14.897 1.0826l.375-.6355c-6.12-3.4581-11.728-3.671-15.691-1.0555l.419.6084Zm.108-.4993-.001-.0018-.635.3901.001.0019.635-.3902Zm-.537-.1053-.082.0574.436.597.082-.0573-.436-.5971Zm.082.8446c.088-.0638.177-.1259.267-.1865l-.426-.6043c-.096.0654-.192.1324-.287.2011l.446.5897Zm-.441-.5934-3.673 2.5693.436.597 3.673-2.5692-.436-.5971Zm-3.774 3.0604.593.941.638-.3851-.593-.9411-.638.3852Zm-.782 9.8133c0-3.6216.734-6.609 2.022-8.8872l-.656-.3553c-1.363 2.4114-2.116 5.5279-2.116 9.2425h.75Zm20.616 34.9488c-5.674-3.206-10.832-8.7234-14.573-15.0643-3.741-6.341-6.043-13.4716-6.043-19.8845h-.75c0 6.572 2.355 13.8284 6.144 20.2514s9.032 12.0464 14.847 15.3334l.375-.636Zm10.646 2.634c-3.062.398-6.706-.407-10.646-2.634l-.375.636c4.039 2.282 7.85 3.15 11.12 2.726l-.099-.728Zm-.27.556.645 1.024.639-.385-.646-1.024-.638.385Zm1.182 1.131 4.425-3.083-.434-.598-4.426 3.083.435.598Zm4.525-3.577-.011-.018-.635.39.011.018.635-.39Z"/>
  </defs>
  <g clip-path="url(#a)">
    <path fill="#4C2FFC" fill-rule="evenodd" d="M553.961 204.41c4.618-3.638 7.399-10.139 7.399-18.963 0-19.925-14.177-44.153-31.664-54.116-9.206-5.243-17.493-5.489-23.279-1.64l-.002-.003-.142.1c-.131.089-.26.18-.387.273l-5.608 3.955.903 1.444c-2.018 3.598-3.15 8.281-3.15 13.91 0 19.924 14.177 44.152 31.665 54.115 6.072 3.459 11.745 4.743 16.564 4.112l.982 1.571 6.736-4.731-.017-.027Z" clip-rule="evenodd"/>
    <use xlink:href="#reuse-0"/>
    <mask id="b" width="65" height="84" x="497" y="126" maskUnits="userSpaceOnUse" style="mask-type:alpha">
      <path fill="#4C2FFC" fill-rule="evenodd" d="M553.959 204.41c4.619-3.638 7.4-10.139 7.4-18.964 0-19.925-14.177-44.153-31.664-54.115-9.206-5.245-17.494-5.49-23.28-1.64l-.002-.004-.179.126c-.105.072-.209.146-.313.221l-5.645 3.981.903 1.445c-2.018 3.598-3.149 8.281-3.149 13.909 0 19.924 14.177 44.153 31.665 54.115 6.072 3.459 11.744 4.743 16.563 4.112l.982 1.571 6.736-4.731-.017-.026Z" clip-rule="evenodd"/>
      <path fill="#060606" d="m553.959 204.41-.233-.287-.26.204.177.279.316-.196Zm-47.544-74.719-.316.195.205.322.32-.212-.209-.305Zm-.002-.004.316-.196-.211-.331-.322.227.217.3Zm-.178.126.213.302.004-.003-.217-.299Zm-.314.221.217.299.004-.002-.221-.297Zm-5.645 3.981-.217-.3-.284.2.183.293.318-.193Zm.903 1.445.327.178.105-.188-.114-.183-.318.193Zm45.079 72.136.317-.193-.126-.203-.24.031.049.365Zm.982 1.571-.318.193.209.335.325-.228-.216-.3Zm6.736-4.731.216.3.287-.201-.187-.295-.316.196Zm7.01-18.99c0 8.756-2.759 15.131-7.26 18.677l.466.575c4.736-3.731 7.54-10.357 7.54-19.252h-.746Zm-31.478-53.797c8.674 4.942 16.548 13.436 22.254 23.187 5.706 9.752 9.224 20.727 9.224 30.61h.746c0-10.043-3.57-21.144-9.324-30.978-5.754-9.834-13.713-18.435-22.527-23.456l-.373.637Zm-22.884-1.653c5.625-3.743 13.75-3.55 22.884 1.653l.373-.637c-9.277-5.285-17.728-5.584-23.674-1.627l.417.611Zm.107-.501-.002-.004-.632.392.002.003.632-.391Zm-.535-.108-.178.126.434.599.178-.126-.434-.599Zm-.054.944c.101-.074.203-.146.306-.216l-.427-.605c-.107.075-.215.15-.321.227l.442.594Zm-.438-.597-5.645 3.981.434.599 5.645-3.981-.434-.599Zm-5.746 4.474.904 1.445.635-.386-.903-1.445-.636.386Zm-1.554 15.161c0-5.582 1.122-10.2 3.102-13.731l-.653-.356c-2.055 3.664-3.196 8.412-3.196 14.087h.747Zm31.477 53.796c-8.673-4.941-16.547-13.435-22.253-23.187-5.706-9.752-9.224-20.727-9.224-30.609h-.747c0 10.042 3.57 21.143 9.325 30.977 5.754 9.834 13.712 18.435 22.526 23.456l.373-.637Zm16.328 4.066c-4.715.618-10.305-.635-16.328-4.066l-.373.637c6.121 3.487 11.877 4.804 16.799 4.159l-.098-.73Zm-.268.558.981 1.571.636-.386-.983-1.571-.634.386Zm1.515 1.678 6.736-4.731-.433-.6-6.736 4.731.433.6Zm6.836-5.227-.017-.026-.632.392.016.026.633-.392Z"/>
    </mask>
    <g mask="url(#b)">
      <path fill="#4C2FFC" d="m599.18 165.534-66.984 38.159v32.814l66.984-38.158v-32.815Z"/>
    </g>
    <use xlink:href="#reuse-0"/>
    <path fill="#fff" stroke="#060606" stroke-width="1.5" d="M523.867 207.583c17.487 9.962 31.664 1.886 31.664-18.038 0-19.925-14.177-44.153-31.664-54.115-17.488-9.962-31.665-1.886-31.665 18.038 0 19.925 14.177 44.153 31.665 54.115Z"/>
    <mask id="c" width="66" height="83" x="491" y="130" maskUnits="userSpaceOnUse" style="mask-type:alpha">
      <path fill="#4C2FFC" stroke="#060606" stroke-width="1.5" d="M523.869 207.583c17.487 9.962 31.664 1.886 31.664-18.038 0-19.925-14.177-44.153-31.664-54.115-17.488-9.962-31.665-1.886-31.665 18.038 0 19.925 14.177 44.153 31.665 54.115Z"/>
    </mask>
    <g mask="url(#c)">
      <path stroke="#060606" stroke-width="1.5" d="M523.869 207.583c17.487 9.962 31.664 1.886 31.664-18.038 0-19.925-14.177-44.153-31.664-54.115-17.488-9.962-31.665-1.886-31.665 18.038 0 19.925 14.177 44.153 31.665 54.115Z"/>
    </g>
    <path fill="#000" d="M525.6 170.615v-4.309l8.308 5.465v-6.564l-22.623-14.882v6.565l8.309 5.465v4.305c-6.753-4.074-11.83-5.828-11.83-3.928 0 1.9 5.08 6.827 11.83 11.638v13.8l6.008 3.952V178.32c6.74 4.066 11.808 5.814 11.808 3.916 0-1.898-5.068-6.816-11.808-11.619m0 6.535v-.004c-.17-.099-1.041-.61-2.98-1.885-1.55-1.02-2.641-1.789-3.025-2.066v.006c-5.966-4.238-10.419-8.399-10.419-9.873 0-1.475 4.453.225 10.419 3.835v4.81c.391.289 1.508 1.102 3.051 2.117 1.852 1.219 2.784 1.74 2.955 1.834v-4.81c5.954 4.231 10.397 8.387 10.397 9.855 0 1.469-4.445-.221-10.397-3.821"/>
  </g>
  <path fill="#E7E7E7" d="M178.401 209.484c-9.484-5.406-9.484-14.17 0-19.575l113.139-64.484c6.665-3.798 17.47-3.798 24.135 0l241.733 137.776c7.946 4.529 7.946 11.872 0 16.401l-115.924 66.071c-6.665 3.798-17.47 3.798-24.135 0L178.401 209.484Z"/>
  <mask id="d" width="393" height="227" x="171" y="122" maskUnits="userSpaceOnUse" style="mask-type:alpha">
    <path fill="#fff" d="M178.401 209.484c-9.484-5.406-9.484-14.17 0-19.575l113.139-64.484c6.665-3.798 17.47-3.798 24.135 0l241.733 137.776c7.946 4.529 7.946 11.872 0 16.401l-115.924 66.071c-6.665 3.798-17.47 3.798-24.135 0L178.401 209.484Z"/>
  </mask>
  <g mask="url(#d)">
    <path fill="#fff" d="M303.985 102.8h-137.51v225.302h137.51V102.8Z"/>
  </g>
  <path stroke="#060606" stroke-width="1.5" d="M178.401 209.484c-9.484-5.406-9.484-14.17 0-19.575l113.139-64.484c6.665-3.798 17.47-3.798 24.135 0l241.733 137.776c7.946 4.529 7.946 11.872 0 16.401l-115.924 66.071c-6.665 3.798-17.47 3.798-24.135 0L178.401 209.484Z"/>
  <mask id="e" width="349" height="200" x="216" y="149" maskUnits="userSpaceOnUse" style="mask-type:alpha">
    <path fill="silver" d="m339.032 152.766-117.767 67.122c-6.665 3.798-6.665 9.957 0 13.756l196.117 111.777c6.665 3.799 17.47 3.799 24.135 0l117.768-67.122c6.664-3.798 6.664-9.957 0-13.756L363.167 152.766c-6.665-3.799-17.47-3.799-24.135 0Z"/>
  </mask>
  <g mask="url(#e)">
    <path fill="#fff" d="m365.299 292.671 104.224-59.403c.512-.292.928-.056.928.529v118.482c0 .585-.416 1.295-.928 1.588L366.227 412.74c-.512.292-.928.055-.928-.529v-119.54Z"/>
    <path fill="silver" d="m366.675 293.566-90.289-51.461c-.513-.292-.928-.055-.928.529v110.06c0 .584.415 1.294.928 1.586l89.361 50.932c.512.292.928.055.928-.529V293.566Z"/>
    <path fill="#4C2FFC" stroke="#060606" stroke-width="1.5" d="m372.076 184.522-93.46 53.268c-4.101 2.337-4.101 6.127 0 8.465l80.875 46.094c4.101 2.338 10.751 2.338 14.852 0l93.459-53.267c4.102-2.338 4.102-6.127 0-8.465l-80.874-46.095c-4.101-2.337-10.751-2.337-14.852 0Z"/>
    <path fill="#fff" d="m429.119 293.295 50.851-28.983c.513-.292.929-.055.929.529v66.002c0 .584-.416 1.295-.929 1.587l-49.922 28.454c-.513.292-.929.055-.929-.529v-67.06Z"/>
    <path fill="silver" d="m429.119 294.3-12.099-6.896c-.513-.292-.928-.055-.928.53v65.277c0 .584.415 1.295.928 1.587l11.17 6.367c.513.292.929.055.929-.529V294.3Z"/>
    <path fill="#060606" d="m459.26 260.157-39.46 22.49c-4.953 2.823-4.953 7.401 0 10.224 4.953 2.823 12.984 2.823 17.938 0l39.459-22.49c4.954-2.823 4.954-7.401 0-10.224-4.953-2.823-12.984-2.823-17.937 0Z"/>
    <path fill="#fff" d="m435.551 286.335-3.867-2.204.73-.416 3.185 1.815 1.666-.949.682.389-2.396 1.365Zm4.282-2.348c-.298.17-.623.283-.978.34a3.432 3.432 0 0 1-1.061.001c-.353-.055-.674-.166-.964-.331-.317-.181-.53-.374-.639-.579-.11-.206-.119-.407-.028-.607.09-.2.278-.381.565-.544.304-.174.635-.28.991-.32.356-.04.715-.015 1.077.075.362.089.703.243 1.023.461l-.722.411-.269-.153c-.295-.168-.555-.262-.779-.281-.224-.022-.442.028-.655.15-.249.141-.357.289-.322.443.033.153.198.313.494.481.27.154.538.24.803.259.265.016.511-.041.738-.17.144-.082.235-.17.274-.264.039-.093.027-.189-.037-.287l.94-.297c.155.213.189.429.099.648-.088.216-.271.405-.55.564Zm-2.289-.208-.543-.309 1.924-1.096.542.309-1.923 1.096Zm6.026-2.014-1.37-.78c-.066-.039-.154-.084-.263-.138a1.9717 1.9717 0 0 0-.379-.139c-.141-.039-.29-.053-.445-.043-.155.008-.309.056-.465.145a.7801.7801 0 0 0-.172.132c-.052.052-.081.112-.086.18-.007.068.023.144.091.23.07.084.196.178.376.281l-.617.126c-.23-.131-.398-.28-.505-.447-.108-.167-.13-.339-.068-.516.065-.177.239-.347.524-.51.228-.129.451-.213.672-.251.22-.037.428-.045.625-.023.199.022.38.059.543.114.161.053.298.107.411.163.113.057.193.099.241.126l1.628.928-.741.422Zm-1.982 1.13-2.901-1.653.65-.371.961.548.092-.052 1.939 1.105-.741.423Zm4.625-2.544c-.267.152-.568.247-.903.285-.335.037-.674.023-1.018-.045-.342-.068-.658-.185-.948-.351-.295-.168-.501-.349-.618-.544-.116-.198-.138-.392-.064-.585.073-.193.249-.368.526-.527.276-.157.575-.251.897-.282.323-.03.648-.007.975.069.328.077.637.198.927.363.29.165.502.342.634.53.134.186.172.374.113.56-.059.187-.233.362-.521.527Zm-.532-.438c.163-.093.256-.188.279-.285.025-.098-.007-.197-.096-.297-.09-.1-.223-.2-.398-.3-.175-.1-.351-.176-.526-.226-.176-.051-.348-.071-.516-.059-.167.012-.326.061-.478.148-.163.092-.257.192-.282.298-.025.104.004.209.088.314.083.104.205.202.366.294.163.093.336.163.518.212.181.048.361.066.54.054.179-.012.347-.063.505-.153Zm1.235-.055-1.987-1.133-.091.052-1.88-1.072.735-.419 3.868 2.205-.645.367Zm4.019-1.679-.644-.367.731-.416.644.367-.731.416Zm-4.291-2.446-.645-.367.73-.417.645.368-.73.416Zm4.206 1.975c-.278.158-.577.27-.897.337-.323.065-.647.083-.973.055-.328-.03-.639-.107-.934-.233l.612-.477c.26.093.529.131.809.115.281-.018.529-.088.743-.211.203-.115.323-.237.36-.367.04-.13-.011-.235-.15-.315-.095-.054-.203-.082-.322-.083-.12-.003-.262.019-.425.068l-1.251.376c-.722.217-1.334.183-1.838-.104-.236-.134-.385-.283-.448-.445-.061-.164-.036-.33.075-.499.111-.172.307-.337.588-.495.26-.144.534-.247.822-.309.287-.063.581-.085.881-.065.301.019.602.079.903.181l-.618.505c-.14-.051-.287-.081-.44-.092-.156-.011-.31-.001-.46.03-.15.028-.289.076-.416.145-.122.065-.212.136-.272.213-.057.075-.08.149-.069.22.01.07.058.128.142.176.093.053.213.077.36.071.145-.007.328-.046.548-.117l.875-.278c.441-.139.82-.204 1.139-.193.321.009.62.093.897.251.244.139.396.296.457.471.061.176.032.356-.086.543-.116.184-.321.36-.612.526Zm1.98-1.221-3.868-2.204 2.525-1.439.682.389-1.794 1.023.827.471 1.472-.839.682.389-1.472.839.994.566 1.794-1.022.682.389-2.524 1.438Zm4.698-2.585c-.244.139-.519.246-.825.323-.308.075-.632.113-.972.113-.338-.001-.682-.045-1.031-.132-.348-.087-.685-.225-1.013-.412-.428-.243-.71-.497-.846-.76-.136-.266-.145-.522-.027-.769.12-.248.348-.468.685-.659.498-.284 1.005-.442 1.52-.472.516-.031 1.033.047 1.552.233l-.639.486c-.295-.088-.589-.126-.883-.111-.294.012-.565.088-.814.228-.249.137-.4.284-.454.439-.054.155-.022.313.097.475.119.16.314.317.583.47.268.153.541.263.819.329.279.065.555.083.827.052.272-.031.533-.115.782-.253.169-.093.292-.195.365-.306.075-.112.094-.232.056-.36-.037-.127-.139-.261-.303-.399l-.613.349-.563-.322 1.391-.792c.026.011.07.033.131.065.061.033.096.052.105.057.37.211.624.441.76.691.136.248.148.497.038.747-.113.247-.356.477-.728.69Zm2.343-1.428-3.868-2.204.731-.416 3.185 1.815 1.666-.949.682.389-2.396 1.365Zm2.853-1.626-3.868-2.204 1.252-.713c.03-.017.094-.053.19-.106.097-.053.195-.102.293-.145.349-.156.722-.245 1.117-.267.396-.021.788.015 1.176.108.389.093.747.232 1.075.419.327.187.573.391.736.612.163.222.225.445.188.671-.038.226-.194.438-.467.636a3.446 3.446 0 0 1-.256.168c-.093.055-.155.091-.185.108l-1.251.713Zm.053-.814.511-.291c.048-.027.112-.065.193-.113.078-.049.145-.096.199-.141.134-.115.192-.238.174-.369-.016-.132-.086-.261-.209-.389-.122-.128-.275-.245-.46-.35-.193-.11-.404-.2-.631-.268a2.543 2.543 0 0 0-.679-.115c-.228-.007-.439.027-.634.101-.081.03-.163.068-.247.114-.084.045-.151.082-.199.109l-.51.292 2.492 1.42Z"/>
  </g>
  <path fill="#060606" d="M188.816 196.851c.305-.174.65-.29 1.035-.345.387-.058.779-.054 1.176.012.395.065.761.193 1.096.384l1.34.763c.363.208.606.426.73.658.122.23.126.459.013.687-.115.226-.346.438-.692.636-.224.127-.471.23-.74.308-.27.076-.568.118-.895.126v-.708c.154 0 .303-.017.446-.05.145-.034.27-.081.375-.141.167-.094.272-.199.317-.312.045-.115.039-.227-.019-.336-.058-.111-.157-.207-.298-.287l-.686-.39.308.007c.004.151-.045.297-.148.438-.104.14-.25.263-.436.369-.29.166-.612.275-.964.327-.351.051-.702.048-1.055-.009-.35-.059-.67-.17-.961-.336-.291-.166-.479-.357-.564-.574-.088-.218-.078-.435.029-.652.105-.218.302-.41.593-.575Zm.833.474c-.133.076-.222.164-.269.264-.045.098-.046.198-.003.297.044.099.133.186.266.262.132.075.286.126.461.153.173.025.347.026.522.002.173-.026.326-.076.459-.152.132-.075.221-.162.266-.261.045-.101.045-.201 0-.299-.045-.101-.134-.19-.266-.266-.129-.072-.279-.122-.452-.147a1.8325 1.8325 0 0 0-.523-.002c-.175.024-.329.074-.461.149Zm6.096.501-.872-.497.872-.497.872.497-.872.497Zm-1.814-1.041-.872-.497.872-.497.872.497-.872.497Zm5.957-.882-.718-.409-2.006 1.143-.814-.464-1.628-2.587 1-.569 1.628 2.586 1.006-.573-1.153-.658.884-.504 1.154.657.41-.233.814.464-.41.234.718.409-.885.504Zm2.713-1.547-3.666-2.089-.334.796-.961-.547.346-.79.891-.508 4.615 2.631-.891.507Z"/>
  <path stroke="#060606" stroke-width="1.5" d="m297.206 135.188 6.41-3.653c.656-.374 1.718-.374 2.373 0l1.885 1.074c.656.374.656.979 0 1.353l-6.409 3.653c-.655.374-1.718.374-2.373 0l-1.886-1.074c-.655-.374-.655-.979 0-1.353Z" opacity=".35"/>
  <path fill="#060606" d="m307.064 131.352 1.592.907c.185-.26.08-.557-.268-.755-.347-.198-.869-.258-1.324-.152Z" opacity=".4"/>
  <path fill="#060606" d="M297.639 136.294c-.416-.237-.416-.622 0-.859l6.41-3.654c.417-.237 1.092-.237 1.508 0l1.885 1.075c.417.237.417.622 0 .859l-6.409 3.654c-.417.237-1.092.237-1.509 0l-1.885-1.075Z"/>
  <path fill="#060606" fill-rule="evenodd" d="M290.884 139.967c.931-.53 2.19-.832 3.518-.843.101 0 .182-.047.18-.105l-.015-.561c0-.029-.021-.058-.058-.078-.037-.021-.087-.033-.138-.033-3.5.022-6.29 1.613-6.329 3.607 0 .03.021.058.057.079.037.021.086.033.137.033l.985.009c.102 0 .183-.045.183-.103.021-.757.55-1.475 1.48-2.005Zm1.554.87c.511-.291 1.197-.461 1.926-.478.101-.001.181-.047.18-.105l-.015-.561c-.001-.029-.023-.058-.06-.078-.037-.021-.087-.033-.139-.033-2.249.033-4.035 1.051-4.093 2.333 0 .03.02.058.057.079.036.022.086.034.138.034l.984.009c.101.001.183-.045.184-.102.029-.415.327-.807.838-1.098Zm1.992.012c.038.02.059.049.06.078l.025.97c0 .029-.019.056-.054.076-.035.02-.082.031-.132.03l-1.702-.014c-.052 0-.102-.012-.138-.034-.037-.021-.056-.05-.054-.08.073-.568.857-1.015 1.855-1.057.052-.001.102.01.14.031Z" clip-rule="evenodd"/>
  <path fill="#060606" d="M281.803 145.319c-.208-.118-.208-.311 0-.429l.377-.215c.209-.119.546-.119.755 0l3.016 1.719c.208.119.208.311 0 .43l-.377.215c-.208.118-.546.118-.754 0l-3.017-1.72ZM282.935 143.815c-.209-.118-.209-.311 0-.43l.377-.215c.208-.118.546-.118.753 0l3.771 2.149c.208.119.208.312 0 .43l-.377.215c-.208.119-.546.119-.754 0l-3.77-2.149ZM281.238 147.146c-.208-.119-.208-.311 0-.43l.377-.215c.208-.118.546-.118.754 0l1.697.967c.208.119.208.311 0 .43l-.377.215c-.208.119-.546.119-.754 0l-1.697-.967ZM280.296 148.758c-.208-.119-.208-.311 0-.43l.377-.215c.208-.119.546-.119.754 0l.754.43c.208.118.208.311 0 .43l-.377.214c-.208.119-.546.119-.754 0l-.754-.429ZM254.501 157.711l-20.26 11.547c-2.448 1.395-2.448 3.657 0 5.052 2.448 1.396 6.416 1.396 8.864 0l20.26-11.547c2.448-1.395 2.448-3.657 0-5.052-2.447-1.395-6.416-1.395-8.864 0Z"/>
  <path fill="#fff" d="M240.786 172.561c1.164-.664 1.164-1.74 0-2.404-1.165-.664-3.053-.664-4.217 0-1.165.664-1.165 1.74 0 2.404 1.164.663 3.052.663 4.217 0Z"/>
  <path fill="#060606" d="m379.221 165.69-100.556 57.312c-3.076 1.753-3.076 4.595 0 6.348l52.569 29.962c3.076 1.753 8.063 1.753 11.139 0L442.929 202c3.076-1.753 3.076-4.596 0-6.349L390.36 165.69c-3.076-1.754-8.063-1.754-11.139 0Z" opacity=".4"/>
  <path fill="#4C2FFC" stroke="#060606" stroke-width="1.5" d="m381.143 151.43-107.776 61.427c-3.076 1.753-3.076 4.596 0 6.349l57.312 32.665c3.076 1.753 8.063 1.753 11.139 0l107.776-61.427c3.076-1.753 3.076-4.596 0-6.349l-57.312-32.665c-3.076-1.753-8.063-1.753-11.139 0Z"/>
  <path fill="#fff" d="m287.37 215.271-.473-.269.536-.306.473.27-.536.305Zm-3.15-1.795-.473-.269.537-.306.472.27-.536.305Zm3.086 1.449c-.203.116-.423.199-.658.248-.236.048-.474.061-.713.04a2.281 2.281 0 0 1-.686-.171l.449-.35c.191.068.388.096.593.084.207-.013.389-.064.546-.154.149-.084.237-.174.265-.27.029-.095-.008-.173-.111-.231-.07-.04-.148-.06-.236-.061-.088-.002-.192.015-.312.05l-.918.276c-.53.16-.979.134-1.348-.076-.174-.099-.283-.208-.329-.327-.045-.12-.027-.242.055-.366.082-.126.225-.247.432-.363.19-.105.391-.181.603-.227.21-.047.425-.062.646-.047.221.013.442.058.662.132l-.453.371c-.102-.037-.21-.06-.323-.067a1.1867 1.1867 0 0 0-.337.021c-.111.021-.213.056-.306.107-.089.048-.155.099-.199.156-.042.055-.059.109-.051.161.008.052.043.095.104.13.069.039.157.056.265.052.106-.006.24-.034.402-.086l.642-.205c.323-.101.602-.149.836-.141.235.007.454.068.658.184.179.102.29.217.335.346.045.129.023.262-.063.398-.085.135-.235.264-.45.386Zm1.453-.895-2.837-1.618 1.852-1.056.5.286-1.316.75.607.346 1.08-.615.501.285-1.08.615.729.416 1.317-.75.5.285-1.853 1.056Zm3.448-1.898c-.179.102-.381.181-.605.237-.226.056-.464.083-.714.083-.248 0-.5-.032-.757-.096-.255-.064-.502-.165-.742-.302-.315-.179-.522-.365-.621-.558-.1-.195-.107-.383-.02-.565.088-.181.255-.343.502-.483.366-.209.738-.324 1.116-.347.379-.022.758.035 1.139.171l-.469.357c-.217-.064-.433-.092-.648-.082-.216.01-.415.065-.598.168-.182.101-.293.209-.333.322-.039.114-.015.23.072.348.088.118.23.233.427.345.197.113.398.193.601.242.205.048.407.061.607.038.2-.022.391-.084.574-.185.125-.068.214-.143.268-.225.055-.082.069-.17.041-.264-.028-.093-.102-.191-.223-.293l-.449.256-.414-.236 1.021-.582c.02.008.052.024.097.048.044.024.07.038.077.042.272.155.457.324.557.507.1.182.109.365.028.548-.083.182-.261.35-.534.506Zm1.719-1.047-2.838-1.617.536-.306 2.337 1.332 1.222-.696.501.285-1.758 1.002Zm2.093-1.193-2.838-1.617.919-.524.14-.077c.07-.039.142-.075.214-.107.257-.115.53-.18.82-.195.29-.016.578.01.864.078.285.068.547.171.788.308.24.137.42.287.54.449.119.163.165.327.138.492-.028.166-.142.322-.343.468-.057.041-.119.081-.188.122-.068.04-.113.067-.135.08l-.919.523Zm.039-.597.375-.214c.036-.02.083-.048.142-.083.058-.036.106-.07.146-.103.099-.085.141-.175.128-.271-.012-.097-.063-.192-.154-.285-.089-.095-.202-.181-.337-.257a2.2093 2.2093 0 0 0-.463-.197 1.883 1.883 0 0 0-.499-.084c-.167-.006-.322.019-.465.074-.059.021-.119.049-.181.083s-.111.061-.146.081l-.374.213 1.828 1.043Zm4.652-2.009c-.211.12-.437.193-.678.218-.24.025-.481.009-.723-.046-.24-.056-.467-.145-.68-.267-.213-.121-.368-.25-.467-.387-.098-.137-.128-.273-.088-.408.039-.135.159-.26.362-.375.204-.116.429-.189.678-.22.248-.031.499-.021.751.028.252.048.487.134.703.257.213.122.363.254.45.398.088.143.108.284.059.425-.049.139-.171.265-.367.377Zm-1.107.564-2.838-1.618.54-.307 1.379.786-.066.038 1.458.831-.473.27Zm.544-.787c.115-.065.181-.136.197-.211.016-.075-.008-.15-.069-.225-.063-.077-.154-.149-.274-.217a1.5443 1.5443 0 0 0-.379-.153c-.135-.035-.27-.047-.406-.036-.135.009-.262.049-.382.117-.112.063-.175.13-.191.201-.015.07.011.141.077.214.065.074.163.147.291.221.129.073.258.129.387.166.129.037.255.051.38.041.126-.01.249-.05.369-.118Zm2.57-.92c-.153.086-.311.144-.475.171-.165.026-.323.027-.475.003-.153-.025-.288-.071-.406-.139-.099-.056-.173-.116-.225-.18-.051-.063-.074-.132-.069-.205.005-.075.044-.157.117-.246.049-.062.117-.129.204-.204.087-.075.19-.158.308-.247.117-.091.245-.191.386-.299l-.087.171c-.126-.072-.249-.108-.368-.107-.12.001-.25.041-.392.122a.5537.5537 0 0 0-.189.173c-.048.07-.04.143.023.218l-.639.189c-.122-.131-.163-.271-.125-.418.038-.148.185-.294.441-.44.188-.108.384-.186.587-.236.204-.051.414-.056.631-.018.121.021.224.051.311.092.087.04.179.088.276.144l1.301.741-.469.267-.438-.249.158.014c.039.14.031.263-.026.369-.056.104-.177.208-.36.314Zm-.308-.306c.099-.056.164-.113.197-.171.033-.059.047-.113.042-.161-.004-.048-.014-.086-.03-.111-.03-.048-.081-.096-.154-.141a3.1043 3.1043 0 0 0-.185-.115l.197-.067c-.132.105-.239.192-.319.258-.082.066-.145.12-.191.163-.046.043-.084.082-.112.118-.032.042-.052.079-.06.112-.008.032-.005.06.008.085.015.025.04.048.075.068.049.028.102.045.162.052.059.005.12 0 .183-.015s.126-.04.187-.075Zm1.995-.724-2.897-1.651.536-.306 2.897 1.652-.536.305Zm1.777-.945c-.152.087-.311.144-.475.172-.164.026-.323.027-.475.003-.152-.025-.288-.072-.406-.139-.098-.056-.174-.116-.225-.18-.051-.063-.074-.132-.068-.206.005-.074.043-.156.115-.245.05-.062.119-.13.206-.205.086-.075.189-.157.307-.247.117-.091.246-.19.386-.299l-.086.171c-.127-.072-.249-.108-.369-.107-.119.001-.25.042-.392.122a.5537.5537 0 0 0-.189.173c-.048.071-.04.143.024.219l-.639.188c-.123-.131-.165-.27-.127-.418.039-.147.186-.294.442-.44.188-.107.384-.186.587-.236.204-.05.414-.056.631-.018.121.021.225.052.312.092.086.041.178.089.275.144l1.301.741-.469.268-.437-.249.157.013c.04.14.031.264-.026.37-.056.104-.176.208-.36.313Zm-.308-.306c.099-.056.165-.113.198-.171.032-.059.046-.112.041-.16-.004-.049-.014-.086-.029-.111-.031-.049-.082-.096-.154-.142a4.1225 4.1225 0 0 0-.185-.114l.197-.068c-.133.106-.239.192-.32.259-.081.065-.145.12-.191.162a1.286 1.286 0 0 0-.112.118c-.032.042-.051.08-.059.113-.008.031-.006.06.008.085.014.025.039.047.074.068.049.027.103.044.162.051.059.005.12 0 .183-.014.064-.016.126-.04.187-.076Zm3.406-1.527-1.005-.573c-.048-.028-.113-.061-.193-.102a1.552 1.552 0 0 0-.278-.102 1.04 1.04 0 0 0-.327-.031c-.113.006-.227.042-.341.107a.5838.5838 0 0 0-.126.096.208.208 0 0 0-.063.133c-.006.049.017.105.067.168.051.062.143.131.276.207l-.454.092c-.168-.095-.292-.205-.37-.328-.079-.123-.095-.249-.049-.378.047-.131.175-.255.384-.374.167-.096.331-.157.493-.185.161-.027.314-.033.459-.017.145.016.278.044.398.084.118.038.219.078.301.12.083.041.142.072.178.092l1.194.68-.544.311Zm-1.454.829-2.129-1.213.477-.272.705.402.068-.039 1.423.812-.544.31Zm3.468-1.91c-.221.126-.459.206-.715.239-.256.034-.511.027-.765-.022s-.487-.134-.7-.255c-.215-.123-.364-.257-.447-.403-.082-.147-.091-.293-.03-.439.062-.147.201-.281.419-.405.251-.143.524-.227.821-.251.297-.025.579.012.845.109l-.394.387c-.142-.045-.283-.063-.423-.053-.14.009-.258.042-.357.098-.113.064-.178.133-.195.205-.018.072.002.145.063.218.059.073.148.143.266.21.185.106.376.168.574.188.197.018.376-.019.538-.111.12-.069.185-.137.193-.205.008-.067-.024-.139-.095-.216l.662-.246c.166.163.226.327.18.493-.047.165-.193.318-.44.459Zm2.291-1.306c-.217.125-.456.208-.717.249-.26.041-.519.041-.778.002-.259-.042-.495-.123-.708-.244-.232-.133-.388-.274-.469-.425-.08-.15-.087-.299-.019-.445.065-.146.203-.28.413-.399.224-.128.466-.206.727-.235.262-.029.526-.011.791.055.266.066.515.179.751.338l-.53.302-.197-.112c-.217-.124-.408-.193-.572-.207-.164-.016-.324.021-.481.11-.182.104-.261.213-.236.326.025.111.145.229.362.353.199.113.395.176.59.189.194.013.375-.029.541-.124.106-.06.173-.125.201-.194.03-.069.02-.139-.027-.211l.69-.218c.114.157.139.315.073.476-.065.159-.199.297-.405.414Zm-1.678-.153-.399-.227 1.411-.804.399.227-1.411.804ZM297.172 219.841c-.513.293-1.071.488-1.672.585-.6.097-1.201.097-1.801 0-.601-.097-1.158-.292-1.672-.585l-2.081-1.186c-.514-.293-.856-.611-1.026-.953-.171-.342-.171-.685 0-1.027.17-.342.512-.66 1.026-.953.514-.292 1.071-.487 1.671-.585a5.6158 5.6158 0 0 1 1.802 0c.601.098 1.158.293 1.672.585l2.081 1.186c.514.293.856.611 1.026.953.17.343.17.685 0 1.027-.17.343-.512.66-1.026.953Zm-1.242-.709c.231-.131.385-.281.462-.45.077-.168.077-.337 0-.505-.077-.168-.231-.319-.462-.45l-2.284-1.302c-.232-.132-.495-.22-.79-.264a3.0656 3.0656 0 0 0-.887 0c-.295.044-.558.132-.79.264-.231.132-.385.282-.462.451-.078.168-.078.336 0 .505.077.168.231.318.462.45l2.284 1.301c.231.132.494.22.79.264.295.044.591.044.886 0 .296-.044.559-.132.791-.264Zm5.23-1.729-1.311-.746 1.311-.747 1.31.747-1.31.746Zm2.671-1.533-1.137-.648.328-3.13c.026-.235-.001-.426-.082-.574a.87.87 0 0 0-.342-.349c-.212-.121-.443-.203-.693-.247-.254-.046-.506-.05-.757-.014-.254.035-.487.113-.698.233-.222.127-.367.268-.434.424-.067.152-.064.302.009.45.071.146.206.273.405.379l-1.348.769c-.476-.271-.783-.565-.921-.882-.138-.317-.115-.635.068-.955.182-.321.521-.622 1.016-.904.453-.258.957-.432 1.513-.521a5.2684 5.2684 0 0 1 1.672-.014c.558.084 1.071.259 1.536.524.344.196.582.387.713.571.129.183.194.384.198.602 0 .216-.018.471-.053.766l-.232 2.01-.395-.105 3.257-1.856 1.234.703-4.857 2.768Zm5.815-3.315-1.136-.647.327-3.131c.026-.234-.002-.425-.082-.573a.8638.8638 0 0 0-.342-.349c-.212-.121-.443-.203-.694-.247a2.3135 2.3135 0 0 0-.756-.014c-.254.035-.487.112-.698.234-.222.126-.367.267-.434.422-.068.152-.064.302.01.451.07.146.205.272.404.378l-1.349.769c-.475-.27-.782-.565-.92-.881-.138-.317-.116-.635.068-.956.183-.32.522-.621 1.016-.903.453-.258.957-.432 1.513-.522a5.2915 5.2915 0 0 1 1.671-.014c.559.085 1.072.259 1.537.525.344.196.581.386.713.571.129.183.195.384.198.602 0 .216-.018.471-.053.766l-.231 2.009-.395-.104 3.256-1.856 1.233.703-4.856 2.767Zm7.222-4.105-5.511-3.14-.501 1.196-1.446-.823.521-1.186 1.339-.764 6.937 3.954-1.339.763Zm3.518-2.005-3.372-4.579-2.968 1.691-1.233-.703 4.374-2.493 1.233.703 3.382 4.574-1.416.807Zm7.331-4.178-1.079-.615-3.016 1.719-1.223-.697-2.448-3.888 1.503-.857 2.448 3.888 1.512-.863-1.734-.988 1.33-.758 1.734.989.617-.352 1.223.698-.616.351 1.079.615-1.33.758Zm5.668-3.066c-.46.262-.98.436-1.561.522-.578.084-1.164.078-1.758-.019-.598-.099-1.149-.292-1.653-.579l-2.014-1.148c-.545-.311-.91-.64-1.093-.986-.186-.348-.193-.692-.02-1.032.171-.343.516-.662 1.036-.958.337-.193.708-.347 1.113-.464.405-.118.853-.181 1.344-.19v1.066c-.231 0-.454.024-.67.073-.214.05-.403.121-.563.212-.251.143-.41.301-.477.475-.067.17-.058.338.029.505.086.163.236.305.448.426l1.031.587-.463-.01c-.003-.23.073-.448.227-.657.154-.212.371-.398.65-.557.437-.249.919-.412 1.445-.489.53-.079 1.058-.074 1.586.014.529.086 1.013.253 1.45.502.436.249.721.538.852.865.129.326.114.653-.043.981-.161.325-.459.613-.896.861Zm-1.253-.713c.199-.114.332-.245.4-.393.071-.15.072-.299.005-.448-.065-.15-.196-.282-.395-.395-.199-.113-.429-.189-.689-.228-.263-.04-.525-.041-.786-.002-.263.036-.494.111-.693.225-.199.113-.332.246-.4.398-.068.148-.068.298 0 .45.068.148.201.279.4.393.193.11.419.184.679.222.26.039.522.04.786.003.263-.037.494-.112.693-.225Z"/>
  <path fill="#060606" d="m313.81 217.308-10.939 6.234c-1.793 1.022-1.793 2.679 0 3.702 1.793 1.022 4.701 1.022 6.494 0l10.939-6.235c1.793-1.022 1.793-2.679 0-3.701-1.793-1.022-4.701-1.022-6.494 0Z"/>
  <path fill="#fff" d="m309.68 224.549-1.655-.943-.151.359-.434-.247.157-.357.402-.229 2.084 1.188-.403.229Zm.892-.511-.341-.195.098-.94c.008-.071 0-.128-.025-.173a.2616.2616 0 0 0-.102-.104.6775.6775 0 0 0-.209-.075.6923.6923 0 0 0-.227-.003.5778.5778 0 0 0-.21.069c-.066.039-.11.081-.13.127-.02.046-.019.091.003.136.021.044.062.082.122.114l-.406.231c-.142-.082-.235-.17-.276-.265-.041-.095-.035-.191.021-.287.054-.097.156-.187.304-.272.136-.077.288-.129.455-.156.167-.028.334-.03.502-.004.168.025.322.077.462.157.103.059.174.116.214.172.039.055.058.115.059.18 0 .065-.005.142-.016.23l-.069.604-.119-.031.978-.558.371.211-1.459.832Zm1.871-1.063-.394-.225.394-.224.394.224-.394.225Zm1.509-.817c-.105.059-.224.104-.36.134-.137.03-.279.043-.426.04a1.5177 1.5177 0 0 1-.418-.069l.281-.275c.096.031.195.043.296.033.102-.01.187-.035.256-.074.06-.035.1-.074.12-.119.022-.045.022-.09.002-.134-.019-.045-.059-.085-.119-.119-.089-.051-.197-.077-.322-.078-.126-.002-.236.024-.332.078a.2932.2932 0 0 0-.071.056.2323.2323 0 0 0-.044.063l-.487-.076.113-.691.113.031-.967.551-.37-.211 1.302-.742.371.211-.017.577-.113-.061c.137-.058.28-.091.428-.101.147-.01.29 0 .428.03s.261.075.368.136c.131.074.216.161.254.259.038.097.033.195-.015.292-.05.098-.14.184-.271.259Zm1.912-1.133-.324-.185-.906.516-.367-.209-.735-1.168.451-.257.736 1.167.454-.259-.521-.297.399-.227.521.297.185-.106.368.21-.186.105.325.185-.4.228Zm1.251-.713h-.521v-2.078l.524.001-.003 2.077Zm1.433-.767c-.096.054-.206.091-.331.109-.126.018-.251.018-.377 0s-.238-.054-.334-.109c-.095-.054-.158-.117-.188-.19-.031-.073-.03-.145.001-.217.032-.072.094-.135.187-.187.095-.054.206-.091.333-.109.125-.019.25-.019.376 0 .125.018.236.054.333.109.096.055.16.118.192.19.032.072.032.143 0 .215-.033.072-.097.134-.192.189Zm-.333-.19c.034-.019.056-.042.066-.068a.0926.0926 0 0 0 .002-.078c-.012-.026-.034-.049-.068-.068-.034-.02-.073-.032-.119-.038a.4626.4626 0 0 0-.139 0c-.045.006-.084.018-.118.038-.034.019-.057.042-.068.068-.011.026-.01.052.001.078.011.026.033.049.067.068a.353.353 0 0 0 .12.039.516.516 0 0 0 .136 0 .353.353 0 0 0 .12-.039Zm-2.011.239c-.096.055-.206.091-.332.11-.126.018-.252.018-.377.001-.126-.019-.237-.056-.333-.111-.095-.054-.157-.117-.189-.189-.03-.073-.03-.145.002-.217.032-.073.094-.135.187-.187.095-.055.206-.091.331-.108.126-.019.251-.019.378-.001.125.017.236.053.333.109.096.054.16.118.192.19.031.071.03.143-.001.215-.032.071-.096.134-.191.188Zm-.333-.189c.033-.02.056-.042.066-.068a.0966.0966 0 0 0 .002-.078c-.012-.027-.035-.05-.068-.069a.3331.3331 0 0 0-.119-.038.539.539 0 0 0-.139 0 .3215.3215 0 0 0-.118.038c-.034.019-.057.042-.068.069a.0926.0926 0 0 0 .001.078c.011.026.033.048.067.068a.32.32 0 0 0 .12.038c.045.007.09.007.136 0a.3321.3321 0 0 0 .12-.038Z"/>
  <mask id="f" width="5" height="3" x="304" y="224" maskUnits="userSpaceOnUse" style="mask-type:luminance">
    <path fill="#fff" d="m306.287 224.062-2.213 1.261 2.213 1.261 2.213-1.261-2.213-1.261Z"/>
  </mask>
  <g stroke="#fff" stroke-linecap="square" stroke-width=".844" mask="url(#f)">
    <path d="m306.288 226.164-.005-1.517M307.678 225.274l-1.39-.792-1.392.792"/>
  </g>
  <path stroke="#060606" stroke-linecap="round" stroke-linejoin="round" stroke-width="1.5" d="M230.125 213.246c2.024-1.153 2.024-3.023 0-4.177-2.024-1.154-5.305-1.154-7.33 0-2.024 1.154-2.024 3.024 0 4.177 2.025 1.154 5.306 1.154 7.33 0Z"/>
  <path stroke="#060606" stroke-linecap="square" stroke-linejoin="round" stroke-width="1.5" d="M231.645 211.158h3.716"/>
  <path fill="#060606" d="m247.34 199.754-5.083-2.898-1.946 1.109-1.088-.62 5.057-2.883 1.089.621-1.946 1.109 5.083 2.897-1.166.665Zm5.326-2.889c-.466.265-.979.439-1.539.52-.56.082-1.121.074-1.684-.022-.563-.099-1.083-.285-1.56-.557-.483-.275-.808-.574-.973-.896-.169-.324-.18-.645-.035-.963.146-.317.448-.606.905-.867.466-.265.979-.439 1.539-.52a5.3087 5.3087 0 0 1 1.692.022c.564.096 1.084.28 1.561.552.48.273.804.572.973.896.168.321.179.642.034.963-.146.317-.45.608-.913.872Zm-1.089-.621c.375-.213.528-.443.459-.691-.069-.251-.302-.489-.699-.716-.411-.234-.834-.368-1.268-.4-.432-.035-.832.053-1.201.263-.254.145-.405.297-.454.455-.048.158-.011.317.111.479.126.159.324.316.592.469.415.236.837.371 1.269.405.431.031.828-.057 1.191-.264Zm7.029-2.911c-.26.216-.549.41-.866.581-.311.171-.638.297-.981.379-.343.078-.69.089-1.042.032-.326-.056-.6-.143-.823-.264a46.963 46.963 0 0 1-.754-.42l-3.952-2.253 1.166-.664 3.883 2.213c.18.103.344.195.493.276.149.078.293.126.433.144.266.035.518-.008.758-.129.241-.121.479-.27.716-.447l.969.552Zm-7.021-.249-.9-.513 3.292-1.876.9.513-3.292 1.876Zm9.467-.998c-.332.188-.676.313-1.033.373-.357.057-.702.059-1.033.008-.331-.056-.626-.157-.883-.303-.214-.122-.377-.253-.489-.391-.111-.139-.161-.288-.15-.447.012-.163.096-.342.253-.535.109-.134.258-.282.446-.445.189-.163.411-.342.669-.537.254-.198.534-.414.84-.65l-.189.371c-.274-.156-.541-.234-.801-.232-.26.002-.545.091-.853.267-.172.097-.309.222-.412.376-.103.153-.085.311.052.474l-1.389.41c-.266-.285-.357-.588-.274-.909.083-.321.403-.64.96-.957.408-.233.834-.404 1.277-.513.443-.11.9-.122 1.371-.039.264.045.489.112.678.2.188.088.388.192.6.313l2.829 1.612-1.02.581-.952-.542.343.029c.085.306.067.574-.056.804-.123.226-.384.453-.784.682Zm-.669-.665c.215-.122.357-.246.429-.371.071-.129.101-.245.09-.35-.009-.106-.03-.186-.064-.241-.066-.106-.178-.209-.335-.308-.157-.103-.291-.186-.403-.249l.429-.147c-.289.23-.52.417-.695.562-.177.143-.315.261-.415.354-.1.093-.181.179-.245.257-.068.091-.111.172-.128.244-.017.068-.011.13.017.186.032.053.086.102.163.146.106.06.223.098.352.113.128.011.261 0 .398-.032.137-.033.273-.088.407-.164Zm4.338-1.573-6.301-3.591 1.166-.664 6.301 3.59-1.166.665Zm6.567-3.596c-.46.262-.952.42-1.475.474-.523.053-1.047.02-1.573-.101a5.4664 5.4664 0 0 1-1.478-.579c-.463-.263-.802-.544-1.016-.842-.215-.298-.279-.594-.193-.887.086-.293.349-.565.789-.816.442-.253.934-.412 1.474-.479.54-.067 1.084-.046 1.633.061.548.104 1.059.291 1.53.56.463.264.789.552.977.864.192.311.235.619.129.924-.106.304-.372.578-.797.821Zm-2.409 1.226-6.172-3.518 1.174-.669 3 1.71-.145.083 3.172 1.808-1.029.586Zm1.183-1.71c.251-.144.394-.297.428-.459.035-.163-.015-.327-.15-.491-.137-.166-.335-.324-.596-.472a3.3333 3.3333 0 0 0-.822-.332c-.295-.077-.589-.103-.883-.078-.294.021-.572.105-.831.254-.243.138-.382.284-.416.437-.032.152.024.307.167.467.143.159.354.319.634.479.28.159.56.279.84.361.28.081.556.111.827.09.275-.023.542-.108.802-.256Zm6.386-2.458c-.466.266-.978.439-1.539.52-.559.082-1.121.075-1.684-.022-.563-.099-1.083-.285-1.56-.557-.483-.275-.807-.574-.973-.896-.169-.324-.18-.645-.034-.963.146-.317.447-.606.904-.867.466-.265.979-.439 1.539-.52a5.315 5.315 0 0 1 1.693.022c.563.096 1.083.28 1.56.552.48.274.804.573.973.896.168.321.18.642.034.963-.145.317-.45.608-.913.872Zm-1.088-.62c.374-.214.527-.444.458-.692-.068-.25-.301-.489-.698-.716-.412-.234-.835-.367-1.269-.4-.431-.034-.832.054-1.2.264-.254.145-.406.296-.454.454-.049.158-.012.318.111.479.126.16.323.316.592.469.414.236.836.371 1.268.405.432.032.829-.056 1.192-.263Zm4.251-1.329-4.629-2.638 1.029-.586 1.131.644-.257-.019c-.1-.126-.166-.254-.197-.386-.032-.132-.017-.264.043-.396.043-.102.111-.202.205-.298.092-.097.203-.189.335-.273.128-.087.271-.165.428-.235l1.089.621c-.168.05-.332.128-.489.234-.157.103-.271.212-.343.327-.074.114-.105.228-.094.342.009.113.06.223.154.333.092.107.226.211.403.312l2.366 1.349-1.174.669Zm3.533-2.013-4.629-2.639 1.028-.586 1.132.645-.257-.019c-.1-.126-.166-.254-.197-.386-.032-.132-.018-.264.042-.396.043-.103.112-.202.206-.298.092-.098.203-.189.334-.274.129-.086.272-.164.429-.234l1.089.62c-.169.051-.332.129-.489.235-.157.102-.272.211-.343.327-.074.114-.106.228-.094.342.008.112.06.223.154.332.092.108.226.212.403.313l2.366 1.348-1.174.67Zm5.66-3.08c-.466.266-.979.439-1.539.52-.56.082-1.121.074-1.684-.022-.563-.099-1.083-.285-1.56-.557-.483-.275-.807-.574-.973-.896-.169-.324-.18-.645-.035-.963.146-.317.448-.606.905-.867.466-.265.979-.439 1.539-.52a5.3153 5.3153 0 0 1 1.693.022c.563.096 1.083.28 1.56.552.48.273.804.572.973.896.168.321.179.642.034.963-.146.317-.45.608-.913.872Zm-1.088-.621c.374-.213.527-.443.458-.691-.068-.251-.302-.489-.699-.716-.411-.234-.834-.368-1.268-.4-.432-.035-.832.053-1.201.263-.253.146-.405.297-.454.455-.048.158-.011.317.112.479.126.159.323.316.591.469.415.236.837.371 1.269.405.431.031.828-.056 1.192-.264Zm5.069-1.795-6.052-1.837 1.149-.645 3.6 1.095-1.907-2.059.968-.553 3.614 1.088-1.921-2.052 1.141-.65 3.214 3.444-.892.508-4.028-1.143 2.006 2.296-.892.508Zm8.108-4.474c-.474.27-.994.451-1.56.542-.565.088-1.13.089-1.693.002-.562-.089-1.076-.266-1.538-.53-.506-.288-.846-.596-1.02-.923-.175-.327-.189-.65-.043-.967.143-.32.443-.61.9-.87.485-.277 1.013-.447 1.582-.511.568-.063 1.141-.023 1.718.12s1.121.388 1.633.735l-1.153.657-.429-.244c-.471-.269-.885-.418-1.242-.449-.358-.035-.706.045-1.046.239-.397.226-.569.463-.515.708.055.243.317.499.789.768.432.245.859.383 1.281.412.424.026.817-.064 1.179-.271.229-.13.374-.27.437-.42.063-.15.043-.303-.06-.459l1.5-.474c.249.34.302.685.159 1.033-.14.347-.433.648-.879.902Zm-3.651-.333-.866-.493 3.069-1.749.865.493-3.068 1.749Zm8.593-2.484c-.427.243-.906.395-1.441.455-.534.06-1.076.036-1.624-.071-.546-.109-1.05-.296-1.513-.559-.472-.269-.8-.559-.986-.87-.186-.314-.22-.625-.103-.933.118-.308.397-.588.84-.841.44-.25.918-.4 1.432-.449.514-.049 1.033-.012 1.556.11.523.122 1.015.315 1.478.579.463.264.8.545 1.012.845.214.298.274.596.18.894-.095.298-.372.578-.831.84Zm-.849-.698c.26-.148.409-.3.446-.455.04-.156-.012-.314-.155-.473-.143-.16-.354-.32-.634-.479-.28-.16-.56-.28-.84-.362-.28-.081-.554-.112-.823-.093-.266.018-.52.096-.763.235-.26.148-.41.307-.45.476-.04.166.007.333.141.501.132.166.326.322.583.469.26.148.536.261.827.34.289.076.576.105.862.085.286-.019.554-.101.806-.244Zm1.971-.088-3.171-1.808-.146.083-3-1.71 1.174-.669 6.172 3.518-1.029.586Z"/>
  <path stroke="#060606" stroke-width="1.5" d="m311.863 152.995 10.821-6.168M315.64 155.146l10.821-6.167M324.018 154.675l6.217-3.544"/>
  <path fill="#fff" stroke="#060606" stroke-width="1.5" d="m428.322 229.425-64.693 36.872c-3.483 1.985-3.483 5.204 0 7.189 3.483 1.985 9.13 1.985 12.613 0l64.693-36.872c3.483-1.985 3.483-5.204 0-7.189-3.483-1.985-9.13-1.985-12.613 0Z"/>
  <path fill="#060606" d="m430.262 231.13-63.022 35.92c-1.985 1.131-1.985 2.964 0 4.095 1.984 1.131 5.201 1.131 7.186 0l63.022-35.92c1.985-1.131 1.985-2.964 0-4.095-1.984-1.131-5.201-1.131-7.186 0Z"/>
  <path stroke="#060606" stroke-width="1.5" d="m367.24 267.05 63.022-35.92c1.985-1.131 5.202-1.131 7.186 0 1.985 1.131 1.985 2.964 0 4.095l-63.022 35.92c-1.985 1.131-5.202 1.131-7.186 0-1.985-1.131-1.985-2.964 0-4.095Z"/>
  <mask id="g" width="64" height="109" x="370" y="164" maskUnits="userSpaceOnUse" style="mask-type:alpha">
    <path fill="#D9D9D9" d="M433.779 164.517 370.4 200.639v72.246l63.379-36.123v-72.245Z"/>
  </mask>
  <g mask="url(#g)">
    <path fill="#060606" fill-rule="evenodd" d="M378.743 269.375c-4.01-3.16-6.425-8.806-6.425-16.472 0-17.305 12.308-38.349 27.489-47.002 7.992-4.555 15.188-4.769 20.21-1.425l.002-.002.105.074c.125.085.249.173.372.262l4.851 3.423-.784 1.254c1.752 3.125 2.733 7.193 2.733 12.081 0 17.306-12.307 38.35-27.489 47.003-5.271 3.004-10.196 4.12-14.379 3.572l-.852 1.365-5.848-4.11.015-.023Z" clip-rule="evenodd"/>
    <mask id="h" width="56" height="72" x="372" y="202" maskUnits="userSpaceOnUse" style="mask-type:alpha">
      <path fill="#4C2FFC" fill-rule="evenodd" d="M378.743 269.374c-4.01-3.16-6.425-8.806-6.425-16.472 0-17.305 12.308-38.349 27.489-47.002 7.992-4.555 15.188-4.769 20.21-1.425l.002-.002.105.074c.125.085.249.173.372.262l4.851 3.423-.784 1.254c1.752 3.125 2.733 7.193 2.733 12.081 0 17.306-12.307 38.35-27.489 47.003-5.271 3.004-10.196 4.12-14.379 3.572l-.852 1.365-5.848-4.109.015-.024Z" clip-rule="evenodd"/>
    </mask>
    <g mask="url(#h)">
      <path fill="#060606" d="m339.485 235.61 58.151 33.143v28.502l-58.151-33.143V235.61Z"/>
    </g>
    <path fill="#060606" d="m378.743 269.375.231-.286.259.204-.176.277-.314-.195Zm41.275-64.899.314.195-.204.32-.318-.211.208-.304Zm.001-.002-.314-.195.209-.33.321.227-.216.298Zm.105.074-.21.302-.006-.004.216-.298Zm.372.262-.216.299-.005-.004.221-.295Zm4.851 3.423.215-.298.283.199-.183.291-.315-.192Zm-.784 1.254-.325.178-.105-.188.114-.182.316.192Zm-39.134 62.656-.317-.193.126-.202.239.031-.048.364Zm-.853 1.365.316.192-.209.333-.323-.227.216-.298Zm-5.848-4.11-.215.299-.285-.2.186-.293.314.194Zm-6.038-16.495c0 7.597 2.392 13.118 6.284 16.186l-.463.573c-4.126-3.253-6.564-9.024-6.564-16.759h.743Zm27.303-46.685c-7.521 4.287-14.351 11.657-19.302 20.122-4.95 8.465-8.001 17.99-8.001 26.563h-.743c0-8.732 3.103-18.382 8.101-26.929 4.999-8.547 11.913-16.025 19.574-20.39l.371.634Zm19.817-1.438c-4.863-3.237-11.896-3.076-19.817 1.438l-.371-.634c8.063-4.596 15.42-4.862 20.603-1.411l-.415.607Zm-.107-.498.002-.003.628.39-.001.002-.629-.389Zm.532-.106.105.074-.432.596-.105-.074.432-.596Zm.04.929c-.119-.088-.24-.173-.361-.255l.42-.604c.129.088.257.178.383.27l-.442.589Zm.437-.593 4.85 3.423-.431.596-4.851-3.422.432-.597Zm4.95 3.913-.783 1.255-.632-.385.783-1.254.632.384Zm1.263 13.143c0-4.842-.973-8.845-2.687-11.903l.65-.355c1.788 3.191 2.78 7.323 2.78 12.258h-.743Zm-27.303 46.685c7.521-4.287 14.351-11.657 19.302-20.122 4.95-8.465 8.001-17.989 8.001-26.563h.743c0 8.733-3.103 18.383-8.101 26.93-4.999 8.546-11.913 16.024-19.574 20.39l-.371-.635Zm-14.145 3.526c4.081.535 8.923-.549 14.145-3.526l.371.635c-5.32 3.032-10.327 4.179-14.613 3.618l.097-.727Zm.267.556-.852 1.365-.632-.385.852-1.365.632.385Zm-1.384 1.471-5.847-4.109.43-.597 5.848 4.109-.431.597Zm-5.946-4.602.015-.024.628.39-.015.023-.628-.389Z"/>
    <use xlink:href="#reuse-1"/>
    <mask id="i" width="56" height="71" x="377" y="205" maskUnits="userSpaceOnUse" style="mask-type:alpha">
      <use xlink:href="#reuse-1"/>
    </mask>
    <g mask="url(#i)">
      <path fill="#fff" d="m375.896 258.369 58.151-33.143v-35.547l-58.151 33.144v35.546Z"/>
    </g>
    <path stroke="#060606" stroke-width="1.5" d="M404.867 272.13c-15.181 8.653-27.489 1.638-27.489-15.668 0-17.305 12.308-38.349 27.489-47.002 15.182-8.653 27.489-1.638 27.489 15.668 0 17.305-12.307 38.349-27.489 47.002Z"/>
  </g>
  <path fill="#060606" d="m408.13 236.868 9.916-12.768-1.665-2.665-9.085 10.295c-.233.265-.494.436-.727.478l-9.084 1.663-1.671 4.872 9.916-.283-9.916 12.769 1.671 2.673 9.084-10.327c.233-.265.494-.437.727-.479l9.085-1.651 1.67-4.872-9.921.295Z"/>
  <g clip-path="url(#j)">
    <path fill="#4C2FFC" fill-rule="evenodd" d="M472.14 159.495c4.041-3.188 6.474-8.886 6.474-16.621 0-17.463-12.403-38.698-27.703-47.4295-8.054-4.5962-15.306-4.8117-20.368-1.4376l-.001-.0031-.14.0986c-.104.071-.206.1436-.308.2177l-4.922 3.477.79 1.2662c-1.765 3.1537-2.755 7.2577-2.755 12.1907 0 17.463 12.403 38.698 27.704 47.43 5.312 3.031 10.275 4.157 14.491 3.604l.859 1.377 5.894-4.147-.015-.023Z" clip-rule="evenodd"/>
    <mask id="k" width="56" height="73" x="423" y="91" maskUnits="userSpaceOnUse" style="mask-type:alpha">
      <path fill="#4C2FFC" fill-rule="evenodd" d="M472.14 159.494c4.041-3.188 6.474-8.886 6.474-16.621 0-17.463-12.403-38.698-27.703-47.4295-8.054-4.5962-15.306-4.8116-20.368-1.4376l-.001-.003-.14.0985c-.104.0711-.206.1436-.308.2177l-4.922 3.477.79 1.2662c-1.765 3.1537-2.755 7.2577-2.755 12.1907 0 17.463 12.403 38.698 27.704 47.43 5.312 3.031 10.275 4.157 14.491 3.604l.859 1.377 5.894-4.147-.015-.023Z" clip-rule="evenodd"/>
    </mask>
    <g mask="url(#k)">
      <path fill="#4C2FFC" d="m511.703 125.422-58.604 33.444v28.76l58.604-33.444v-28.76Z"/>
    </g>
    <path fill="#fff" d="M445.812 162.275c15.3 8.732 27.704 1.653 27.704-15.81s-12.404-38.697-27.704-47.4288c-15.3-8.7315-27.704-1.6532-27.704 15.8098s12.404 38.698 27.704 47.429Z"/>
    <path stroke="#060606" stroke-width="1.5" d="M445.812 162.275c15.3 8.732 27.704 1.653 27.704-15.81s-12.404-38.697-27.704-47.4288c-15.3-8.7315-27.704-1.6532-27.704 15.8098s12.404 38.698 27.704 47.429Z"/>
    <path fill="#000" d="M450.507 137.726c-.007-3.013-1.534-5.046-4.584-7.475-2.178-1.772-2.615-2.746-2.618-3.952-.003-1.205.721-1.504 2.173-.552 1.306.857 2.034 1.849 2.4 3.378.073.306.291.621.509.764l1.161.761c.29.191.507.075.507-.269l-.001-.086c-.294-2.085-1.604-4.405-3.274-5.671l-.005-2.067c-.001-.344-.219-.745-.582-1.069l-1.089-.714c-.29-.191-.508-.075-.579.308l.004 1.98c-2.176-1.083-3.551-.266-3.546 1.887.007 2.841 1.461 4.912 4.51 7.341 2.034 1.763 2.688 2.708 2.692 4.086.003 1.377-1.011 1.658-2.39.754-1.888-1.238-2.543-2.613-2.764-4.047-.073-.392-.291-.707-.509-.85l-1.234-.809c-.29-.19-.508-.075-.507.27v.086c.296 2.342 1.461 4.654 3.857 6.654l.005 2.067c.001.344.219.745.582 1.069l1.089.714c.29.19.508.075.579-.308l-.005-2.066c2.177.997 3.624.141 3.619-2.184Z"/>
    <path fill="#000" d="M442.036 141.198c-5.667-6.123-8.589-15.517-6.499-20.766 1.08-2.902 3.469-4.086 6.442-3.427.29.019.434-.144.433-.575l-.002-1.205c-.001-.345-.147-.698-.438-.975-.072-.047-.217-.142-.29-.104-6.889-1.938-10.643 4.283-8.446 13.889 1.317 5.678 4.447 11.426 8.516 15.641.291.363.581.381.652.084.073-.038.072-.125.072-.296l-.003-1.206c0-.258-.219-.745-.437-1.06Zm7.631-21.817c-.291-.363-.581-.381-.653-.084-.072.039-.072.125-.072.297l.003 1.205c.001.345.22.832.438 1.147 5.667 6.122 8.588 15.516 6.499 20.765-1.081 2.902-3.469 4.087-6.442 3.427-.29-.018-.435.145-.434.576l.003 1.205c.001.344.147.698.437.974.073.048.218.143.29.104 6.89 1.939 10.644-4.282 8.447-13.889-1.318-5.764-4.521-11.56-8.516-15.727Z"/>
  </g>
  <g clip-path="url(#l)">
    <path fill="#4C2FFC" fill-rule="evenodd" d="M506.444 106.874c3.034-2.371 4.861-6.607 4.861-12.3587 0-12.9848-9.314-28.7741-20.803-35.2665-6.048-3.4175-11.493-3.5777-15.294-1.0691l-.002-.0018-.082.0574c-.093.063-.185.1276-.277.1938l-3.673 2.5693.593.941c-1.325 2.3448-2.069 5.3967-2.069 9.0649 0 12.9848 9.314 28.7743 20.804 35.2667 3.989 2.254 7.716 3.091 10.882 2.68l.646 1.024 4.425-3.083-.011-.018Z" clip-rule="evenodd"/>
    <use xlink:href="#reuse-2"/>
    <mask id="m" width="43" height="55" x="469" y="56" maskUnits="userSpaceOnUse" style="mask-type:alpha">
      <path fill="#4C2FFC" fill-rule="evenodd" d="M506.444 106.87c3.034-2.371 4.861-6.607 4.861-12.3586 0-12.9847-9.314-28.7741-20.803-35.2664-6.048-3.4176-11.493-3.5778-15.294-1.0691l-.002-.0019-.082.0574c-.093.063-.185.1276-.277.1938l-3.673 2.5693.593.9411c-1.325 2.3447-2.069 5.3967-2.069 9.0649 0 12.9847 9.314 28.7742 20.804 35.2665 3.989 2.254 7.716 3.091 10.882 2.68l.646 1.024 4.425-3.083-.011-.018Z" clip-rule="evenodd"/>
      <path fill="#060606" d="m506.444 106.87-.234-.286-.262.204.178.278.318-.196Zm-31.237-48.6941-.317.1951.206.3211.321-.212-.21-.3042Zm-.001-.0018.318-.1951-.212-.33-.324.2265.218.2986Zm-.082.0573.213.3022.005-.0036-.218-.2986Zm-.277.1938.218.2986.005-.0038-.223-.2948Zm-3.673 2.5693-.218-.2985-.285.1994.184.2917.319-.1926Zm.593.9411.328.1776.106-.1876-.115-.1826-.319.1926Zm29.617 47.0114.319-.193-.127-.202-.241.031.049.364Zm.646 1.024-.32.192.211.334.326-.227-.217-.299Zm4.425-3.083.217.299.289-.201-.189-.293-.317.195Zm4.475-12.3765c0 5.6815-1.804 9.7935-4.72 12.0725l.468.573c3.152-2.463 5.002-6.825 5.002-12.6455h-.75Zm-20.616-34.9487c5.675 3.2063 10.833 8.7233 14.573 15.0642 3.741 6.341 6.043 13.4716 6.043 19.8845h.75c0-6.572-2.354-13.8284-6.143-20.2514-3.789-6.423-9.033-12.0469-14.848-15.3329l-.375.6356Zm-14.897-1.0827c3.639-2.4019 8.921-2.2943 14.897 1.0827l.375-.6356c-6.12-3.4581-11.728-3.671-15.691-1.0555l.419.6084Zm.108-.4992-.001-.0019-.635.3901.001.0019.635-.3901Zm-.537-.1054-.082.0575.436.597.082-.0574-.436-.5971Zm.082.8445c.088-.0637.177-.1258.267-.1864l-.426-.6043c-.096.0654-.192.1324-.287.2011l.446.5896Zm-.441-.5933-3.673 2.5693.436.597 3.673-2.5692-.436-.5971Zm-3.774 3.0604.593.9411.638-.3852-.593-.941-.638.3851Zm-.782 9.8134c0-3.6217.734-6.6091 2.022-8.8873l-.656-.3552c-1.363 2.4113-2.116 5.5278-2.116 9.2425h.75Zm20.616 34.9485c-5.674-3.206-10.832-8.7231-14.573-15.0641-3.741-6.341-6.043-13.4716-6.043-19.8844h-.75c0 6.5719 2.355 13.8283 6.144 20.2513s9.032 12.0472 14.847 15.3332l.375-.636Zm10.646 2.634c-3.062.398-6.706-.407-10.646-2.634l-.375.636c4.039 2.282 7.85 3.15 11.12 2.726l-.099-.728Zm-.27.556.645 1.024.639-.385-.646-1.024-.638.385Zm1.182 1.131 4.425-3.083-.434-.598-4.426 3.083.435.598Zm4.525-3.577-.011-.018-.635.391.011.017.635-.39Z"/>
    </mask>
    <g mask="url(#m)">
      <path fill="#4C2FFC" d="m536.153 81.5375-44.008 24.8675v21.386l44.008-24.868V81.5375Z"/>
    </g>
    <use xlink:href="#reuse-2"/>
    <path fill="#fff" d="M486.673 108.94c11.489 6.492 20.803 1.229 20.803-11.7555 0-12.9847-9.314-28.7741-20.803-35.2665-11.49-6.4923-20.804-1.2292-20.804 11.7555 0 12.9848 9.314 28.7745 20.804 35.2665Z"/>
    <path stroke="#060606" stroke-width="1.5" d="M486.673 108.94c11.489 6.492 20.803 1.229 20.803-11.7555 0-12.9847-9.314-28.7741-20.803-35.2665-11.49-6.4923-20.804-1.2292-20.804 11.7555 0 12.9848 9.314 28.7745 20.804 35.2665Z"/>
    <path fill="#000" stroke="#000" d="m486.693 73.5662 2.525 4.7007-6.359 3.3575-2.525-4.6289 6.359-3.4293ZM490.527 80.5929l2.525 4.7007-10.193 5.3817-2.525-4.6289 10.193-5.4535ZM479.026 77.6139l2.526 4.7006-2.526 1.3334-2.525-4.6288 2.525-1.4052ZM494.361 87.6198l2.525 4.7007-10.193 5.3816-2.525-4.6289 10.193-5.4534Z"/>
  </g>
  <path fill="#B2BBC0" d="M310.191 321.443c.297-.302.305-.749.017-.996-.288-.248-.763-.205-1.062.098l1.045.898ZM20.7002 360.972c-.4132.077-.7198.45-.6849.834l.5681 6.245c.0349.384.3981.632.8112.554.4132-.077.7198-.451.6849-.834l-.505-5.552 5.9842-1.121c.4131-.078.7198-.451.6849-.834-.0348-.384-.398-.632-.8111-.554l-6.7323 1.262Zm-.4212 1.283a82.4247 82.4247 0 0 0 4.6116 2.928l.8968-1.225a81.2242 81.2242 0 0 1-4.5398-2.882l-.9686 1.179Zm14.4435 7.908c3.4046 1.467 6.915 2.736 10.5042 3.807l.598-1.355c-3.5385-1.056-6.9982-2.306-10.3533-3.752l-.7489 1.3Zm21.5221 6.447c3.7513.688 7.5564 1.18 11.3903 1.481l.2936-1.411c-3.783-.298-7.5369-.783-11.2376-1.462l-.4463 1.392Zm23.0199 1.812c3.9213-.082 7.8448-.358 11.7423-.823l-.0178-1.405c-3.8448.459-7.7156.731-11.5852.812l-.1393 1.416Zm23.4675-2.818c3.925-.871 7.794-1.938 11.575-3.2l-.351-1.329c-3.723 1.242-7.535 2.294-11.404 3.152l.18 1.377Zm22.826-7.651c3.706-1.713 7.286-3.631 10.707-5.747l-.718-1.157c-3.358 2.077-6.875 3.961-10.519 5.646l.53 1.258Zm20.598-12.812c3.132-2.58 6.061-5.364 8.749-8.347l-1.097-.842c-2.629 2.918-5.494 5.642-8.563 8.169l.911 1.02Zm16.011-17.836c2.107-3.276 3.951-6.734 5.499-10.371l-1.385-.392c-1.514 3.555-3.316 6.934-5.374 10.135l1.26.628Zm9.105-21.292c.854-3.557 1.445-7.25 1.752-11.077l-1.498.056c-.301 3.758-.881 7.379-1.716 10.862l1.462.159Zm1.845-22.108a85.5641 85.5641 0 0 0-.508-5.474l-1.491.322c.227 1.824.392 3.622.499 5.393l1.5-.241Zm-.508-5.474c-.239-1.925-.589-3.77-1.039-5.534l-1.462.477c.437 1.713.777 3.506 1.01 5.379l1.491-.322Zm-5.243-15.786c-1.971-3.32-4.38-6.169-7.09-8.533l-1.085 1.089c2.612 2.28 4.938 5.03 6.844 8.24l1.331-.796Zm-16.753-14.473c-3.71-1.505-7.634-2.34-11.564-2.481l-.228 1.415c3.748.134 7.505.932 11.07 2.378l.722-1.312Zm-23.798-.567c-3.909 1.431-7.569 3.665-10.728 6.722l1.014.927c2.979-2.882 6.426-4.986 10.113-6.336l-.399-1.313Zm-17.792 16.853c-1.518 3.335-2.64 7.115-3.274 11.347l1.487.038c.616-4.115 1.702-7.763 3.157-10.958l-1.37-.427Zm-3.79 22.808c.087 1.812.248 3.684.489 5.618l1.491-.322c-.237-1.904-.395-3.744-.48-5.522l-1.5.226Zm.489 5.618c.23 1.847.534 3.707.913 5.572l1.476-.417c-.372-1.835-.672-3.663-.898-5.477l-1.491.322Zm3.895 16.353c1.205 3.44 2.651 6.864 4.324 10.233l1.373-.718c-1.652-3.324-3.077-6.702-4.266-10.095l-1.431.58Zm9.834 19.85a95.93 95.93 0 0 0 6.595 8.923l1.221-.95a94.9776 94.9776 0 0 1-6.513-8.812l-1.303.839Zm14.207 17.054c2.686 2.552 5.547 4.97 8.574 7.222l1.01-1.15c-2.985-2.221-5.808-4.607-8.46-7.126l-1.124 1.054Zm18.066 13.408c3.295 1.863 6.744 3.54 10.34 5l.722-1.311c-3.54-1.437-6.938-3.089-10.185-4.926l-.877 1.237Zm21.407 8.661c3.757.973 7.646 1.717 11.659 2.205l.358-1.405c-3.947-.48-7.772-1.212-11.469-2.169l-.548 1.369Zm23.707 2.881c3.97-.03 8.041-.305 12.209-.845l-.034-1.403c-4.103.533-8.109.803-12.014.832l-.161 1.416Zm24.391-3.134c3.922-.962 7.918-2.155 11.984-3.596l-.382-1.319c-4.012 1.423-7.953 2.599-11.82 3.547l.218 1.368Zm23.588-8.306c3.691-1.688 7.434-3.578 11.225-5.681l-.646-1.2c-3.752 2.081-7.454 3.951-11.105 5.619l.526 1.262Zm22.025-12.172c3.416-2.212 6.867-4.596 10.353-7.159l-.835-1.078c-3.458 2.543-6.882 4.907-10.268 7.099l.75 1.138Zm20.263-14.862c3.139-2.573 6.302-5.289 9.489-8.157l-.969-.97c-3.168 2.851-6.311 5.55-9.428 8.105l.908 1.022Zm18.589-16.696c1.493-1.46 2.992-2.951 4.497-4.478l-1.045-.898a328.7578 328.7578 0 0 1-4.474 4.455l1.022.921Z"/>
  <path fill="#fff" d="M9.0653 10.9851V7.1818h17.9191v3.8033h-6.6797V29H15.745V10.9851H9.0653ZM28.151 29V12.6364h4.3999v2.8551h.1704c.2983-1.0156.799-1.7827 1.5022-2.3012.7031-.5255 1.5128-.7883 2.4289-.7883.2273 0 .4723.0142.7351.0426.2628.0284.4936.0675.6925.1172v4.027c-.2131-.0639-.5078-.1208-.8842-.1705-.3765-.0497-.7209-.0745-1.0334-.0745-.6676 0-1.2642.1455-1.7898.4367-.5185.2841-.9304.6819-1.2358 1.1932-.2983.5114-.4474 1.1009-.4474 1.7685V29h-4.5384Zm16.4729.3089c-1.0441 0-1.9745-.1811-2.7912-.5433-.8168-.3693-1.4631-.9126-1.939-1.6299-.4687-.7245-.7031-1.6265-.7031-2.706 0-.9091.1669-1.6726.5007-2.2905.3338-.6179.7884-1.1151 1.3637-1.4915.5752-.3764 1.2287-.6605 1.9602-.8522.7386-.1918 1.5128-.3267 2.3224-.4049.9517-.0994 1.7188-.1917 2.3012-.277.5824-.0923 1.0049-.2272 1.2677-.4048.2628-.1776.3942-.4403.3942-.7883v-.064c0-.6747-.2131-1.1967-.6392-1.566-.419-.3693-1.0156-.554-1.7898-.554-.8167 0-1.4666.1811-1.9495.5433-.483.3551-.8026.8026-.9589 1.3424l-4.1974-.341c.2131-.9943.6321-1.8536 1.2571-2.5781.625-.7315 1.4311-1.2926 2.4183-1.6832.9943-.3977 2.1449-.5966 3.4517-.5966.9091 0 1.7792.1065 2.6101.3196.8381.2131 1.5803.5433 2.2266.9908.6534.4474 1.1683 1.0227 1.5447 1.7258.3764.696.5647 1.5306.5647 2.5036V29h-4.304v-2.2692h-.1279c-.2627.5114-.6143.9624-1.0546 1.353-.4404.3835-.9695.6854-1.5874.9055-.6179.2131-1.3317.3196-2.1413.3196Zm1.2997-3.1321c.6676 0 1.2571-.1313 1.7684-.3941.5114-.2699.9127-.6321 1.2039-1.0867.2912-.4545.4368-.9694.4368-1.5447v-1.7365c-.1421.0923-.3374.1775-.586.2557-.2415.071-.5149.1384-.8203.2024a41.2227 41.2227 0 0 1-.9162.1598 230.454 230.454 0 0 0-.8309.1172c-.5327.0781-.9979.2024-1.3956.3728-.3978.1705-.7067.4013-.9269.6925-.2202.2841-.3302.6392-.3302 1.0653 0 .6179.2237 1.0902.6711 1.4169.4546.3196 1.0299.4794 1.7259.4794Zm17.4662 3.0895c-1.2429 0-2.3686-.3196-3.3771-.9588-1.0014-.6463-1.7969-1.5944-2.3864-2.8444-.5823-1.2571-.8735-2.7983-.8735-4.6236 0-1.875.3018-3.434.9055-4.6769.6037-1.25 1.4063-2.1839 2.4077-2.8018 1.0085-.625 2.1129-.9375 3.3132-.9375.9162 0 1.6797.1562 2.2905.4687.6179.3054 1.115.689 1.4914 1.1506.3836.4546.6748.902.8736 1.3423h.1385v-8.203h4.5277V29h-4.4744v-2.6207h-.1918c-.213.4545-.5149.9055-.9055 1.3529-.3835.4404-.8842.8062-1.5021 1.0973-.6108.2912-1.3566.4368-2.2373.4368Zm1.4382-3.6115c.7316 0 1.3495-.1988 1.8537-.5966.5114-.4048.902-.9694 1.1719-1.6939.277-.7244.4155-1.5731.4155-2.5461 0-.973-.1349-1.8182-.4048-2.5355-.2699-.7174-.6605-1.2713-1.1719-1.662-.5114-.3906-1.1328-.5859-1.8644-.5859-.7457 0-1.3742.2024-1.8856.6072-.5114.4049-.8984.966-1.1612 1.6833-.2628.7173-.3942 1.5483-.3942 2.4929 0 .9517.1314 1.7933.3942 2.5248.2699.7245.6569 1.2927 1.1612 1.7046.5114.4048 1.1399.6072 1.8856.6072Zm19.0617 3.6648c-1.6833 0-3.1321-.3409-4.3466-1.0227-1.2074-.6889-2.1378-1.662-2.7912-2.9191-.6534-1.2642-.9801-2.7592-.9801-4.485 0-1.6833.3267-3.1606.9801-4.4319.6534-1.2713 1.5731-2.262 2.7592-2.9723 1.1932-.7102 2.5923-1.0653 4.1975-1.0653 1.0795 0 2.0845.174 3.0149.522.9375.3409 1.7542.8558 2.4503 1.5448.7031.6889 1.25 1.5554 1.6406 2.5994.3906 1.0369.5859 2.2514.5859 3.6435v1.2464H77.5827v-2.8125h9.5455c0-.6534-.142-1.2322-.4261-1.7365s-.6783-.8984-1.1826-1.1825c-.4971-.2912-1.076-.4368-1.7365-.4368-.6889 0-1.2997.1598-1.8324.4794-.5255.3125-.9375.7351-1.2358 1.2677-.2983.5256-.451 1.1115-.4581 1.7579v2.674c0 .8096.1492 1.5092.4475 2.0987.3054.5895.7351 1.044 1.2891 1.3636.5539.3196 1.2109.4794 1.9708.4794.5043 0 .9659-.071 1.385-.213.419-.1421.7777-.3552 1.076-.6393.2983-.284.5255-.6321.6818-1.044l4.1974.277c-.213 1.0085-.6498 1.8892-1.3103 2.642-.6534.7458-1.4986 1.3282-2.5355 1.7472-1.0299.4119-2.2195.6179-3.5689.6179Zm15.4048-3.3026-.1172 1.1719c-.0923.9375-.2699 1.8715-.5327 2.8019-.2557.9375-.5255 1.7862-.8096 2.5461-.277.76-.5007 1.3566-.6712 1.7898h-2.9403c.1065-.419.2521-1.005.4368-1.7578.1846-.7457.3586-1.5838.522-2.5142a22.0602 22.0602 0 0 0 .3089-2.8445l.0533-1.1932h3.75ZM109.447 29V7.1818h14.702v3.8033H114.06v5.1988h9.332v3.8033h-9.332v5.2095h10.131V29h-14.744Zm22.95.3089c-1.044 0-1.974-.1811-2.791-.5433-.817-.3693-1.463-.9126-1.939-1.6299-.469-.7245-.703-1.6265-.703-2.706 0-.9091.167-1.6726.501-2.2905.333-.6179.788-1.1151 1.363-1.4915.576-.3764 1.229-.6605 1.961-.8522.738-.1918 1.512-.3267 2.322-.4049.952-.0994 1.719-.1917 2.301-.277.582-.0923 1.005-.2272 1.268-.4048.263-.1776.394-.4403.394-.7883v-.064c0-.6747-.213-1.1967-.639-1.566-.419-.3693-1.016-.554-1.79-.554-.817 0-1.467.1811-1.95.5433-.482.3551-.802.8026-.958 1.3424l-4.198-.341c.213-.9943.632-1.8536 1.257-2.5781.625-.7315 1.431-1.2926 2.419-1.6832.994-.3977 2.145-.5966 3.451-.5966.909 0 1.779.1065 2.61.3196.839.2131 1.581.5433 2.227.9908.653.4474 1.168 1.0227 1.545 1.7258.376.696.564 1.5306.564 2.5036V29h-4.304v-2.2692h-.127c-.263.5114-.615.9624-1.055 1.353-.44.3835-.97.6854-1.587.9055-.618.2131-1.332.3196-2.142.3196Zm1.3-3.1321c.668 0 1.257-.1313 1.768-.3941.512-.2699.913-.6321 1.204-1.0867.291-.4545.437-.9694.437-1.5447v-1.7365c-.142.0923-.337.1775-.586.2557-.241.071-.515.1384-.82.2024-.306.0568-.611.1101-.916.1598-.306.0426-.583.0816-.831.1172-.533.0781-.998.2024-1.396.3728-.398.1705-.707.4013-.927.6925-.22.2841-.33.6392-.33 1.0653 0 .6179.224 1.0902.671 1.4169.455.3196 1.03.4794 1.726.4794ZM145.133 29V12.6364h4.4v2.8551h.171c.298-1.0156.799-1.7827 1.502-2.3012.703-.5255 1.513-.7883 2.429-.7883.227 0 .472.0142.735.0426.263.0284.493.0675.692.1172v4.027c-.213-.0639-.507-.1208-.884-.1705-.376-.0497-.721-.0745-1.033-.0745-.668 0-1.264.1455-1.79.4367-.519.2841-.93.6819-1.236 1.1932-.298.5114-.447 1.1009-.447 1.7685V29h-4.539Zm16.814-9.4602V29h-4.538V12.6364h4.325v2.887h.192c.362-.9517.969-1.7045 1.822-2.2585.852-.5611 1.885-.8416 3.1-.8416 1.136 0 2.127.2486 2.972.7457.845.4972 1.502 1.2074 1.971 2.1307.469.9162.703 2.01.703 3.2813V29h-4.538v-9.6094c.007-1.0014-.249-1.7826-.767-2.3437-.519-.5682-1.233-.8523-2.142-.8523-.611 0-1.15.1314-1.619.3942-.462.2628-.824.6463-1.087 1.1505-.255.4972-.387 1.0973-.394 1.8005Zm19.056 6.4772-.117 1.1719c-.092.9375-.27 1.8715-.532 2.8019-.256.9375-.526 1.7862-.81 2.5461-.277.76-.501 1.3566-.671 1.7898h-2.941c.107-.419.252-1.005.437-1.7578.185-.7457.359-1.5838.522-2.5142.164-.9304.266-1.8786.309-2.8445l.053-1.1932h3.75ZM191.156 29V7.1818h4.613v18.0149h9.354V29h-13.967Zm24.394.3196c-1.684 0-3.132-.3409-4.347-1.0227-1.207-.6889-2.138-1.662-2.791-2.9191-.653-1.2642-.98-2.7592-.98-4.485 0-1.6833.327-3.1606.98-4.4319.653-1.2713 1.573-2.262 2.759-2.9723 1.193-.7102 2.592-1.0653 4.198-1.0653 1.079 0 2.084.174 3.015.522.937.3409 1.754.8558 2.45 1.5448.703.6889 1.25 1.5554 1.64 2.5994.391 1.0369.586 2.2514.586 3.6435v1.2464h-13.817v-2.8125h9.545c0-.6534-.142-1.2322-.426-1.7365-.284-.5043-.678-.8984-1.182-1.1825-.497-.2912-1.076-.4368-1.737-.4368-.689 0-1.3.1598-1.832.4794-.526.3125-.938.7351-1.236 1.2677-.298.5256-.451 1.1115-.458 1.7579v2.674c0 .8096.149 1.5092.447 2.0987.306.5895.735 1.044 1.289 1.3636.554.3196 1.211.4794 1.971.4794.505 0 .966-.071 1.385-.213.419-.1421.778-.3552 1.076-.6393.299-.284.526-.6321.682-1.044l4.197.277c-.213 1.0085-.649 1.8892-1.31 2.642-.653.7458-1.498 1.3282-2.535 1.7472-1.03.4119-2.22.6179-3.569.6179Zm15.01-9.7798V29h-4.538V12.6364h4.325v2.887h.192c.362-.9517.97-1.7045 1.822-2.2585.852-.5611 1.885-.8416 3.1-.8416 1.136 0 2.127.2486 2.972.7457.845.4972 1.502 1.2074 1.971 2.1307.469.9162.703 2.01.703 3.2813V29h-4.538v-9.6094c.007-1.0014-.249-1.7826-.767-2.3437-.519-.5682-1.232-.8523-2.141-.8523-.611 0-1.151.1314-1.62.3942-.461.2628-.824.6463-1.086 1.1505-.256.4972-.388 1.0973-.395 1.8005Zm20.154 9.7265c-1.243 0-2.369-.3196-3.377-.9588-1.002-.6463-1.797-1.5944-2.387-2.8444-.582-1.2571-.873-2.7983-.873-4.6236 0-1.875.302-3.434.905-4.6769.604-1.25 1.407-2.1839 2.408-2.8018 1.009-.625 2.113-.9375 3.313-.9375.916 0 1.68.1562 2.291.4687.618.3054 1.115.689 1.491 1.1506.384.4546.675.902.874 1.3423h.138v-8.203h4.528V29h-4.474v-2.6207h-.192c-.213.4545-.515.9055-.906 1.3529-.383.4404-.884.8062-1.502 1.0973-.611.2912-1.356.4368-2.237.4368Zm1.438-3.6115c.732 0 1.35-.1988 1.854-.5966.511-.4048.902-.9694 1.172-1.6939.277-.7244.415-1.5731.415-2.5461 0-.973-.135-1.8182-.405-2.5355-.269-.7174-.66-1.2713-1.171-1.662-.512-.3906-1.133-.5859-1.865-.5859-.746 0-1.374.2024-1.885.6072-.512.4049-.899.966-1.162 1.6833-.262.7173-.394 1.5483-.394 2.4929 0 .9517.132 1.7933.394 2.5248.27.7245.657 1.2927 1.162 1.7046.511.4048 1.139.6072 1.885.6072ZM14.4773 65.3089c-1.0441 0-1.9745-.1811-2.7912-.5433-.8168-.3693-1.4631-.9126-1.939-1.6299-.4687-.7245-.703-1.6265-.703-2.706 0-.9091.1668-1.6726.5006-2.2905.3338-.6179.7884-1.1151 1.3637-1.4915.5753-.3764 1.2287-.6605 1.9602-.8522.7386-.1918 1.5128-.3267 2.3225-.4049.9517-.0994 1.7187-.1917 2.3011-.277.5824-.0923 1.005-.2272 1.2677-.4048.2628-.1776.3942-.4403.3942-.7883v-.064c0-.6747-.213-1.1967-.6392-1.566-.419-.3693-1.0156-.554-1.7898-.554-.8167 0-1.4666.1811-1.9495.5433-.483.3551-.8026.8026-.9588 1.3424l-4.1975-.341c.213-.9943.6321-1.8536 1.2571-2.5781.625-.7315 1.4311-1.2926 2.4183-1.6832.9944-.3977 2.1449-.5966 3.4517-.5966.9091 0 1.7792.1065 2.6101.3196.8381.2131 1.5803.5433 2.2266.9908.6534.4474 1.1683 1.0227 1.5447 1.7258.3765.696.5647 1.5306.5647 2.5036V65h-4.304v-2.2692h-.1278c-.2628.5114-.6144.9624-1.0547 1.353-.4404.3835-.9695.6854-1.5874.9055-.6179.2131-1.3317.3196-2.1413.3196Zm1.2997-3.1321c.6676 0 1.2571-.1313 1.7685-.3941.5113-.2699.9126-.6321 1.2038-1.0867.2912-.4545.4368-.9694.4368-1.5447v-1.7365c-.1421.0923-.3374.1775-.586.2557-.2414.071-.5149.1384-.8203.2024a41.2227 41.2227 0 0 1-.9162.1598 230.454 230.454 0 0 0-.8309.1172c-.5327.0781-.9979.2024-1.3956.3728-.3978.1705-.7067.4013-.9269.6925-.2201.2841-.3302.6392-.3302 1.0653 0 .6179.2237 1.0902.6711 1.4169.4546.3196 1.0299.4794 1.7259.4794Zm15.9748-6.637V65h-4.5384V48.6364h4.3253v2.887h.1918c.3622-.9517.9694-1.7045 1.8217-2.2585.8523-.5611 1.8857-.8416 3.1001-.8416 1.1364 0 2.1272.2486 2.9723.7457.8452.4972 1.5022 1.2074 1.9709 2.1307.4688.9162.7032 2.01.7032 3.2813V65h-4.5384v-9.6094c.0071-1.0014-.2486-1.7826-.767-2.3437-.5185-.5682-1.2323-.8523-2.1414-.8523-.6108 0-1.1506.1314-1.6193.3942-.4616.2628-.8239.6463-1.0866 1.1505-.2557.4972-.3871 1.0973-.3942 1.8005Zm20.1536 9.7265c-1.2429 0-2.3686-.3196-3.3772-.9588-1.0014-.6463-1.7968-1.5944-2.3863-2.8444-.5824-1.2571-.8736-2.7983-.8736-4.6236 0-1.875.3018-3.434.9055-4.6769.6037-1.25 1.4063-2.1839 2.4077-2.8018 1.0085-.625 2.1129-.9375 3.3132-.9375.9162 0 1.6797.1562 2.2905.4687.6179.3054 1.115.689 1.4915 1.1506.3835.4546.6747.902.8735 1.3423h.1385v-8.2031h4.5277V65H56.742v-2.6207h-.1918c-.213.4545-.5149.9055-.9055 1.3529-.3835.4404-.8842.8062-1.5021 1.0973-.6108.2912-1.3566.4368-2.2372.4368Zm1.4382-3.6115c.7315 0 1.3494-.1988 1.8537-.5966.5113-.4048.902-.9694 1.1718-1.6939.277-.7244.4155-1.5731.4155-2.5461 0-.973-.1349-1.8182-.4048-2.5355-.2699-.7174-.6605-1.2713-1.1719-1.662-.5113-.3906-1.1328-.5859-1.8643-.5859-.7458 0-1.3743.2024-1.8857.6072-.5113.4049-.8984.966-1.1612 1.6833-.2628.7173-.3942 1.5483-.3942 2.4929 0 .9517.1314 1.7933.3942 2.5248.2699.7245.657 1.2927 1.1612 1.7046.5114.4048 1.1399.6072 1.8857.6072ZM71.9764 65V43.1818h8.7358c1.6051 0 2.9439.2379 4.0163.7138 1.0725.4758 1.8786 1.1364 2.4183 1.9815.5398.8381.8097 1.804.8097 2.8978 0 .8522-.1705 1.6015-.5114 2.2478-.3409.6392-.8096 1.1648-1.4062 1.5767-.5895.4049-1.2642.6925-2.0242.863v.213c.831.0355 1.6087.2699 2.3331.7032.7316.4332 1.3246 1.0404 1.7792 1.8217.4545.7741.6818 1.6974.6818 2.7699 0 1.1576-.2877 2.191-.863 3.1001-.5681.902-1.4098 1.6158-2.5248 2.1413-1.1151.5256-2.4894.7884-4.1229.7884h-9.3217Zm4.6129-3.7713H80.35c1.2855 0 2.223-.245 2.8125-.7351.5895-.4972.8842-1.1577.8842-1.9815 0-.6037-.1456-1.1364-.4368-1.598-.2912-.4617-.7067-.8239-1.2464-1.0867-.5327-.2628-1.1684-.3942-1.907-.3942h-3.8672v5.7955Zm0-8.9169h3.4198c.6321 0 1.1931-.1101 1.6832-.3303.4972-.2272.8878-.5468 1.1719-.9588.2912-.4119.4368-.9055.4368-1.4808 0-.7883-.2806-1.424-.8417-1.907-.5539-.4829-1.3423-.7244-2.365-.7244h-3.505v5.4013Zm22.5293 13.0078c-1.6548 0-3.0859-.3516-4.2933-1.0547-1.2003-.7102-2.1271-1.6974-2.7806-2.9616-.6534-1.2713-.9801-2.7451-.9801-4.4212 0-1.6903.3267-3.1676.9801-4.4318.6535-1.2713 1.5803-2.2585 2.7806-2.9617 1.2074-.7102 2.6385-1.0653 4.2933-1.0653 1.6544 0 3.0824.3551 4.2824 1.0653 1.208.7032 2.138 1.6904 2.791 2.9617.654 1.2642.981 2.7415.981 4.4318 0 1.6761-.327 3.1499-.981 4.4212-.653 1.2642-1.583 2.2514-2.791 2.9616-1.2.7031-2.628 1.0547-4.2824 1.0547Zm.0213-3.5156c.7529 0 1.3811-.2131 1.8861-.6392.504-.4333.884-1.0228 1.139-1.7685.263-.7457.395-1.5945.395-2.5462 0-.9517-.132-1.8004-.395-2.5461-.255-.7458-.635-1.3353-1.139-1.7685-.505-.4332-1.1332-.6498-1.8861-.6498-.7599 0-1.3991.2166-1.9176.6498-.5114.4332-.8984 1.0227-1.1612 1.7685-.2557.7457-.3835 1.5944-.3835 2.5461s.1278 1.8005.3835 2.5462c.2628.7457.6498 1.3352 1.1612 1.7685.5185.4261 1.1577.6392 1.9176.6392ZM110.124 65V48.6364h4.399v2.8551h.171c.298-1.0156.799-1.7827 1.502-2.3012.703-.5255 1.513-.7883 2.429-.7883.227 0 .472.0142.735.0426.263.0284.494.0675.693.1172v4.027c-.214-.0639-.508-.1208-.885-.1705-.376-.0497-.721-.0745-1.033-.0745-.668 0-1.264.1455-1.79.4367-.518.2841-.93.6819-1.236 1.1932-.298.5114-.447 1.1009-.447 1.7685V65h-4.538Zm12.275 0V48.6364h4.4v2.8551h.17c.299-1.0156.799-1.7827 1.502-2.3012.704-.5255 1.513-.7883 2.429-.7883.228 0 .473.0142.735.0426.263.0284.494.0675.693.1172v4.027c-.213-.0639-.508-.1208-.884-.1705-.377-.0497-.721-.0745-1.034-.0745-.667 0-1.264.1455-1.789.4367-.519.2841-.931.6819-1.236 1.1932-.299.5114-.448 1.1009-.448 1.7685V65h-4.538Zm18.907.3196c-1.655 0-3.086-.3516-4.293-1.0547-1.2-.7102-2.127-1.6974-2.781-2.9616-.653-1.2713-.98-2.7451-.98-4.4212 0-1.6903.327-3.1676.98-4.4318.654-1.2713 1.581-2.2585 2.781-2.9617 1.207-.7102 2.638-1.0653 4.293-1.0653 1.655 0 3.082.3551 4.283 1.0653 1.207.7032 2.138 1.6904 2.791 2.9617.653 1.2642.98 2.7415.98 4.4318 0 1.6761-.327 3.1499-.98 4.4212-.653 1.2642-1.584 2.2514-2.791 2.9616-1.201.7031-2.628 1.0547-4.283 1.0547Zm.021-3.5156c.753 0 1.382-.2131 1.886-.6392.504-.4333.884-1.0228 1.14-1.7685.263-.7457.394-1.5945.394-2.5462 0-.9517-.131-1.8004-.394-2.5461-.256-.7458-.636-1.3353-1.14-1.7685-.504-.4332-1.133-.6498-1.886-.6498-.76 0-1.399.2166-1.917.6498-.512.4332-.899 1.0227-1.161 1.7685-.256.7457-.384 1.5944-.384 2.5461s.128 1.8005.384 2.5462c.262.7457.649 1.3352 1.161 1.7685.518.4261 1.157.6392 1.917.6392ZM155.129 65l-4.453-16.3636h4.591l2.536 10.9943h.149l2.642-10.9943h4.506l2.685 10.9304h.139l2.493-10.9304h4.581L170.555 65h-4.805l-2.812-10.2912h-.203L159.923 65h-4.794Zm32.461 0-4.453-16.3636h4.591l2.536 10.9943h.149l2.642-10.9943h4.506l2.685 10.9304h.139l2.492-10.9304h4.581L203.016 65h-4.805l-2.812-10.2912h-.203L192.384 65h-4.794Zm22.289 0V48.6364h4.539V65h-4.539Zm2.28-18.473c-.674 0-1.253-.2237-1.736-.6712-.476-.4545-.714-.9978-.714-1.6299 0-.625.238-1.1613.714-1.6087.483-.4546 1.062-.6818 1.736-.6818.675 0 1.25.2272 1.726.6818.483.4474.725.9837.725 1.6087 0 .6321-.242 1.1754-.725 1.6299-.476.4475-1.051.6712-1.726.6712Zm14.598 2.1094v3.4091h-9.854v-3.4091h9.854Zm-7.617-3.9205h4.538v15.2557c0 .419.064.7457.192.9801.128.2273.305.3871.533.4794.234.0923.504.1385.809.1385.213 0 .426-.0178.64-.0533.213-.0426.376-.0745.49-.0958l.713 3.3771c-.227.071-.546.1527-.958.245-.412.0994-.913.1598-1.503.1811-1.093.0426-2.052-.103-2.876-.4368-.817-.3338-1.452-.8522-1.907-1.5554-.454-.7031-.678-1.5909-.671-2.6633V44.7159Zm15.463 10.8239V65h-4.538V43.1818h4.41v8.3416h.192c.37-.9659.966-1.7223 1.79-2.2691.824-.554 1.857-.831 3.1-.831 1.137 0 2.127.2486 2.972.7457.853.4901 1.513 1.1968 1.982 2.1201.476.9162.71 2.0135.703 3.2919V65h-4.538v-9.6094c.007-1.0085-.249-1.7933-.767-2.3544-.512-.5611-1.229-.8416-2.152-.8416-.618 0-1.165.1314-1.641.3942-.469.2628-.838.6463-1.108 1.1505-.263.4972-.398 1.0973-.405 1.8005ZM97.7124 101.32c-1.5057 0-2.8054-.27-3.8992-.81-1.0937-.5398-1.9354-1.2714-2.5248-2.1947-.5824-.9304-.8736-1.9673-.8736-3.1108 0-.8522.1704-1.6086.5113-2.2691.3409-.6605.8168-1.2678 1.4276-1.8218.6108-.561 1.321-1.1186 2.1307-1.6725l4.2294-2.7806c.5469-.348.9481-.7138 1.2038-1.0973.2554-.3906.3834-.8132.3834-1.2677 0-.4333-.174-.8346-.5219-1.2039-.348-.3693-.8416-.5504-1.4808-.5433-.4261 0-.7955.0959-1.108.2876-.3125.1847-.5575.4297-.735.7351-.1705.2983-.2557.6321-.2557 1.0014 0 .4546.1278.9162.3835 1.385.2557.4687.5966.9659 1.0227 1.4915.4262.5184.8914 1.0795 1.3956 1.6832L109.346 101h-4.73l-8.6295-9.6094a63.6603 63.6603 0 0 1-1.7045-2.0241c-.5611-.7103-1.0299-1.4631-1.4063-2.2585-.3764-.8026-.5646-1.6726-.5646-2.6101 0-1.0583.245-2.01.7351-2.8551.4971-.8452 1.1931-1.5128 2.088-2.0029.8949-.4971 1.939-.7457 3.1321-.7457 1.1648 0 2.1697.2379 3.0147.7138.853.4687 1.506 1.0937 1.96 1.875.462.7741.693 1.6264.693 2.5568 0 1.0298-.256 1.9638-.767 2.8018-.504.831-1.215 1.5767-2.131 2.2372l-4.4529 3.2067c-.6037.4404-1.0511.8913-1.3423 1.353-.2841.4545-.4262.8913-.4262 1.3104 0 .5184.1279.9836.3836 1.3956.2556.4119.6179.7386 1.0866.9801.4688.2343 1.0192.3515 1.6513.3515.767 0 1.5234-.174 2.2689-.522.753-.3551 1.435-.8558 2.046-1.5021.618-.6534 1.111-1.4276 1.481-2.3225.369-.8948.554-1.8856.554-2.9723h3.76c0 1.3353-.145 2.5391-.437 3.6116-.291 1.0653-.696 1.9957-1.214 2.7911-.519.7884-1.112 1.4347-1.779 1.939-.213.1349-.419.2627-.618.3835-.199.1207-.405.2486-.618.3835-.81.6531-1.715 1.1261-2.717 1.4171-.994.291-1.9776.437-2.9506.437Z"/>
  <path fill="#4C2FFC" d="M28.1456 79.1818V101h-3.9844L14.669 87.2678h-.1598V101H9.8963V79.1818h4.0483l9.4176 13.7216h.1918V79.1818h4.5916ZM31.9569 101V79.1818h14.446v3.8033h-9.8331v5.1988h8.8743v3.8033h-8.8743V101h-4.6129Zm16.7178-18.0149v-3.8033h17.9191v3.8033h-6.6797V101h-4.5597V82.9851h-6.6797Zm32.1733 6.3175-4.1548.2556c-.071-.3551-.2237-.6747-.4581-.9588-.2344-.2912-.5433-.522-.9269-.6924-.3764-.1776-.8274-.2664-1.3529-.2664-.7032 0-1.2962.1492-1.7792.4475-.4829.2912-.7244.6818-.7244 1.1718 0 .3907.1563.7209.4688.9908.3125.2699.8487.4865 1.6086.6499l2.9617.5966c1.5909.3267 2.777.8522 3.5582 1.5767.7813.7244 1.1719 1.6761 1.1719 2.8551 0 1.0724-.3161 2.0135-.9482 2.8231-.625.8097-1.4843 1.4419-2.5781 1.8959-1.0866.448-2.3402.672-3.7607.672-2.1661 0-3.892-.451-5.1775-1.3534-1.2784-.9091-2.0277-2.1449-2.2479-3.7074l4.4638-.2343c.1349.6605.4616 1.1647.9801 1.5127.5185.341 1.1825.5114 1.9922.5114.7955 0 1.4347-.1527 1.9176-.4581.4901-.3125.7387-.7138.7458-1.2038-.0071-.412-.1812-.7493-.5221-1.0121-.3409-.2699-.8664-.4759-1.5767-.6179l-2.8338-.5646c-1.598-.3196-2.7876-.8736-3.5689-1.662-.7741-.7883-1.1612-1.7933-1.1612-3.0149 0-1.0511.2841-1.9567.8523-2.7166.5753-.7599 1.3814-1.3459 2.4183-1.7578 1.044-.4119 2.2656-.6179 3.6648-.6179 2.0667 0 3.6932.4368 4.8792 1.3104 1.1932.8735 1.8892 2.0632 2.0881 3.5689Zm44.619 14.4244V76.4545h1.747v27.2725h-1.747Zm4.634-18.2703c-.085-.8594-.451-1.527-1.097-2.0029-.646-.4758-1.523-.7137-2.631-.7137-.753 0-1.389.1065-1.907.3196-.519.2059-.916.4936-1.193.8629-.27.3693-.405.7883-.405 1.2571-.014.3906.067.7315.245 1.0227.184.2912.437.5433.756.7564.32.206.689.3871 1.108.5433.419.1492.867.277 1.342.3836l1.961.4687c.951.2131 1.825.4972 2.62.8523.796.3551 1.485.7919 2.067 1.3103.583.5185 1.034 1.1293 1.353 1.8324.327.7032.494 1.5093.501 2.4184-.007 1.3352-.348 2.4929-1.023 3.473-.667.973-1.633 1.7294-2.898 2.2692-1.257.533-2.773.799-4.549.799-1.761 0-3.295-.27-4.602-.81-1.3-.5395-2.315-1.3385-3.047-2.3967-.724-1.0654-1.104-2.3828-1.14-3.9524h4.464c.05.7315.259 1.3423.629 1.8323.376.483.877.8488 1.502 1.0973.632.2415 1.346.3623 2.141.3623.781 0 1.46-.1137 2.035-.3409.582-.2273 1.033-.5434 1.353-.9482.32-.4048.479-.87.479-1.3956 0-.4901-.145-.902-.436-1.2358-.285-.3338-.704-.6179-1.258-.8523-.546-.2343-1.218-.4474-2.013-.6392l-2.376-.5966c-1.839-.4474-3.292-1.147-4.357-2.0987-1.065-.9517-1.594-2.2336-1.587-3.8459-.007-1.321.344-2.4751 1.054-3.4623.718-.9872 1.701-1.7578 2.951-2.3118 1.25-.554 2.671-.831 4.262-.831 1.619 0 3.032.277 4.24.831 1.214.554 2.159 1.3246 2.834 2.3118.674.9872 1.022 2.1307 1.044 3.4304h-4.422ZM137.924 101V79.1818h14.701v3.8033h-10.088v5.1988h9.332v3.8033h-9.332v5.2095h10.131V101h-14.744Zm32.836-14.7656c-.149-.5185-.359-.9766-.628-1.3743-.27-.4048-.601-.7458-.991-1.0227-.384-.2841-.824-.5008-1.321-.6499-.49-.1491-1.034-.2237-1.63-.2237-1.115 0-2.095.277-2.941.8309-.838.554-1.491 1.3601-1.96 2.4184-.469 1.0511-.703 2.3366-.703 3.8565 0 1.5199.231 2.8125.693 3.8778.461 1.0654 1.115 1.8786 1.96 2.4397.845.554 1.843.8309 2.993.8309 1.044 0 1.936-.1846 2.674-.5539.746-.3765 1.314-.9056 1.705-1.5874.398-.6818.597-1.4879.597-2.4183l.937.1385h-5.625v-3.473h9.13v2.7485c0 1.9177-.405 3.5654-1.214 4.9432-.81 1.3708-1.925 2.429-3.346 3.1744-1.42.739-3.046 1.108-4.879 1.108-2.045 0-3.842-.451-5.391-1.3527-1.548-.9091-2.755-2.1981-3.622-3.8672-.859-1.6761-1.289-3.6647-1.289-5.9659 0-1.7685.256-3.3452.767-4.7301.519-1.392 1.243-2.571 2.174-3.5369.93-.9659 2.013-1.701 3.249-2.2053 1.236-.5042 2.574-.7564 4.016-.7564 1.236 0 2.387.1811 3.452.5433 1.065.3552 2.01.8594 2.834 1.5128.831.6534 1.509 1.4311 2.035 2.3331.525.8949.862 1.8821 1.012 2.9617h-4.688ZM179.115 101V79.1818h4.613v18.0149h9.354V101h-13.967Zm24.756 0h-7.734V79.1818h7.798c2.194 0 4.084.4368 5.667 1.3104 1.584.8665 2.802 2.1129 3.655 3.7393.859 1.6265 1.289 3.5725 1.289 5.8381 0 2.2727-.43 4.2259-1.289 5.8594-.853 1.6335-2.078 2.8871-3.676 3.7606-1.591.8734-3.494 1.3104-5.71 1.3104Zm-3.122-3.9524h2.93c1.364 0 2.511-.2415 3.441-.7244.938-.4901 1.641-1.2465 2.11-2.2692.475-1.0299.713-2.358.713-3.9844 0-1.6122-.238-2.9297-.713-3.9524-.469-1.0227-1.169-1.7756-2.099-2.2585-.931-.483-2.078-.7245-3.441-.7245h-2.941v13.9134Z"/>
  <path fill="#DDD" d="M10.8125 128.254c0-2.642.3516-5.075 1.0547-7.298.7102-2.223 1.7933-4.283 3.2493-6.179h4.3359c-.554.703-1.0689 1.562-1.5447 2.578-.4759 1.009-.8914 2.117-1.2465 3.324-.3551 1.207-.6321 2.457-.8309 3.75-.1989 1.285-.2983 2.56-.2983 3.825 0 1.683.1704 3.384.5113 5.103.348 1.711.8168 3.302 1.4063 4.772.5966 1.47 1.2642 2.674 2.0028 3.612h-4.3359c-1.456-1.897-2.5391-3.956-3.2493-6.179-.7031-2.223-1.0547-4.659-1.0547-7.308Zm24.889-2.951-4.1548.255c-.071-.355-.2237-.674-.4581-.959-.2344-.291-.5433-.522-.9268-.692-.3765-.178-.8275-.266-1.353-.266-.7032 0-1.2962.149-1.7791.447-.483.291-.7245.682-.7245 1.172 0 .391.1563.721.4688.991s.8487.486 1.6086.65l2.9617.596c1.5909.327 2.777.852 3.5582 1.577.7813.724 1.1719 1.676 1.1719 2.855 0 1.072-.3161 2.013-.9482 2.823-.625.81-1.4843 1.442-2.5781 1.896-1.0866.448-2.3402.672-3.7606.672-2.1662 0-3.8921-.451-5.1776-1.353-1.2784-.909-2.0277-2.145-2.2479-3.708l4.4638-.234c.135.66.4617 1.165.9801 1.513.5185.341 1.1826.511 1.9922.511.7955 0 1.4347-.153 1.9176-.458.4901-.313.7387-.714.7458-1.204-.0071-.412-.1811-.749-.522-1.012-.341-.27-.8665-.476-1.5768-.618l-2.8338-.565c-1.598-.319-2.7876-.873-3.5689-1.661-.7741-.789-1.1612-1.794-1.1612-3.015 0-1.052.2841-1.957.8523-2.717.5753-.76 1.3814-1.346 2.4183-1.758 1.0441-.412 2.2656-.618 3.6648-.618 2.0668 0 3.6932.437 4.8793 1.311 1.1931.873 1.8892 2.063 2.088 3.569Zm10.6241 12.017c-1.6548 0-3.0859-.352-4.2933-1.055-1.2003-.71-2.1271-1.698-2.7805-2.962-.6534-1.271-.9801-2.745-.9801-4.421 0-1.69.3267-3.168.9801-4.432.6534-1.271 1.5802-2.258 2.7805-2.961 1.2074-.711 2.6385-1.066 4.2933-1.066 1.6549 0 3.0824.355 4.2827 1.066 1.2074.703 2.1378 1.69 2.7912 2.961.6534 1.264.9801 2.742.9801 4.432 0 1.676-.3267 3.15-.9801 4.421-.6534 1.264-1.5838 2.252-2.7912 2.962-1.2003.703-2.6278 1.055-4.2827 1.055Zm.0213-3.516c.7529 0 1.3814-.213 1.8857-.639.5043-.433.8842-1.023 1.1399-1.769.2628-.745.3942-1.594.3942-2.546 0-.952-.1314-1.8-.3942-2.546-.2557-.746-.6356-1.335-1.1399-1.768-.5043-.434-1.1328-.65-1.8857-.65-.7599 0-1.3991.216-1.9176.65-.5113.433-.8984 1.022-1.1612 1.768-.2557.746-.3835 1.594-.3835 2.546 0 .952.1278 1.801.3835 2.546.2628.746.6499 1.336 1.1612 1.769.5185.426 1.1577.639 1.9176.639Zm18.3772 3.516c-1.6549 0-3.086-.352-4.2933-1.055-1.2003-.71-2.1272-1.698-2.7806-2.962-.6534-1.271-.9801-2.745-.9801-4.421 0-1.69.3267-3.168.9801-4.432.6534-1.271 1.5803-2.258 2.7806-2.961 1.2073-.711 2.6384-1.066 4.2933-1.066 1.6548 0 3.0824.355 4.2826 1.066 1.2074.703 2.1378 1.69 2.7912 2.961.6534 1.264.9802 2.742.9802 4.432 0 1.676-.3268 3.15-.9802 4.421-.6534 1.264-1.5838 2.252-2.7912 2.962-1.2002.703-2.6278 1.055-4.2826 1.055Zm.0213-3.516c.7528 0 1.3814-.213 1.8856-.639.5043-.433.8843-1.023 1.14-1.769.2627-.745.3941-1.594.3941-2.546 0-.952-.1314-1.8-.3941-2.546-.2557-.746-.6357-1.335-1.14-1.768-.5042-.434-1.1328-.65-1.8856-.65-.76 0-1.3992.216-1.9176.65-.5114.433-.8985 1.022-1.1613 1.768-.2556.746-.3835 1.594-.3835 2.546 0 .952.1279 1.801.3835 2.546.2628.746.6499 1.336 1.1613 1.769.5184.426 1.1576.639 1.9176.639Zm15.522-6.264V137H75.729v-16.364h4.3253v2.887h.1918c.3622-.951.9695-1.704 1.8217-2.258.8523-.561 1.8857-.842 3.1002-.842 1.1363 0 2.1271.249 2.9723.746.8451.497 1.5021 1.207 1.9709 2.131.4687.916.7031 2.01.7031 3.281V137h-4.5384v-9.609c.0071-1.002-.2486-1.783-.767-2.344-.5185-.568-1.2323-.852-2.1414-.852-.6108 0-1.1505.131-1.6193.394-.4616.263-.8238.646-1.0866 1.15-.2557.498-.3871 1.098-.3942 1.801Zm21.7726.714c0 2.649-.355 5.085-1.065 7.308-.703 2.223-1.7827 4.282-3.2387 6.179h-4.3359c.554-.703 1.0689-1.563 1.5447-2.578.4759-1.016.8914-2.124 1.2465-3.324.3551-1.208.6321-2.458.8309-3.75.1989-1.293.2983-2.571.2983-3.835 0-1.684-.174-3.381-.522-5.093-.3409-1.719-.8096-3.309-1.4062-4.773-.5895-1.47-1.2536-2.674-1.9922-3.611h4.3359c1.456 1.896 2.5357 3.956 3.2387 6.179.71 2.223 1.065 4.656 1.065 7.298Z"/>
  <defs>
    <clipPath id="a">
      <path fill="#fff" d="M491.705 117.392h70.1524v108.492H491.705z"/>
    </clipPath>
    <clipPath id="j">
      <path fill="#fff" d="M417.327 83.175h61.7003v95.1395H417.327z"/>
    </clipPath>
    <clipPath id="l">
      <path fill="#fff" d="M465.504 49.7927h46.4865v70.9374H465.504z"/>
    </clipPath>
  </defs>
</svg>
