<svg width="100" height="100" viewBox="0 0 100 101" fill="none" xmlns="http://www.w3.org/2000/svg">
<circle cx="50" cy="50.6545" r="49.5" fill="black" stroke="#F1F1F1"/>
<path d="M38.3481 45.867L50.0002 34.2154L61.6584 45.8732L68.4384 39.0932L50.0002 20.6545L31.5681 39.0871L38.3481 45.867Z" fill="#F3BA2F"/>
<path d="M33.5604 50.6534L26.7805 43.8735L20.0003 50.6537L26.7802 57.4336L33.5604 50.6534Z" fill="#F3BA2F"/>
<path d="M38.348 55.442L50.0001 67.0936L61.6579 55.4363L68.4416 62.2125L68.4383 62.2163L50.0001 80.6545L31.5676 62.2224L31.5581 62.2129L38.348 55.442Z" fill="#F3BA2F"/>
<path d="M73.2208 57.4369L80.001 50.6567L73.2211 43.8769L66.4409 50.6571L73.2208 57.4369Z" fill="#F3BA2F"/>
<path d="M56.8774 50.651H56.8802L50.0002 43.771L44.9158 48.8554H44.9154L44.3315 49.4397L43.1264 50.6448L43.1169 50.6543L43.1264 50.6642L50.0002 57.538L56.8802 50.6581L56.8835 50.6543L56.8774 50.651Z" fill="#F3BA2F"/>
</svg>
