<svg width="15" height="16" viewBox="0 0 15 16" fill="none" xmlns="http://www.w3.org/2000/svg">
    <path
        d="M10 13.9999H1.66667V1.16659C1.66667 0.708252 1.29167 0.333252 0.833333 0.333252C0.375 0.333252 0 0.708252 0 1.16659V13.9999C0 14.9166 0.75 15.6666 1.66667 15.6666H10C10.4583 15.6666 10.8333 15.2916 10.8333 14.8333C10.8333 14.3749 10.4583 13.9999 10 13.9999ZM14.1667 10.6666V2.66659C14.1667 1.74992 13.4167 0.999919 12.5 0.999919H5C4.08333 0.999919 3.33333 1.74992 3.33333 2.66659V10.6666C3.33333 11.5833 4.08333 12.3333 5 12.3333H12.5C13.4167 12.3333 14.1667 11.5833 14.1667 10.6666ZM12.5 10.6666H5V2.66659H12.5V10.6666Z"
        fill="#7A7785" />
</svg>