<svg width="100" height="100" viewBox="0 0 100 100" fill="none" xmlns="http://www.w3.org/2000/svg">
<circle cx="50" cy="50" r="49.5" fill="black" stroke="#F1F1F1"/>
<path fill-rule="evenodd" clip-rule="evenodd" d="M62.861 37.0773C62.6932 36.9454 62.6094 36.7295 62.6094 36.5256C62.6094 36.3218 62.6932 36.0939 62.861 35.974C63.2084 35.6741 63.7116 35.6741 64.0591 35.974C64.2268 36.1059 64.3107 36.3218 64.3107 36.5256C64.3107 36.7295 64.2268 36.9574 64.0591 37.0773C63.7595 37.3772 63.1964 37.3772 62.861 37.0773Z" fill="white"/>
<path fill-rule="evenodd" clip-rule="evenodd" d="M60.7167 39.3083C60.5849 39.1404 60.501 38.9605 60.501 38.7566C60.501 38.3249 60.8485 37.9411 61.3157 37.9411C61.5314 37.9411 61.7471 38.0251 61.8669 38.193C61.9987 38.3609 62.0825 38.5408 62.0825 38.7446C62.0825 38.9605 61.9987 39.1764 61.8669 39.2963C61.6991 39.4283 61.5194 39.5122 61.3157 39.5122C61.0641 39.5242 60.8844 39.4402 60.7167 39.3083Z" fill="white"/>
<path fill-rule="evenodd" clip-rule="evenodd" d="M58.368 41.5388C58.0684 41.239 58.0684 40.7232 58.368 40.4234C58.6675 40.1236 59.1827 40.1236 59.5181 40.4234C59.8177 40.7232 59.8177 41.239 59.5181 41.5388C59.3863 41.7067 59.1707 41.7906 58.967 41.7906C58.7034 41.7906 58.5357 41.7067 58.368 41.5388Z" fill="white"/>
<path fill-rule="evenodd" clip-rule="evenodd" d="M56.1399 43.8058C55.8403 43.506 55.7924 43.0383 56.0919 42.6904L56.1399 42.6425C56.4873 42.3426 56.9905 42.3426 57.338 42.6425C57.6375 42.9423 57.6854 43.41 57.3859 43.7578L57.338 43.8058C57.1702 43.9737 56.9546 44.0217 56.7389 44.0217C56.5233 44.0217 56.3076 43.9737 56.1399 43.8058Z" fill="white"/>
<path fill-rule="evenodd" clip-rule="evenodd" d="M53.9947 46.0725C53.827 45.9405 53.7431 45.7247 53.7431 45.5208C53.7431 45.089 54.1265 44.7052 54.5578 44.7532C54.7735 44.7532 54.9412 44.8372 55.073 44.9691C55.2407 45.101 55.2887 45.3169 55.2887 45.5208C55.2887 45.9525 54.9412 46.3363 54.4739 46.3363C54.3422 46.2883 54.1265 46.2044 53.9947 46.0725Z" fill="white"/>
<path fill-rule="evenodd" clip-rule="evenodd" d="M51.3832 47.7514C51.3832 47.5356 51.4671 47.3197 51.6348 47.1998C51.9823 46.8999 52.4855 46.9479 52.785 47.2477C53.0366 47.5476 53.0366 48.0153 52.785 48.3151C52.4855 48.6149 51.9703 48.6149 51.6708 48.3151C51.4791 48.1352 51.3832 47.9553 51.3832 47.7514Z" fill="white"/>
<path fill-rule="evenodd" clip-rule="evenodd" d="M47.2378 52.6688C47.0701 52.5009 46.9862 52.321 47.0222 52.1171C47.0222 51.9012 47.1061 51.6853 47.2378 51.5654C47.5374 51.2656 48.0526 51.2656 48.388 51.5654C48.5198 51.6973 48.6037 51.9132 48.6037 52.1171C48.6037 52.321 48.5198 52.5488 48.3521 52.6688C48.2203 52.8367 48.0046 52.9206 47.801 52.9206C47.5733 52.9326 47.4056 52.8487 47.2378 52.6688Z" fill="white"/>
<path fill-rule="evenodd" clip-rule="evenodd" d="M44.8774 54.9476C44.7097 54.8156 44.6258 54.5998 44.6258 54.3959C44.6258 54.18 44.7097 54.0121 44.8774 53.8442C45.2248 53.5444 45.776 53.5444 46.1234 53.8442C46.2912 53.9761 46.375 54.192 46.375 54.3959C46.375 54.6118 46.2912 54.7797 46.1234 54.9476C45.9557 55.1155 45.74 55.1994 45.5244 55.1994C45.2728 55.1634 45.0571 55.0675 44.8774 54.9476Z" fill="white"/>
<path fill-rule="evenodd" clip-rule="evenodd" d="M42.7447 57.2142C42.4452 56.9143 42.4452 56.3986 42.7447 56.0628C43.0442 55.763 43.5594 55.763 43.8949 56.0628C44.1944 56.3627 44.1944 56.8784 43.8949 57.2142C43.7272 57.3461 43.5474 57.43 43.3438 57.43C43.0802 57.43 42.9125 57.3461 42.7447 57.2142Z" fill="white"/>
<path fill-rule="evenodd" clip-rule="evenodd" d="M40.5164 59.4447C40.3487 59.2768 40.2648 59.0969 40.2648 58.8931C40.2648 58.4613 40.6482 58.0775 41.0795 58.0775C41.2952 58.0775 41.5109 58.1615 41.6307 58.2934C41.7625 58.4613 41.8463 58.6412 41.8463 58.8451C41.8463 59.049 41.7625 59.2768 41.6307 59.3968C41.4629 59.5287 41.2832 59.6126 41.0795 59.6126C40.8639 59.6606 40.6482 59.6126 40.5164 59.4447Z" fill="white"/>
<path fill-rule="evenodd" clip-rule="evenodd" d="M38.1679 61.7115C38.0001 61.5796 37.9163 61.3637 37.9163 61.1599C37.9163 60.944 38.0001 60.7281 38.1679 60.6082C38.5153 60.3083 39.0185 60.3083 39.366 60.6082C39.5337 60.7401 39.6176 60.956 39.6176 61.1599C39.6176 61.3757 39.5337 61.5916 39.366 61.7115C39.0185 62.0114 38.5033 62.0114 38.1679 61.7115Z" fill="white"/>
<path fill-rule="evenodd" clip-rule="evenodd" d="M36.0234 63.9424C35.7239 63.6425 35.7239 63.1268 36.0234 62.791C36.3229 62.4912 36.8381 62.4912 37.1376 62.791C37.4372 63.0909 37.4372 63.6066 37.1376 63.9424C36.8381 64.2422 36.3229 64.2422 36.0234 63.9424Z" fill="white"/>
<path fill-rule="evenodd" clip-rule="evenodd" d="M37.1378 37.0775C37.2696 36.9096 37.3535 36.7297 37.3535 36.5258C37.3535 36.094 37.006 35.7103 36.5388 35.7103C36.3231 35.7103 36.1074 35.7942 35.9876 35.9261C35.8199 36.0581 35.736 36.2739 35.736 36.4778C35.736 36.6937 35.8199 36.9096 35.9876 37.0295C36.3231 37.3773 36.8383 37.3773 37.1378 37.0775Z" fill="white"/>
<path fill-rule="evenodd" clip-rule="evenodd" d="M39.366 39.3082C39.5337 39.1762 39.6176 38.9604 39.6176 38.7565C39.6176 38.5406 39.5337 38.3247 39.366 38.2048C39.0185 37.905 38.5153 37.905 38.1679 38.2048C38.0001 38.3367 37.9163 38.5526 37.9163 38.7565C37.9163 38.9724 38.0001 39.1882 38.1679 39.3082C38.5033 39.608 39.0185 39.608 39.366 39.3082Z" fill="white"/>
<path fill-rule="evenodd" clip-rule="evenodd" d="M41.6308 41.5388C41.9304 41.239 41.9304 40.7232 41.6308 40.4234C41.3313 40.1236 40.8161 40.1236 40.4807 40.4234C40.3489 40.5553 40.265 40.7712 40.2291 40.9751C40.2291 41.191 40.3129 41.4069 40.4447 41.5268C40.5765 41.6947 40.7922 41.7786 40.9958 41.7786C41.2834 41.7906 41.499 41.7067 41.6308 41.5388Z" fill="white"/>
<path fill-rule="evenodd" clip-rule="evenodd" d="M43.8949 43.8056C44.1944 43.5058 44.1944 42.9901 43.8949 42.6543C43.5954 42.3544 43.0802 42.3544 42.7447 42.6543C42.4452 42.9541 42.4452 43.4698 42.7447 43.8056C42.9125 43.9735 43.0922 44.0215 43.2958 44.0215C43.4995 44.0215 43.7272 43.9375 43.8949 43.8056Z" fill="white"/>
<path fill-rule="evenodd" clip-rule="evenodd" d="M46.1234 46.0724C46.2911 45.9405 46.375 45.7246 46.375 45.5207C46.375 45.3168 46.2911 45.089 46.1234 44.969C45.776 44.6212 45.2728 44.6212 44.9253 44.969C44.7576 45.101 44.6737 45.3168 44.6737 45.5207C44.6737 45.7246 44.7576 45.9525 44.9253 46.0724C45.2728 46.3722 45.776 46.3722 46.1234 46.0724Z" fill="white"/>
<path fill-rule="evenodd" clip-rule="evenodd" d="M48.6036 47.7513C48.6036 47.5354 48.5197 47.3195 48.352 47.1996C48.0525 46.8998 47.5373 46.8998 47.2378 47.1996C46.9382 47.4994 46.9382 48.0151 47.2378 48.3509C47.5373 48.6508 48.0525 48.6508 48.3879 48.3509C48.5197 48.1351 48.6036 47.9552 48.6036 47.7513Z" fill="white"/>
<path fill-rule="evenodd" clip-rule="evenodd" d="M50.6162 50.5701C50.9157 50.2702 50.9157 49.7545 50.6162 49.4187C50.3166 49.1189 49.8014 49.1189 49.466 49.4187C49.1665 49.7185 49.1665 50.2343 49.466 50.5701C49.8014 50.8699 50.3166 50.8699 50.6162 50.5701Z" fill="white"/>
<path fill-rule="evenodd" clip-rule="evenodd" d="M52.8447 52.6688C53.0125 52.5368 53.0963 52.321 53.0963 52.1171C53.0963 51.9132 53.0125 51.6853 52.8447 51.5654C52.4973 51.2656 51.9941 51.2656 51.6466 51.5654C51.4789 51.6973 51.395 51.9132 51.395 52.1171C51.395 52.321 51.4789 52.5488 51.6466 52.6688C51.8144 52.8367 52.03 52.9206 52.2457 52.9206C52.4613 52.9206 52.677 52.8487 52.8447 52.6688Z" fill="white"/>
<path fill-rule="evenodd" clip-rule="evenodd" d="M55.1092 54.9476C55.241 54.8156 55.3248 54.5998 55.3248 54.3959C55.3248 54.18 55.241 54.0121 55.1092 53.8442C54.8096 53.5444 54.2945 53.5444 53.959 53.8442C53.7913 54.0121 53.7074 54.192 53.7074 54.3959C53.7074 54.8276 54.0908 55.1634 54.5221 55.1634C54.7737 55.1634 54.9774 55.0675 55.1092 54.9476Z" fill="white"/>
<path fill-rule="evenodd" clip-rule="evenodd" d="M57.3858 57.2142C57.6853 56.9143 57.6853 56.3986 57.3858 56.0628C57.0863 55.763 56.5711 55.763 56.2356 56.0628C55.9361 56.3627 55.9361 56.8784 56.2356 57.2142C56.4034 57.3821 56.5831 57.43 56.7868 57.43C56.9904 57.43 57.2061 57.3461 57.3858 57.2142Z" fill="white"/>
<path fill-rule="evenodd" clip-rule="evenodd" d="M59.4824 59.4445C59.6501 59.2766 59.734 59.0967 59.734 58.8928C59.734 58.677 59.6501 58.4611 59.4824 58.3411C59.1828 58.0413 58.6676 58.0413 58.3681 58.3411C58.2363 58.509 58.1525 58.6889 58.1525 58.8928C58.1525 59.1087 58.2363 59.3246 58.3681 59.4445C58.5359 59.6124 58.7156 59.6604 58.9192 59.6604C59.1349 59.6604 59.3506 59.6124 59.4824 59.4445Z" fill="white"/>
<path fill-rule="evenodd" clip-rule="evenodd" d="M61.8308 61.7115C61.9986 61.5436 62.0824 61.3637 62.0824 61.1119C62.0824 60.896 61.9986 60.6801 61.8308 60.5602C61.5313 60.2604 61.0161 60.2604 60.7166 60.5602C60.5489 60.7281 60.465 60.908 60.5009 61.1119C60.5009 61.3278 60.5848 61.5436 60.7166 61.6636C61.0161 62.0114 61.5313 62.0114 61.8308 61.7115Z" fill="white"/>
<path fill-rule="evenodd" clip-rule="evenodd" d="M64.0948 63.9422C64.3943 63.6423 64.3943 63.1746 64.1427 62.8268C64.1427 62.8268 64.1427 62.8268 64.0948 62.7788C63.7474 62.479 63.2442 62.479 62.8967 62.7788C62.5972 63.0307 62.5493 63.5464 62.8129 63.8462C62.8608 63.8942 62.8608 63.8942 62.8967 63.9302C63.2442 64.278 63.7594 64.278 64.0948 63.9422Z" fill="white"/>
<path fill-rule="evenodd" clip-rule="evenodd" d="M42.4453 37.6772C47.022 34.7268 52.9287 34.7268 57.5054 37.6772L62.3457 32.8799C55.1092 27.1352 44.8774 27.1352 37.605 32.8799L42.4453 37.6772Z" fill="white"/>
<path fill-rule="evenodd" clip-rule="evenodd" d="M37.605 57.4659C34.5618 52.8845 34.5618 46.9719 37.605 42.3905L32.8126 37.5932C27.1576 44.8371 27.1576 55.0313 32.8126 62.2751L37.605 57.4659Z" fill="white"/>
<path fill-rule="evenodd" clip-rule="evenodd" d="M57.5533 62.275C55.3249 63.8221 52.713 64.6256 50.0173 64.6256C47.3216 64.6736 44.6258 63.8581 42.3974 62.3109L37.605 67.1082C41.1154 69.9386 45.5244 71.4377 50.0173 71.3898C54.4742 71.3898 58.7874 69.8426 62.2978 67.0602L57.5533 62.275Z" fill="white"/>
<path fill-rule="evenodd" clip-rule="evenodd" d="M62.2619 42.3903C63.8075 44.657 64.5742 47.3194 64.5263 50.0539C64.4784 52.7044 63.7116 55.2829 62.2619 57.4657L67.1022 62.2629C69.8818 58.7969 71.3794 54.4674 71.4274 50.0059C71.4753 45.5085 69.9777 41.095 67.1501 37.581L62.2619 42.3903Z" fill="white"/>
<path fill-rule="evenodd" clip-rule="evenodd" d="M67.2702 63.7263C69.1512 63.7263 70.6488 65.2255 70.6488 67.1084C70.6488 68.9913 69.1512 70.4905 67.2702 70.4905C65.3892 70.4905 63.8915 68.9913 63.8915 67.1084C63.9275 65.2255 65.4251 63.7263 67.2702 63.7263Z" fill="white"/>
<path fill-rule="evenodd" clip-rule="evenodd" d="M32.7645 63.7263C34.6096 63.8103 36.0593 65.3574 36.0114 67.2403C35.9635 68.9913 34.5138 70.4065 32.7645 70.4905C30.9195 70.4065 29.4698 68.8594 29.5177 66.9765C29.6016 65.2255 31.0153 63.8103 32.7645 63.7263Z" fill="white"/>
<path fill-rule="evenodd" clip-rule="evenodd" d="M67.3537 29.234C69.1988 29.234 70.6964 30.7811 70.6964 32.6161C70.6964 34.451 69.1988 35.9262 67.3537 35.9262C65.5086 35.9262 64.011 34.427 64.011 32.6281C64.011 30.7811 65.4727 29.282 67.3537 29.234Z" fill="white"/>
<path fill-rule="evenodd" clip-rule="evenodd" d="M32.7286 29.234C34.5737 29.234 36.0713 30.6852 36.1073 32.5321C36.1073 34.3791 34.5617 35.8782 32.7286 35.8782C30.8835 35.8782 29.3859 34.427 29.35 32.5321C29.35 30.7332 30.8835 29.234 32.7286 29.234Z" fill="white"/>
</svg>
