<svg width="15" height="18" viewBox="0 0 15 18" fill="none" xmlns="http://www.w3.org/2000/svg">
<g clip-path="url(#clip0_203_3780)">
<path d="M13.75 2.33325H1.25C0.918525 2.3334 0.600668 2.46514 0.366279 2.69953C0.131891 2.93392 0.000147224 3.25178 0 3.58325V11.0833C0.000147224 11.4147 0.131891 11.7326 0.366279 11.967C0.600668 12.2014 0.918525 12.3331 1.25 12.3333H13.75C14.0815 12.3331 14.3993 12.2014 14.6337 11.967C14.8681 11.7326 14.9999 11.4147 15 11.0833V3.58325C14.9999 3.25178 14.8681 2.93392 14.6337 2.69953C14.3993 2.46514 14.0815 2.3334 13.75 2.33325ZM12.5 15.0416C12.5002 14.9594 12.4842 14.8781 12.4529 14.8021C12.4215 14.7262 12.3755 14.6572 12.3174 14.5992C12.2594 14.5411 12.1904 14.495 12.1144 14.4637C12.0385 14.4324 11.9571 14.4164 11.875 14.4166H9.30722L8.82278 12.9633C8.80215 12.9009 8.76235 12.8468 8.70907 12.8084C8.65578 12.7701 8.59174 12.7496 8.52611 12.7499H6.47667C6.41104 12.7496 6.347 12.7701 6.29371 12.8084C6.24043 12.8468 6.20063 12.9009 6.18 12.9633L5.69556 14.4166H3.125C2.95924 14.4166 2.80027 14.4824 2.68306 14.5996C2.56585 14.7169 2.5 14.8758 2.5 15.0416C2.5 15.2073 2.56585 15.3663 2.68306 15.4835C2.80027 15.6007 2.95924 15.6666 3.125 15.6666H11.875C11.9571 15.6668 12.0385 15.6508 12.1144 15.6195C12.1904 15.5881 12.2594 15.5421 12.3174 15.484C12.3755 15.4259 12.4215 15.3569 12.4529 15.281C12.4842 15.2051 12.5002 15.1237 12.5 15.0416V15.0416Z" fill="#1F2021"/>
<path fill-rule="evenodd" clip-rule="evenodd" d="M9.16713 5.65724C9.15665 5.64851 9.14826 5.63754 9.14259 5.62513C9.13691 5.61273 9.1341 5.59921 9.13435 5.58557C9.13393 5.57191 9.13668 5.55834 9.14236 5.54591C9.14805 5.53348 9.15652 5.52253 9.16713 5.51391C9.18868 5.49511 9.21631 5.48475 9.2449 5.48475C9.2735 5.48475 9.30113 5.49511 9.32268 5.51391C9.33316 5.52264 9.34155 5.53361 9.34722 5.54601C9.35289 5.55842 9.35571 5.57193 9.35546 5.58557C9.35587 5.59923 9.35313 5.61281 9.34745 5.62524C9.34176 5.63767 9.33329 5.64862 9.32268 5.65724C9.30118 5.67615 9.27353 5.68657 9.2449 5.68657C9.21627 5.68657 9.18862 5.67615 9.16713 5.65724ZM8.88879 5.94613C8.87159 5.92613 8.86178 5.90083 8.86102 5.87446C8.86102 5.8606 8.86375 5.84687 8.86905 5.83407C8.87435 5.82126 8.88213 5.80962 8.89193 5.79982C8.90173 5.79002 8.91337 5.78225 8.92618 5.77694C8.93898 5.77164 8.95271 5.76891 8.96657 5.76891C8.98025 5.76836 8.99387 5.77104 9.00632 5.77674C9.01877 5.78243 9.0297 5.79098 9.03824 5.80168C9.05548 5.82166 9.06529 5.84697 9.06602 5.87335C9.06637 5.88654 9.0641 5.89967 9.05933 5.91198C9.05456 5.92428 9.04739 5.93551 9.03824 5.94502C9.01826 5.96226 8.99295 5.97207 8.96657 5.97279C8.93819 5.97418 8.91036 5.96464 8.88879 5.94613ZM8.58435 6.23502C8.56561 6.21564 8.55514 6.18975 8.55514 6.16279C8.55514 6.13584 8.56561 6.10995 8.58435 6.09057C8.60477 6.07215 8.63129 6.06195 8.65879 6.06195C8.6863 6.06195 8.71282 6.07215 8.73324 6.09057C8.75197 6.10995 8.76245 6.13584 8.76245 6.16279C8.76245 6.18975 8.75197 6.21564 8.73324 6.23502C8.72451 6.2455 8.71353 6.25388 8.70113 6.25955C8.68873 6.26523 8.67521 6.26804 8.66157 6.26779C8.647 6.26837 8.63247 6.26573 8.61903 6.26007C8.60559 6.2544 8.59356 6.24585 8.58379 6.23502H8.58435ZM8.29546 6.52835C8.27588 6.50978 8.2643 6.48432 8.26316 6.45737C8.26202 6.43041 8.27141 6.40406 8.28935 6.38391L8.29546 6.37779C8.31696 6.35889 8.34461 6.34846 8.37324 6.34846C8.40187 6.34846 8.42952 6.35889 8.45101 6.37779C8.47059 6.39636 8.48218 6.42182 8.48332 6.44878C8.48446 6.47574 8.47506 6.50208 8.45713 6.52224L8.45101 6.52835C8.42917 6.54651 8.40165 6.55646 8.37324 6.55646C8.34482 6.55646 8.31731 6.54651 8.29546 6.52835ZM8.01768 6.82224C8.0072 6.81351 7.99882 6.80254 7.99314 6.79013C7.98747 6.77773 7.98465 6.76421 7.9849 6.75057C7.98488 6.73698 7.98764 6.72353 7.99301 6.71105C7.99839 6.69857 8.00627 6.68732 8.01616 6.678C8.02605 6.66868 8.03774 6.66149 8.05052 6.65687C8.0633 6.65225 8.0769 6.65029 8.09046 6.65113C8.10288 6.65097 8.1152 6.65335 8.12666 6.65813C8.13813 6.66291 8.14849 6.66998 8.15713 6.67891C8.16692 6.68794 8.17452 6.69909 8.17934 6.71151C8.18415 6.72394 8.18606 6.7373 8.1849 6.75057C8.1849 6.77857 8.17378 6.80542 8.15399 6.82521C8.13419 6.84501 8.10734 6.85613 8.07935 6.85613C8.05649 6.84898 8.03532 6.83726 8.01713 6.82168L8.01768 6.82224ZM7.67935 7.03946C7.6788 7.02578 7.68149 7.01217 7.68718 6.99972C7.69288 6.98726 7.70142 6.97633 7.71213 6.96779C7.73165 6.94983 7.75731 6.94002 7.78384 6.94038C7.81037 6.94073 7.83576 6.95122 7.8548 6.96969C7.87384 6.98816 7.88509 7.01322 7.88625 7.03973C7.8874 7.06623 7.87838 7.09218 7.86102 7.11224C7.84164 7.13098 7.81575 7.14145 7.78879 7.14145C7.76184 7.14145 7.73594 7.13098 7.71657 7.11224C7.70554 7.10346 7.69651 7.09243 7.69009 7.07988C7.68367 7.06732 7.68001 7.05354 7.67935 7.03946ZM7.14213 7.67613C7.13181 7.66751 7.12385 7.65641 7.11899 7.64388C7.11414 7.63134 7.11254 7.61778 7.11435 7.60446C7.11399 7.59127 7.11626 7.57814 7.12103 7.56584C7.1258 7.55353 7.13297 7.5423 7.14213 7.53279C7.16254 7.51437 7.18907 7.50417 7.21657 7.50417C7.24407 7.50417 7.2706 7.51437 7.29102 7.53279C7.309 7.55231 7.31892 7.57792 7.31879 7.60446C7.31916 7.61812 7.3164 7.63168 7.31072 7.6441C7.30504 7.65652 7.29659 7.66748 7.28602 7.67613C7.27726 7.68658 7.26628 7.69494 7.25388 7.70061C7.24149 7.70628 7.22798 7.70912 7.21435 7.70891C7.20048 7.70963 7.18665 7.70703 7.17399 7.70133C7.16133 7.69563 7.15022 7.68699 7.14157 7.67613H7.14213ZM6.83324 7.97168C6.82279 7.96293 6.81442 7.95195 6.80875 7.93955C6.80308 7.92715 6.80025 7.91365 6.80046 7.90002C6.80055 7.88643 6.80352 7.87302 6.80917 7.86067C6.81482 7.84832 6.82302 7.8373 6.83324 7.82835C6.85596 7.80951 6.88455 7.7992 6.91407 7.7992C6.94359 7.7992 6.97218 7.80951 6.9949 7.82835C7.00535 7.83711 7.01372 7.84808 7.01939 7.86048C7.02506 7.87288 7.02789 7.88639 7.02768 7.90002C7.02759 7.9136 7.02463 7.92701 7.01898 7.93936C7.01333 7.95172 7.00512 7.96273 6.9949 7.97168C6.9743 7.99241 6.94635 8.00419 6.91713 8.00446C6.88706 7.99998 6.85838 7.98878 6.83324 7.97168ZM6.55935 8.26224C6.54453 8.2475 6.53442 8.22869 6.53031 8.2082C6.52619 8.18771 6.52825 8.16646 6.53622 8.14714C6.54419 8.12782 6.55772 8.1113 6.57509 8.09968C6.59246 8.08805 6.61289 8.08185 6.63379 8.08185C6.65469 8.08185 6.67512 8.08805 6.69249 8.09968C6.70986 8.1113 6.72339 8.12782 6.73137 8.14714C6.73934 8.16646 6.7414 8.18771 6.73728 8.2082C6.73316 8.22869 6.72305 8.2475 6.70824 8.26224C6.68782 8.28067 6.6613 8.29087 6.63379 8.29087C6.60629 8.29087 6.57977 8.28067 6.55935 8.26224ZM6.27046 8.55391C6.26035 8.54487 6.25222 8.53383 6.24658 8.5215C6.24094 8.50917 6.23791 8.4958 6.23768 8.48224C6.23903 8.45468 6.25058 8.42861 6.27009 8.40909C6.2896 8.38958 6.31568 8.37803 6.34324 8.37668C6.35643 8.37633 6.36956 8.3786 6.38186 8.38337C6.39417 8.38814 6.4054 8.39531 6.4149 8.40446C6.43215 8.42443 6.44196 8.44975 6.44268 8.47613C6.4431 8.50272 6.43313 8.52843 6.4149 8.54779C6.39491 8.565 6.36961 8.57481 6.34324 8.57557C6.33031 8.57935 6.31656 8.57931 6.30366 8.57546C6.29075 8.57162 6.27922 8.56414 6.27046 8.55391ZM5.96657 8.84557C5.95609 8.83684 5.94771 8.82587 5.94203 8.81347C5.93636 8.80106 5.93354 8.78754 5.93379 8.77391C5.93325 8.76023 5.93593 8.74661 5.94163 8.73416C5.94732 8.72171 5.95587 8.71077 5.96657 8.70224C5.98807 8.68333 6.01572 8.6729 6.04435 8.6729C6.07298 8.6729 6.10063 8.68333 6.12213 8.70224C6.13261 8.71097 6.14099 8.72194 6.14666 8.73435C6.15234 8.74675 6.15515 8.76027 6.1549 8.77391C6.15545 8.78759 6.15276 8.8012 6.14707 8.81365C6.14138 8.8261 6.13283 8.83704 6.12213 8.84557C6.10057 8.86437 6.07295 8.87472 6.04435 8.87472C6.01575 8.87472 5.98812 8.86437 5.96657 8.84557ZM5.68768 9.13613C5.66926 9.11571 5.65906 9.08919 5.65906 9.06168C5.65906 9.03418 5.66926 9.00766 5.68768 8.98724C5.70712 8.96863 5.73299 8.95824 5.7599 8.95824C5.78681 8.95824 5.81269 8.96863 5.83213 8.98724C5.85055 9.00766 5.86075 9.03418 5.86075 9.06168C5.86075 9.08919 5.85055 9.11571 5.83213 9.13613C5.81269 9.15474 5.78681 9.16512 5.7599 9.16512C5.73299 9.16512 5.70712 9.15474 5.68768 9.13613ZM5.83268 5.65724C5.84993 5.63727 5.85974 5.61195 5.86046 5.58557C5.86046 5.55758 5.84934 5.53073 5.82954 5.51093C5.80975 5.49114 5.7829 5.48002 5.7549 5.48002C5.74171 5.47966 5.72858 5.48193 5.71628 5.4867C5.70397 5.49147 5.69274 5.49864 5.68324 5.50779C5.67276 5.51653 5.66437 5.5275 5.6587 5.5399C5.65303 5.5523 5.65021 5.56582 5.65046 5.57946C5.64992 5.59314 5.6526 5.60676 5.65829 5.61921C5.66399 5.63166 5.67253 5.64259 5.68324 5.65113C5.69254 5.66141 5.70381 5.66974 5.71637 5.67563C5.72893 5.68151 5.74254 5.68484 5.7564 5.68541C5.77026 5.68598 5.7841 5.68378 5.7971 5.67894C5.8101 5.67411 5.82201 5.66673 5.83213 5.65724H5.83268ZM6.12157 5.94557C6.13205 5.93684 6.14044 5.92587 6.14611 5.91347C6.15178 5.90106 6.1546 5.88754 6.15435 5.87391C6.15489 5.86023 6.15221 5.84661 6.14652 5.83416C6.14082 5.82171 6.13228 5.81077 6.12157 5.80224C6.10002 5.78344 6.07239 5.77309 6.04379 5.77309C6.0152 5.77309 5.98757 5.78344 5.96602 5.80224C5.95554 5.81097 5.94715 5.82194 5.94148 5.83435C5.9358 5.84675 5.93299 5.86027 5.93324 5.87391C5.93269 5.88759 5.93538 5.9012 5.94107 5.91365C5.94677 5.9261 5.95531 5.93704 5.96602 5.94557C5.98751 5.96448 6.01516 5.97491 6.04379 5.97491C6.07242 5.97491 6.10007 5.96448 6.12157 5.94557ZM6.4149 6.23502C6.43364 6.21564 6.44411 6.18975 6.44411 6.16279C6.44411 6.13584 6.43364 6.10995 6.4149 6.09057C6.39449 6.07215 6.36796 6.06195 6.34046 6.06195C6.31296 6.06195 6.28643 6.07215 6.26602 6.09057C6.24837 6.11078 6.23698 6.13568 6.23324 6.16224C6.23288 6.17543 6.23515 6.18856 6.23992 6.20086C6.24469 6.21317 6.25186 6.2244 6.26102 6.23391C6.26975 6.24439 6.28072 6.25277 6.29312 6.25844C6.30553 6.26412 6.31904 6.26693 6.33268 6.26668C6.34789 6.2686 6.36333 6.26677 6.37766 6.26135C6.39199 6.25592 6.40478 6.24707 6.4149 6.23557V6.23502ZM6.70657 6.52835C6.72139 6.51361 6.7315 6.4948 6.73561 6.47431C6.73973 6.45382 6.73767 6.43257 6.7297 6.41325C6.72173 6.39393 6.7082 6.37741 6.69083 6.36579C6.67346 6.35417 6.65303 6.34796 6.63213 6.34796C6.61123 6.34796 6.5908 6.35417 6.57343 6.36579C6.55606 6.37741 6.54253 6.39393 6.53455 6.41325C6.52658 6.43257 6.52452 6.45382 6.52864 6.47431C6.53276 6.4948 6.54286 6.51361 6.55768 6.52835C6.56697 6.5378 6.57817 6.54517 6.59052 6.54996C6.60288 6.55475 6.61612 6.55685 6.62935 6.55613C6.65758 6.55545 6.68485 6.54571 6.70713 6.52835H6.70657ZM6.99713 6.82168C7.00761 6.81295 7.01599 6.80198 7.02166 6.78958C7.02734 6.77717 7.03015 6.76365 7.0299 6.75002C7.03028 6.73636 7.02752 6.7228 7.02183 6.71038C7.01615 6.69796 7.0077 6.687 6.99713 6.67835C6.98719 6.66765 6.97516 6.65911 6.96178 6.65327C6.94839 6.64743 6.93395 6.64442 6.91935 6.64442C6.90475 6.64442 6.8903 6.64743 6.87692 6.65327C6.86354 6.65911 6.8515 6.66765 6.84157 6.67835C6.83112 6.68711 6.82276 6.69808 6.81709 6.71048C6.81142 6.72288 6.80858 6.73639 6.80879 6.75002C6.80842 6.76367 6.81118 6.77723 6.81686 6.78965C6.82255 6.80208 6.831 6.81303 6.84157 6.82168C6.86312 6.84048 6.89075 6.85083 6.91935 6.85083C6.94795 6.85083 6.97557 6.84048 6.99713 6.82168ZM7.31879 7.03946C7.31934 7.02578 7.31665 7.01217 7.31096 6.99972C7.30527 6.98726 7.29672 6.97633 7.28602 6.96779C7.26664 6.94906 7.24074 6.93858 7.21379 6.93858C7.18684 6.93858 7.16094 6.94906 7.14157 6.96779C7.12314 6.98821 7.11294 7.01474 7.11294 7.04224C7.11294 7.06974 7.12314 7.09627 7.14157 7.11668C7.16199 7.13511 7.18851 7.14531 7.21602 7.14531C7.24352 7.14531 7.27004 7.13511 7.29046 7.11668C7.307 7.09413 7.31682 7.06736 7.31879 7.03946ZM7.5799 7.40446C7.59472 7.38972 7.60483 7.37091 7.60895 7.35042C7.61306 7.32993 7.61101 7.30868 7.60303 7.28936C7.59506 7.27004 7.58153 7.25352 7.56416 7.2419C7.54679 7.23028 7.52636 7.22407 7.50546 7.22407C7.48456 7.22407 7.46413 7.23028 7.44676 7.2419C7.42939 7.25352 7.41586 7.27004 7.40789 7.28936C7.39991 7.30868 7.39786 7.32993 7.40197 7.35042C7.40609 7.37091 7.4162 7.38972 7.43102 7.40446C7.45143 7.42289 7.47796 7.43309 7.50546 7.43309C7.53296 7.43309 7.55949 7.42289 7.5799 7.40446ZM7.87046 7.67613C7.88094 7.6674 7.88932 7.65643 7.895 7.64402C7.90067 7.63162 7.90349 7.6181 7.90324 7.60446C7.90365 7.5908 7.90091 7.57723 7.89522 7.5648C7.88954 7.55237 7.88107 7.54142 7.87046 7.53279C7.84891 7.514 7.82128 7.50364 7.79268 7.50364C7.76409 7.50364 7.73646 7.514 7.7149 7.53279C7.70442 7.54153 7.69604 7.5525 7.69037 7.5649C7.68469 7.5773 7.68188 7.59082 7.68213 7.60446C7.68175 7.61812 7.68452 7.63168 7.6902 7.6441C7.69588 7.65652 7.70433 7.66748 7.7149 7.67613C7.73551 7.69686 7.76345 7.70864 7.79268 7.70891C7.80722 7.70922 7.82167 7.70647 7.83507 7.70082C7.84847 7.69517 7.86053 7.68676 7.87046 7.67613ZM8.16213 7.97168C8.18011 7.95216 8.19004 7.92656 8.1899 7.90002C8.18947 7.87358 8.17962 7.84817 8.16213 7.82835C8.14171 7.80992 8.11518 7.79972 8.08768 7.79972C8.06018 7.79972 8.03365 7.80992 8.01324 7.82835C8.00313 7.83739 7.995 7.84842 7.98936 7.86076C7.98371 7.87309 7.98069 7.88646 7.98046 7.90002C7.98147 7.92713 7.99311 7.95276 8.01286 7.97137C8.03261 7.98997 8.05889 8.00006 8.08602 7.99946C8.11398 8.00011 8.14116 7.99019 8.16213 7.97168ZM8.45768 8.26224C8.47513 8.24206 8.4843 8.21603 8.48334 8.18937C8.48237 8.16271 8.47135 8.13741 8.45249 8.11854C8.43363 8.09968 8.40832 8.08866 8.38166 8.08769C8.355 8.08673 8.32897 8.0959 8.30879 8.11335C8.29037 8.13377 8.28017 8.16029 8.28017 8.18779C8.28017 8.2153 8.29037 8.24182 8.30879 8.26224C8.31808 8.27169 8.32928 8.27906 8.34163 8.28385C8.35399 8.28864 8.36723 8.29074 8.38046 8.29002C8.40864 8.28904 8.43581 8.27933 8.45824 8.26224H8.45768ZM8.72879 8.55391C8.73888 8.54484 8.74699 8.53381 8.75263 8.52148C8.75827 8.50915 8.76131 8.49579 8.76157 8.48224C8.76212 8.46856 8.75943 8.45494 8.75374 8.44249C8.74804 8.43004 8.7395 8.41911 8.72879 8.41057C8.70942 8.39184 8.68352 8.38136 8.65657 8.38136C8.62962 8.38136 8.60372 8.39184 8.58435 8.41057C8.5671 8.43054 8.55729 8.45586 8.55657 8.48224C8.55625 8.49543 8.55853 8.50855 8.5633 8.52085C8.56807 8.53315 8.57522 8.54438 8.58435 8.55391C8.59364 8.56336 8.60483 8.57072 8.61719 8.57551C8.62955 8.5803 8.64278 8.58241 8.65602 8.58168C8.66946 8.58288 8.683 8.581 8.69561 8.57619C8.70822 8.57138 8.71957 8.56376 8.72879 8.55391ZM9.03379 8.84724C9.04451 8.83738 9.05298 8.82533 9.05863 8.81191C9.06429 8.79849 9.067 8.78402 9.06657 8.76946C9.06711 8.75578 9.06443 8.74217 9.05874 8.72971C9.05304 8.71726 9.0445 8.70633 9.03379 8.69779C9.01442 8.67906 8.98852 8.66858 8.96157 8.66858C8.93462 8.66858 8.90872 8.67906 8.88935 8.69779C8.87903 8.70641 8.87107 8.71751 8.86622 8.73004C8.86136 8.74258 8.85976 8.75614 8.86157 8.76946C8.86142 8.78947 8.86709 8.8091 8.87788 8.82595C8.88868 8.8428 8.90413 8.85616 8.92237 8.8644C8.94061 8.87263 8.96085 8.8754 8.98063 8.87235C9.00041 8.86931 9.01888 8.86058 9.03379 8.84724ZM9.32713 9.13557C9.34521 9.11618 9.35577 9.09097 9.35689 9.06448C9.35801 9.03799 9.34962 9.01197 9.33324 8.99113L9.32713 8.98502C9.30557 8.96622 9.27795 8.95587 9.24935 8.95587C9.22075 8.95587 9.19312 8.96622 9.17157 8.98502C9.15242 9.0023 9.1406 9.02626 9.13854 9.05198C9.13647 9.07769 9.14431 9.10323 9.16046 9.12335L9.17157 9.13446C9.18159 9.14502 9.19365 9.15343 9.20702 9.15917C9.22039 9.16492 9.2348 9.16788 9.24935 9.16788C9.2639 9.16788 9.2783 9.16492 9.29167 9.15917C9.30505 9.15343 9.31711 9.14502 9.32713 9.13446" fill="white"/>
<path fill-rule="evenodd" clip-rule="evenodd" d="M6.52043 5.735C6.81163 5.54795 7.15045 5.44851 7.49655 5.44851C7.84264 5.44851 8.18146 5.54795 8.47266 5.735L9.09988 5.11389C8.64348 4.75253 8.0784 4.55591 7.49627 4.55591C6.91413 4.55591 6.34906 4.75253 5.89266 5.11389L6.52043 5.735ZM5.89321 8.29722C5.70033 8.00823 5.59739 7.66856 5.59739 7.32111C5.59739 6.97366 5.70033 6.634 5.89321 6.345L5.2721 5.72389C4.91588 6.18042 4.72241 6.74288 4.72241 7.32195C4.72241 7.90101 4.91588 8.46347 5.2721 8.92L5.89321 8.29722ZM8.47932 8.92C8.19 9.11744 7.84805 9.22342 7.49778 9.22422C7.14752 9.22501 6.80509 9.12057 6.51488 8.92445L5.89377 9.54556C6.35019 9.91186 6.91969 10.1082 7.50488 10.1011C8.08346 10.099 8.64436 9.9015 9.09655 9.54056L8.47932 8.92ZM9.08932 6.345C9.28792 6.63718 9.39046 6.98402 9.38266 7.33722C9.37847 7.67866 9.27669 8.01176 9.08932 8.29722L9.71654 8.91833C10.0758 8.46691 10.2732 7.90802 10.2771 7.33111C10.2842 6.74592 10.0878 6.17643 9.72155 5.72L9.08932 6.345ZM9.73821 9.10834C9.8248 9.10834 9.90944 9.13401 9.98143 9.18211C10.0534 9.23022 10.1095 9.29859 10.1427 9.37858C10.1758 9.45858 10.1845 9.5466 10.1676 9.63152C10.1507 9.71644 10.109 9.79444 10.0478 9.85567C9.98654 9.91689 9.90854 9.95859 9.82362 9.97548C9.7387 9.99237 9.65067 9.9837 9.57068 9.95057C9.49069 9.91743 9.42232 9.86132 9.37421 9.78933C9.32611 9.71734 9.30043 9.6327 9.30043 9.54611C9.30215 9.43054 9.34883 9.32019 9.43056 9.23846C9.51229 9.15673 9.62264 9.11006 9.73821 9.10834ZM5.26599 9.10834C5.35406 9.10494 5.44111 9.12817 5.51577 9.17499C5.59044 9.22182 5.64925 9.29006 5.68454 9.37082C5.71984 9.45158 5.72996 9.54111 5.7136 9.62771C5.69724 9.71431 5.65515 9.79397 5.59283 9.85629C5.53051 9.91861 5.45086 9.9607 5.36425 9.97706C5.27765 9.99342 5.18813 9.98329 5.10737 9.948C5.02661 9.91271 4.95836 9.85389 4.91154 9.77923C4.86471 9.70456 4.84148 9.61751 4.84488 9.52945C4.85051 9.41958 4.89668 9.31571 4.97447 9.23793C5.05226 9.16014 5.15613 9.11397 5.26599 9.10834ZM9.74932 4.64167C9.86461 4.64298 9.97474 4.68967 10.0558 4.77161C10.137 4.85355 10.1825 4.96415 10.1827 5.07945C10.1827 5.19437 10.137 5.30459 10.0557 5.38586C9.97447 5.46713 9.86425 5.51278 9.74932 5.51278C9.6344 5.51278 9.52418 5.46713 9.44291 5.38586C9.36164 5.30459 9.31599 5.19437 9.31599 5.07945C9.31612 4.96399 9.36163 4.85322 9.44269 4.77101C9.52375 4.6888 9.63388 4.64175 9.74932 4.64V4.64167ZM5.26099 4.64167C5.3755 4.64092 5.48569 4.68536 5.56765 4.76534C5.64961 4.84532 5.69672 4.95439 5.69877 5.06889C5.69745 5.18418 5.65077 5.29431 5.56883 5.37542C5.48688 5.45653 5.37629 5.50209 5.26099 5.50222C5.14687 5.50222 5.03743 5.45689 4.95674 5.3762C4.87605 5.29551 4.83071 5.18606 4.83071 5.07195C4.83071 4.95783 4.87605 4.84839 4.95674 4.76769C5.03743 4.687 5.14687 4.64167 5.26099 4.64167Z" fill="white"/>
</g>
<defs>
<clipPath id="clip0_203_3780">
<rect width="15" height="18" fill="white"/>
</clipPath>
</defs>
</svg>
