<svg width="144" height="43" viewBox="0 0 144 43" fill="none" xmlns="http://www.w3.org/2000/svg">
<path fill-rule="evenodd" clip-rule="evenodd" d="M34.4715 8.63132C34.3043 8.49982 34.2207 8.28464 34.2207 8.08142C34.2207 7.8782 34.3043 7.65106 34.4715 7.53152C34.8178 7.23266 35.3194 7.23266 35.6657 7.53152C35.8329 7.66302 35.9165 7.8782 35.9165 8.08142C35.9165 8.28464 35.8329 8.51178 35.6657 8.63132C35.3672 8.93018 34.8059 8.93018 34.4715 8.63132Z" fill="black"/>
<path fill-rule="evenodd" clip-rule="evenodd" d="M32.3339 10.8547C32.2025 10.6874 32.1189 10.5081 32.1189 10.3048C32.1189 9.87448 32.4652 9.49194 32.931 9.49194C33.1459 9.49194 33.3609 9.57562 33.4803 9.74299C33.6117 9.91035 33.6953 10.0897 33.6953 10.2929C33.6953 10.5081 33.6117 10.7232 33.4803 10.8428C33.3131 10.9743 33.134 11.058 32.931 11.058C32.6802 11.0699 32.5011 10.9862 32.3339 10.8547Z" fill="black"/>
<path fill-rule="evenodd" clip-rule="evenodd" d="M29.9932 13.0783C29.6946 12.7795 29.6946 12.2654 29.9932 11.9666C30.2918 11.6677 30.8053 11.6677 31.1397 11.9666C31.4382 12.2654 31.4382 12.7795 31.1397 13.0783C31.0083 13.2457 30.7933 13.3294 30.5903 13.3294C30.3276 13.3294 30.1604 13.2457 29.9932 13.0783Z" fill="black"/>
<path fill-rule="evenodd" clip-rule="evenodd" d="M27.7719 15.3376C27.4734 15.0387 27.4256 14.5725 27.7242 14.2258L27.7719 14.178C28.1183 13.8791 28.6198 13.8791 28.9662 14.178C29.2647 14.4769 29.3125 14.9431 29.0139 15.2898L28.9662 15.3376C28.799 15.5049 28.584 15.5528 28.3691 15.5528C28.1541 15.5528 27.9391 15.5049 27.7719 15.3376Z" fill="black"/>
<path fill-rule="evenodd" clip-rule="evenodd" d="M25.6343 17.5971C25.4671 17.4656 25.3835 17.2504 25.3835 17.0472C25.3835 16.6169 25.7657 16.2343 26.1956 16.2821C26.4106 16.2821 26.5778 16.3658 26.7091 16.4973C26.8763 16.6288 26.9241 16.844 26.9241 17.0472C26.9241 17.4776 26.5778 17.8601 26.112 17.8601C25.9807 17.8123 25.7657 17.7286 25.6343 17.5971Z" fill="black"/>
<path fill-rule="evenodd" clip-rule="evenodd" d="M23.0308 19.2706C23.0308 19.0554 23.1144 18.8403 23.2816 18.7207C23.6279 18.4218 24.1295 18.4697 24.428 18.7685C24.6788 19.0674 24.6788 19.5336 24.428 19.8325C24.1295 20.1313 23.6159 20.1313 23.3174 19.8325C23.1263 19.6532 23.0308 19.4738 23.0308 19.2706Z" fill="black"/>
<path fill-rule="evenodd" clip-rule="evenodd" d="M18.8989 24.1718C18.7317 24.0045 18.6481 23.8252 18.684 23.6219C18.684 23.4068 18.7676 23.1916 18.8989 23.072C19.1975 22.7732 19.711 22.7732 20.0454 23.072C20.1767 23.2035 20.2603 23.4187 20.2603 23.6219C20.2603 23.8252 20.1767 24.0523 20.0096 24.1718C19.8782 24.3392 19.6632 24.4229 19.4602 24.4229C19.2333 24.4348 19.0661 24.3512 18.8989 24.1718Z" fill="black"/>
<path fill-rule="evenodd" clip-rule="evenodd" d="M16.5462 26.4433C16.379 26.3118 16.2954 26.0967 16.2954 25.8934C16.2954 25.6783 16.379 25.5109 16.5462 25.3435C16.8925 25.0447 17.4419 25.0447 17.7882 25.3435C17.9554 25.475 18.039 25.6902 18.039 25.8934C18.039 26.1086 17.9554 26.276 17.7882 26.4433C17.621 26.6107 17.406 26.6944 17.1911 26.6944C16.9403 26.6585 16.7253 26.5629 16.5462 26.4433Z" fill="black"/>
<path fill-rule="evenodd" clip-rule="evenodd" d="M14.4205 28.7026C14.1219 28.4037 14.1219 27.8897 14.4205 27.555C14.719 27.2561 15.2325 27.2561 15.5669 27.555C15.8655 27.8538 15.8655 28.3679 15.5669 28.7026C15.3997 28.8341 15.2206 28.9178 15.0176 28.9178C14.7548 28.9178 14.5876 28.8341 14.4205 28.7026Z" fill="black"/>
<path fill-rule="evenodd" clip-rule="evenodd" d="M12.1993 30.9263C12.0321 30.7589 11.9485 30.5796 11.9485 30.3764C11.9485 29.946 12.3306 29.5635 12.7606 29.5635C12.9755 29.5635 13.1905 29.6472 13.3099 29.7787C13.4413 29.946 13.5249 30.1253 13.5249 30.3286C13.5249 30.5318 13.4413 30.7589 13.3099 30.8785C13.1427 31.01 12.9636 31.0936 12.7606 31.0936C12.5456 31.1415 12.3306 31.0936 12.1993 30.9263Z" fill="black"/>
<path fill-rule="evenodd" clip-rule="evenodd" d="M9.85845 33.1855C9.69126 33.054 9.60767 32.8388 9.60767 32.6356C9.60767 32.4204 9.69126 32.2053 9.85845 32.0857C10.2048 31.7869 10.7064 31.7869 11.0527 32.0857C11.2199 32.2172 11.3035 32.4324 11.3035 32.6356C11.3035 32.8508 11.2199 33.066 11.0527 33.1855C10.7064 33.4844 10.1928 33.4844 9.85845 33.1855Z" fill="black"/>
<path fill-rule="evenodd" clip-rule="evenodd" d="M7.72074 35.4091C7.42219 35.1103 7.42219 34.5962 7.72074 34.2615C8.0193 33.9626 8.53282 33.9626 8.83138 34.2615C9.12993 34.5604 9.12993 35.0744 8.83138 35.4091C8.53282 35.708 8.0193 35.708 7.72074 35.4091Z" fill="black"/>
<path fill-rule="evenodd" clip-rule="evenodd" d="M8.83133 8.63135C8.96269 8.46399 9.04629 8.28468 9.04629 8.08145C9.04629 7.65109 8.69996 7.26855 8.23422 7.26855C8.01925 7.26855 7.80429 7.35224 7.68487 7.48373C7.51768 7.61523 7.43408 7.83041 7.43408 8.03364C7.43408 8.24881 7.51768 8.46399 7.68487 8.58354C8.01925 8.93021 8.53277 8.93021 8.83133 8.63135Z" fill="black"/>
<path fill-rule="evenodd" clip-rule="evenodd" d="M11.0527 10.8547C11.2199 10.7232 11.3035 10.508 11.3035 10.3048C11.3035 10.0896 11.2199 9.87445 11.0527 9.75491C10.7064 9.45605 10.2048 9.45605 9.85845 9.75491C9.69126 9.88641 9.60767 10.1016 9.60767 10.3048C9.60767 10.52 9.69126 10.7352 9.85845 10.8547C10.1928 11.1536 10.7064 11.1536 11.0527 10.8547Z" fill="black"/>
<path fill-rule="evenodd" clip-rule="evenodd" d="M13.3098 13.0783C13.6084 12.7795 13.6084 12.2654 13.3098 11.9666C13.0113 11.6677 12.4978 11.6677 12.1634 11.9666C12.032 12.0981 11.9484 12.3133 11.9126 12.5165C11.9126 12.7317 11.9962 12.9468 12.1276 13.0664C12.2589 13.2337 12.4739 13.3174 12.6769 13.3174C12.9635 13.3294 13.1785 13.2457 13.3098 13.0783Z" fill="black"/>
<path fill-rule="evenodd" clip-rule="evenodd" d="M15.5669 15.3376C15.8655 15.0387 15.8655 14.5247 15.5669 14.19C15.2683 13.8911 14.7548 13.8911 14.4205 14.19C14.1219 14.4888 14.1219 15.0029 14.4205 15.3376C14.5876 15.5049 14.7668 15.5528 14.9698 15.5528C15.1728 15.5528 15.3997 15.4691 15.5669 15.3376Z" fill="black"/>
<path fill-rule="evenodd" clip-rule="evenodd" d="M17.788 17.5971C17.9552 17.4656 18.0388 17.2504 18.0388 17.0472C18.0388 16.844 17.9552 16.6169 17.788 16.4973C17.4417 16.1506 16.9401 16.1506 16.5938 16.4973C16.4266 16.6288 16.343 16.844 16.343 17.0472C16.343 17.2504 16.4266 17.4776 16.5938 17.5971C16.9401 17.896 17.4417 17.896 17.788 17.5971Z" fill="black"/>
<path fill-rule="evenodd" clip-rule="evenodd" d="M20.2601 19.2706C20.2601 19.0554 20.1766 18.8403 20.0094 18.7207C19.7108 18.4219 19.1973 18.4219 18.8987 18.7207C18.6002 19.0196 18.6002 19.5336 18.8987 19.8683C19.1973 20.1672 19.7108 20.1672 20.0452 19.8683C20.1766 19.6532 20.2601 19.4739 20.2601 19.2706Z" fill="black"/>
<path fill-rule="evenodd" clip-rule="evenodd" d="M22.2666 22.08C22.5652 21.7812 22.5652 21.2671 22.2666 20.9324C21.9681 20.6335 21.4545 20.6335 21.1202 20.9324C20.8216 21.2313 20.8216 21.7453 21.1202 22.08C21.4545 22.3789 21.9681 22.3789 22.2666 22.08Z" fill="black"/>
<path fill-rule="evenodd" clip-rule="evenodd" d="M24.4877 24.1718C24.6549 24.0404 24.7385 23.8252 24.7385 23.6219C24.7385 23.4187 24.6549 23.1916 24.4877 23.072C24.1414 22.7732 23.6398 22.7732 23.2935 23.072C23.1263 23.2035 23.0427 23.4187 23.0427 23.6219C23.0427 23.8252 23.1263 24.0523 23.2935 24.1718C23.4607 24.3392 23.6757 24.4229 23.8906 24.4229C24.1056 24.4229 24.3205 24.3512 24.4877 24.1718Z" fill="black"/>
<path fill-rule="evenodd" clip-rule="evenodd" d="M26.7449 26.4433C26.8763 26.3118 26.9599 26.0967 26.9599 25.8934C26.9599 25.6783 26.8763 25.5109 26.7449 25.3435C26.4463 25.0447 25.9328 25.0447 25.5984 25.3435C25.4313 25.5109 25.3477 25.6902 25.3477 25.8934C25.3477 26.3238 25.7298 26.6585 26.1597 26.6585C26.4105 26.6585 26.6135 26.5629 26.7449 26.4433Z" fill="black"/>
<path fill-rule="evenodd" clip-rule="evenodd" d="M29.0139 28.7026C29.3125 28.4037 29.3125 27.8897 29.0139 27.555C28.7154 27.2561 28.2019 27.2561 27.8675 27.555C27.5689 27.8538 27.5689 28.3679 27.8675 28.7026C28.0347 28.8699 28.2138 28.9178 28.4168 28.9178C28.6198 28.9178 28.8348 28.8341 29.0139 28.7026Z" fill="black"/>
<path fill-rule="evenodd" clip-rule="evenodd" d="M31.1039 30.9262C31.2711 30.7589 31.3547 30.5796 31.3547 30.3763C31.3547 30.1612 31.2711 29.946 31.1039 29.8264C30.8054 29.5276 30.2918 29.5276 29.9933 29.8264C29.8619 29.9938 29.7783 30.1731 29.7783 30.3763C29.7783 30.5915 29.8619 30.8067 29.9933 30.9262C30.1605 31.0936 30.3396 31.1414 30.5426 31.1414C30.7576 31.1414 30.9725 31.0936 31.1039 30.9262Z" fill="black"/>
<path fill-rule="evenodd" clip-rule="evenodd" d="M33.4446 33.1855C33.6118 33.0181 33.6954 32.8388 33.6954 32.5878C33.6954 32.3726 33.6118 32.1574 33.4446 32.0379C33.1461 31.739 32.6325 31.739 32.334 32.0379C32.1668 32.2052 32.0832 32.3845 32.119 32.5878C32.119 32.8029 32.2026 33.0181 32.334 33.1377C32.6325 33.4843 33.1461 33.4843 33.4446 33.1855Z" fill="black"/>
<path fill-rule="evenodd" clip-rule="evenodd" d="M35.7016 35.4091C36.0001 35.1103 36.0001 34.644 35.7493 34.2974C35.7493 34.2974 35.7493 34.2974 35.7016 34.2495C35.3552 33.9507 34.8537 33.9507 34.5073 34.2495C34.2088 34.5006 34.161 35.0146 34.4238 35.3135C34.4715 35.3613 34.4715 35.3613 34.5073 35.3972C34.8537 35.7438 35.3672 35.7438 35.7016 35.4091Z" fill="black"/>
<path fill-rule="evenodd" clip-rule="evenodd" d="M14.1218 9.22897C18.6837 6.28819 24.5713 6.28819 29.1332 9.22897L33.9579 4.44721C26.7448 -1.27895 16.5461 -1.27895 9.29712 4.44721L14.1218 9.22897Z" fill="black"/>
<path fill-rule="evenodd" clip-rule="evenodd" d="M9.2972 28.9537C6.26386 24.3871 6.26386 18.4936 9.2972 13.927L4.52029 9.14526C-1.11646 16.3657 -1.11646 26.527 4.52029 33.7474L9.2972 28.9537Z" fill="black"/>
<path fill-rule="evenodd" clip-rule="evenodd" d="M29.181 33.7476C26.9598 35.2897 24.3563 36.0906 21.6693 36.0906C18.9823 36.1384 16.2953 35.3255 14.074 33.7834L9.29712 38.5652C12.7962 41.3864 17.191 42.8807 21.6693 42.8329C26.1118 42.8329 30.4111 41.2908 33.9102 38.5174L29.181 33.7476Z" fill="black"/>
<path fill-rule="evenodd" clip-rule="evenodd" d="M33.8745 13.927C35.4151 16.1864 36.1794 18.8403 36.1316 21.5659C36.0838 24.2078 35.3195 26.778 33.8745 28.9537L38.6992 33.7355C41.4698 30.2806 42.9626 25.9651 43.0104 21.5181C43.0581 17.0352 41.5653 12.6359 38.747 9.1333L33.8745 13.927Z" fill="black"/>
<path fill-rule="evenodd" clip-rule="evenodd" d="M38.8663 35.1938C40.7412 35.1938 42.234 36.6882 42.234 38.565C42.234 40.4418 40.7412 41.9361 38.8663 41.9361C36.9913 41.9361 35.4985 40.4418 35.4985 38.565C35.5344 36.6882 37.0271 35.1938 38.8663 35.1938Z" fill="black"/>
<path fill-rule="evenodd" clip-rule="evenodd" d="M4.47262 35.1938C6.31173 35.2775 7.75674 36.8196 7.70897 38.6965C7.6612 40.4418 6.21619 41.8525 4.47262 41.9361C2.6335 41.8525 1.18849 40.3103 1.23626 38.4335C1.31985 36.6881 2.72904 35.2775 4.47262 35.1938Z" fill="black"/>
<path fill-rule="evenodd" clip-rule="evenodd" d="M38.9498 0.813232C40.7889 0.813232 42.2817 2.35535 42.2817 4.18438C42.2817 6.0134 40.7889 7.48379 38.9498 7.48379C37.1107 7.48379 35.6179 5.98949 35.6179 4.19633C35.6179 2.35535 37.0749 0.86105 38.9498 0.813232Z" fill="black"/>
<path fill-rule="evenodd" clip-rule="evenodd" d="M4.43657 0.813232C6.27568 0.813232 7.76847 2.25972 7.80429 4.10069C7.80429 5.94167 6.26374 7.43597 4.43657 7.43597C2.59746 7.43597 1.10467 5.98949 1.06885 4.10069C1.06885 2.30753 2.59746 0.813232 4.43657 0.813232Z" fill="black"/>
<path d="M67.8741 29.4677L66.2141 27.9734C65.2348 29.1688 63.1808 29.8502 61.473 29.8502C58.6188 29.8502 56.3498 28.1408 56.099 25.4032H68.722C69.2713 19.4619 65.82 16.6884 61.2939 16.6884C56.7677 16.6884 53.615 19.8922 53.615 24.3751C53.615 29.121 56.8155 32.1455 61.4252 32.1455C63.7301 32.1216 66.3813 31.2609 67.8741 29.4677ZM66.4171 23.3231H56.1468C56.5767 20.466 58.8338 18.8761 61.3894 18.8761C64.2436 18.8761 66.2499 20.4182 66.429 23.2275V23.3231H66.4171ZM74.8245 10.8069H72.3524V31.8586H74.8245V10.8069ZM81.7868 16.9992H79.5297V31.8586H82.0018V23.5742C81.954 21.1355 83.9245 19.1271 86.3488 19.1271C87.2922 19.1271 88.1879 19.3782 88.9522 19.94L90.0628 17.848C89.0835 17.1188 87.8415 16.7004 86.6115 16.7362C84.9037 16.7362 83.0646 17.2861 82.0496 19.2108L81.7868 16.9992ZM91.4242 24.4707C91.4242 29.0015 94.6606 32.1574 99.1031 32.1574C103.546 32.1574 106.83 29.0015 106.83 24.4707C106.83 19.8563 103.629 16.7004 99.1031 16.7004C94.7084 16.6645 91.4242 19.8683 91.4242 24.4707ZM104.394 24.4707C104.346 27.5908 102.172 29.8144 99.1031 29.8144C96.034 29.8144 93.8605 27.5908 93.8605 24.4707C93.8605 21.1833 96.0817 18.9239 99.1031 18.9239C102.172 18.9239 104.394 21.1474 104.394 24.4707ZM110.365 16.9634V31.8227H112.801V23.885C112.801 21.1952 114.676 19.0554 117.363 19.0554C120.181 19.0554 121.889 20.8486 121.889 23.6698V31.8705H124.361V23.6339C124.361 19.2825 121.59 16.7602 117.829 16.7602C115.822 16.7123 113.9 17.7046 112.753 19.3184L112.622 16.9275L110.365 16.9634ZM143.218 10.8069H140.782V19.689C139.719 17.6806 137.33 16.7004 135.24 16.7004C131.013 16.7004 127.777 19.3901 127.777 24.3871C127.777 29.3003 131.061 32.0738 135.288 32.0738C137.545 32.1574 139.635 31.0098 140.829 29.0852L140.961 31.7749H143.266V10.771L143.218 10.8069ZM135.408 19.0076C138.262 18.9598 140.614 21.1833 140.698 24.0523C140.698 24.136 140.698 24.2675 140.698 24.3512C140.698 27.6028 138.393 29.7785 135.455 29.7785C132.518 29.7785 130.213 27.818 130.213 24.399C130.213 20.9801 132.518 19.0554 135.336 19.0195H135.408V19.0076Z" fill="black"/>
</svg>
