<svg width="19" height="18" viewBox="0 0 19 18" fill="none" xmlns="http://www.w3.org/2000/svg">
<path d="M2.06897 8H6.2069C7.34483 8 8.27586 7.1 8.27586 6V2C8.27586 0.9 7.34483 0 6.2069 0H2.06897C0.931034 0 0 0.9 0 2V6C0 7.1 0.931034 8 2.06897 8Z" fill="#F0F6FF" fill-opacity="0.1"/>
<path d="M6.2069 7.5H2.06897C1.19106 7.5 0.5 6.80802 0.5 6V2C0.5 1.19198 1.19106 0.5 2.06897 0.5H6.2069C7.0848 0.5 7.77586 1.19198 7.77586 2V6C7.77586 6.80802 7.0848 7.5 6.2069 7.5Z" stroke="#F0F6FF" stroke-opacity="0.34"/>
<path d="M2.06897 18H6.2069C7.34483 18 8.27586 17.1 8.27586 16V12C8.27586 10.9 7.34483 10 6.2069 10H2.06897C0.931034 10 0 10.9 0 12V16C0 17.1 0.931034 18 2.06897 18Z" fill="#F0F6FF" fill-opacity="0.1"/>
<path d="M6.2069 17.5H2.06897C1.19106 17.5 0.5 16.808 0.5 16V12C0.5 11.192 1.19106 10.5 2.06897 10.5H6.2069C7.0848 10.5 7.77586 11.192 7.77586 12V16C7.77586 16.808 7.0848 17.5 6.2069 17.5Z" stroke="#F0F6FF" stroke-opacity="0.34"/>
<path d="M10.3447 2V6C10.3447 7.1 11.2758 8 12.4137 8H16.5516C17.6896 8 18.6206 7.1 18.6206 6V2C18.6206 0.9 17.6896 0 16.5516 0H12.4137C11.2758 0 10.3447 0.9 10.3447 2Z" fill="#F0F6FF" fill-opacity="0.1"/>
<path d="M10.8447 6V2C10.8447 1.19198 11.5358 0.5 12.4137 0.5H16.5516C17.4295 0.5 18.1206 1.19198 18.1206 2V6C18.1206 6.80802 17.4295 7.5 16.5516 7.5H12.4137C11.5358 7.5 10.8447 6.80802 10.8447 6Z" stroke="#F0F6FF" stroke-opacity="0.34"/>
<path d="M12.4137 18H16.5516C17.6896 18 18.6206 17.1 18.6206 16V12C18.6206 10.9 17.6896 10 16.5516 10H12.4137C11.2758 10 10.3447 10.9 10.3447 12V16C10.3447 17.1 11.2758 18 12.4137 18Z" fill="#F0F6FF" fill-opacity="0.1"/>
<path d="M16.5516 17.5H12.4137C11.5358 17.5 10.8447 16.808 10.8447 16V12C10.8447 11.192 11.5358 10.5 12.4137 10.5H16.5516C17.4295 10.5 18.1206 11.192 18.1206 12V16C18.1206 16.808 17.4295 17.5 16.5516 17.5Z" stroke="#F0F6FF" stroke-opacity="0.34"/>
</svg>
