<svg width="18" height="18" viewBox="0 0 18 18" fill="none" xmlns="http://www.w3.org/2000/svg">
<path d="M6 7.5H2C1.17614 7.5 0.5 6.82386 0.5 6V2C0.5 1.17614 1.17614 0.5 2 0.5H6C6.82386 0.5 7.5 1.17614 7.5 2V6C7.5 6.82386 6.82386 7.5 6 7.5Z" fill="#4C2FFC" fill-opacity="0.54" stroke="#4C2FFC"/>
<path d="M6 17.5H2C1.17614 17.5 0.5 16.8239 0.5 16V12C0.5 11.1761 1.17614 10.5 2 10.5H6C6.82386 10.5 7.5 11.1761 7.5 12V16C7.5 16.8239 6.82386 17.5 6 17.5Z" fill="#4C2FFC" fill-opacity="0.54" stroke="#4C2FFC"/>
<path d="M10.5 6V2C10.5 1.17614 11.1761 0.5 12 0.5H16C16.8239 0.5 17.5 1.17614 17.5 2V6C17.5 6.82386 16.8239 7.5 16 7.5H12C11.1761 7.5 10.5 6.82386 10.5 6Z" fill="#4C2FFC" fill-opacity="0.54" stroke="#4C2FFC"/>
<path d="M16 17.5H12C11.1761 17.5 10.5 16.8239 10.5 16V12C10.5 11.1761 11.1761 10.5 12 10.5H16C16.8239 10.5 17.5 11.1761 17.5 12V16C17.5 16.8239 16.8239 17.5 16 17.5Z" fill="#4C2FFC" fill-opacity="0.54" stroke="#4C2FFC"/>
</svg>
