<svg width="23" height="25" viewBox="0 0 23 25" fill="none" xmlns="http://www.w3.org/2000/svg">
<path d="M18.6991 0.0648383H8.50485V14.8647H22.2687V3.89426C22.2687 3.39035 22.1763 2.89141 21.9968 2.42601C21.8173 1.96062 21.5541 1.53793 21.2225 1.18218C20.8909 0.82643 20.4973 0.544608 20.0643 0.352872C19.6313 0.161135 19.1673 0.0632537 18.6991 0.0648383Z" fill="#142533"/>
<path d="M5.32881 0.0648193H3.57196C2.62819 0.0648193 1.72308 0.468275 1.05574 1.18643C0.388398 1.90458 0.0134888 2.87861 0.0134888 3.89424L0.0134888 5.78486H5.32881V0.0648193Z" fill="#142533"/>
<path d="M0.0134888 9.20483H5.32881V14.9249H0.0134888V9.20483Z" fill="#142533"/>
<path d="M17.0013 24.0167H18.7581C19.2264 24.0167 19.69 23.9173 20.1225 23.7241C20.555 23.5309 20.9477 23.2477 21.2783 22.8909C21.6089 22.534 21.8708 22.1104 22.0489 21.6444C22.2271 21.1784 22.3181 20.6792 22.3166 20.1753V18.3448H17.0013V24.0167Z" fill="#142533"/>
<path d="M8.50485 18.3448H13.8202V24.0649H8.50485V18.3448Z" fill="#142533"/>
<path d="M0.0134888 18.3448V20.2355C0.0134888 21.2511 0.388398 22.2251 1.05574 22.9433C1.72308 23.6614 2.62819 24.0649 3.57196 24.0649H5.32881V18.3448H0.0134888Z" fill="#142533"/>
</svg>
