<svg width="23" height="25" viewBox="0 0 23 25" fill="none" xmlns="http://www.w3.org/2000/svg">
<path fill-rule="evenodd" clip-rule="evenodd" d="M18.2361 5.5697C18.1488 5.4958 18.1051 5.37488 18.1051 5.26067C18.1051 5.14647 18.1488 5.01883 18.2361 4.95165C18.417 4.7837 18.679 4.7837 18.8599 4.95165C18.9472 5.02554 18.9909 5.14647 18.9909 5.26067C18.9909 5.37488 18.9472 5.50252 18.8599 5.5697C18.7039 5.73765 18.4108 5.73765 18.2361 5.5697Z" fill="black"/>
<path fill-rule="evenodd" clip-rule="evenodd" d="M17.1192 6.82019C17.0506 6.72614 17.007 6.62536 17.007 6.51116C17.007 6.2693 17.1879 6.05432 17.4311 6.05432C17.5434 6.05432 17.6557 6.10135 17.7181 6.1954C17.7867 6.28946 17.8303 6.39023 17.8303 6.50444C17.8303 6.62536 17.7867 6.74629 17.7181 6.81347C17.6307 6.88737 17.5372 6.9344 17.4311 6.9344C17.3001 6.94112 17.2066 6.89409 17.1192 6.82019Z" fill="black"/>
<path fill-rule="evenodd" clip-rule="evenodd" d="M15.8974 8.07056C15.7415 7.90261 15.7415 7.61373 15.8974 7.44579C16.0533 7.27784 16.3215 7.27784 16.4962 7.44579C16.6521 7.61373 16.6521 7.90261 16.4962 8.07056C16.4276 8.16461 16.3153 8.21163 16.2093 8.21163C16.072 8.21163 15.9847 8.16461 15.8974 8.07056Z" fill="black"/>
<path fill-rule="evenodd" clip-rule="evenodd" d="M14.7399 9.34095C14.584 9.173 14.5591 8.911 14.715 8.71619L14.7399 8.68931C14.9208 8.52137 15.1828 8.52137 15.3637 8.68931C15.5196 8.85726 15.5446 9.11926 15.3886 9.31408L15.3637 9.34095C15.2764 9.435 15.1641 9.46187 15.0518 9.46187C14.9395 9.46187 14.8273 9.435 14.7399 9.34095Z" fill="black"/>
<path fill-rule="evenodd" clip-rule="evenodd" d="M13.624 10.6114C13.5366 10.5375 13.493 10.4166 13.493 10.3024C13.493 10.0605 13.6926 9.84552 13.9171 9.87239C14.0294 9.87239 14.1168 9.91942 14.1854 9.99332C14.2727 10.0672 14.2977 10.1881 14.2977 10.3024C14.2977 10.5442 14.1168 10.7592 13.8735 10.7592C13.8049 10.7323 13.6926 10.6853 13.624 10.6114Z" fill="black"/>
<path fill-rule="evenodd" clip-rule="evenodd" d="M12.2645 11.5526C12.2645 11.4317 12.3082 11.3108 12.3955 11.2436C12.5764 11.0756 12.8384 11.1025 12.9943 11.2705C13.1253 11.4384 13.1253 11.7004 12.9943 11.8684C12.8384 12.0363 12.5701 12.0363 12.4142 11.8684C12.3144 11.7676 12.2645 11.6668 12.2645 11.5526Z" fill="black"/>
<path fill-rule="evenodd" clip-rule="evenodd" d="M10.1083 14.3085C10.021 14.2144 9.97729 14.1137 9.99601 13.9995C9.99601 13.8785 10.0397 13.7576 10.1083 13.6904C10.2642 13.5225 10.5325 13.5225 10.7071 13.6904C10.7757 13.7643 10.8194 13.8852 10.8194 13.9995C10.8194 14.1137 10.7757 14.2413 10.6884 14.3085C10.6198 14.4025 10.5075 14.4496 10.4015 14.4496C10.283 14.4563 10.1956 14.4093 10.1083 14.3085Z" fill="black"/>
<path fill-rule="evenodd" clip-rule="evenodd" d="M8.87956 15.5857C8.79223 15.5118 8.74857 15.3909 8.74857 15.2767C8.74857 15.1557 8.79223 15.0617 8.87956 14.9676C9.06046 14.7997 9.3474 14.7997 9.5283 14.9676C9.61563 15.0415 9.65929 15.1625 9.65929 15.2767C9.65929 15.3976 9.61563 15.4916 9.5283 15.5857C9.44097 15.6797 9.32869 15.7268 9.2164 15.7268C9.08541 15.7066 8.97313 15.6529 8.87956 15.5857Z" fill="black"/>
<path fill-rule="evenodd" clip-rule="evenodd" d="M7.7693 16.8561C7.61336 16.6882 7.61336 16.3993 7.7693 16.2112C7.92524 16.0432 8.19347 16.0432 8.36812 16.2112C8.52407 16.3791 8.52407 16.668 8.36812 16.8561C8.2808 16.93 8.18723 16.977 8.08119 16.977C7.94396 16.977 7.85663 16.93 7.7693 16.8561Z" fill="black"/>
<path fill-rule="evenodd" clip-rule="evenodd" d="M6.60971 18.1075C6.52239 18.0133 6.47873 17.9124 6.47873 17.7981C6.47873 17.5559 6.67832 17.3407 6.90287 17.3407C7.01514 17.3407 7.12741 17.3878 7.18979 17.4618C7.2584 17.5559 7.30206 17.6568 7.30206 17.7712C7.30206 17.8855 7.2584 18.0133 7.18979 18.0806C7.10246 18.1546 7.0089 18.2017 6.90287 18.2017C6.7906 18.2286 6.67832 18.2017 6.60971 18.1075Z" fill="black"/>
<path fill-rule="evenodd" clip-rule="evenodd" d="M5.38712 19.3777C5.2998 19.3037 5.25613 19.1826 5.25613 19.0683C5.25613 18.9472 5.2998 18.8262 5.38712 18.7589C5.56801 18.5908 5.82998 18.5908 6.01087 18.7589C6.09819 18.8329 6.14185 18.954 6.14185 19.0683C6.14185 19.1894 6.09819 19.3104 6.01087 19.3777C5.82998 19.5458 5.56177 19.5458 5.38712 19.3777Z" fill="black"/>
<path fill-rule="evenodd" clip-rule="evenodd" d="M4.27295 20.6271C4.117 20.4592 4.117 20.1703 4.27295 19.9822C4.4289 19.8142 4.69713 19.8142 4.85308 19.9822C5.00902 20.1501 5.00902 20.439 4.85308 20.6271C4.69713 20.7951 4.4289 20.7951 4.27295 20.6271Z" fill="black"/>
<path fill-rule="evenodd" clip-rule="evenodd" d="M4.85346 5.56996C4.92208 5.47591 4.96574 5.37513 4.96574 5.26092C4.96574 5.01906 4.78485 4.80408 4.54158 4.80408C4.4293 4.80408 4.31702 4.85111 4.25465 4.92501C4.16732 4.99891 4.12366 5.11984 4.12366 5.23405C4.12366 5.35498 4.16732 5.47591 4.25465 5.54309C4.4293 5.73792 4.69752 5.73792 4.85346 5.56996Z" fill="black"/>
<path fill-rule="evenodd" clip-rule="evenodd" d="M6.01087 6.82107C6.09819 6.74708 6.14185 6.62602 6.14185 6.51168C6.14185 6.39061 6.09819 6.26954 6.01087 6.20228C5.82998 6.03413 5.56801 6.03413 5.38712 6.20228C5.2998 6.27627 5.25613 6.39734 5.25613 6.51168C5.25613 6.63274 5.2998 6.75381 5.38712 6.82107C5.56177 6.98922 5.82998 6.98922 6.01087 6.82107Z" fill="black"/>
<path fill-rule="evenodd" clip-rule="evenodd" d="M7.19089 8.07055C7.34683 7.9026 7.34683 7.61373 7.19089 7.44578C7.03495 7.27784 6.76673 7.27784 6.59208 7.44578C6.52347 7.51968 6.4798 7.6406 6.46109 7.75481C6.46109 7.87573 6.50475 7.99665 6.57337 8.06383C6.64198 8.15788 6.75426 8.20491 6.8603 8.20491C7.01 8.21162 7.12228 8.1646 7.19089 8.07055Z" fill="black"/>
<path fill-rule="evenodd" clip-rule="evenodd" d="M8.36812 9.34093C8.52407 9.17298 8.52407 8.88412 8.36812 8.69603C8.21218 8.52808 7.94396 8.52808 7.7693 8.69603C7.61336 8.86397 7.61336 9.15283 7.7693 9.34093C7.85663 9.43497 7.9502 9.46185 8.05624 9.46185C8.16228 9.46185 8.2808 9.41482 8.36812 9.34093Z" fill="black"/>
<path fill-rule="evenodd" clip-rule="evenodd" d="M9.52877 10.6113C9.61609 10.5374 9.65975 10.4165 9.65975 10.3023C9.65975 10.1881 9.61609 10.0605 9.52877 9.99328C9.34788 9.79846 9.08591 9.79846 8.90502 9.99328C8.8177 10.0672 8.77403 10.1881 8.77403 10.3023C8.77403 10.4165 8.8177 10.5442 8.90502 10.6113C9.08591 10.7793 9.34788 10.7793 9.52877 10.6113Z" fill="black"/>
<path fill-rule="evenodd" clip-rule="evenodd" d="M10.8188 11.5527C10.8188 11.4317 10.7752 11.3108 10.6878 11.2436C10.5319 11.0757 10.2637 11.0757 10.1077 11.2436C9.95177 11.4116 9.95177 11.7005 10.1077 11.8886C10.2637 12.0565 10.5319 12.0565 10.7065 11.8886C10.7752 11.7677 10.8188 11.6669 10.8188 11.5527Z" fill="black"/>
<path fill-rule="evenodd" clip-rule="evenodd" d="M11.8644 13.1322C12.0203 12.9643 12.0203 12.6754 11.8644 12.4873C11.7085 12.3193 11.4403 12.3193 11.2656 12.4873C11.1097 12.6552 11.1097 12.9441 11.2656 13.1322C11.4403 13.3002 11.7085 13.3002 11.8644 13.1322Z" fill="black"/>
<path fill-rule="evenodd" clip-rule="evenodd" d="M13.0251 14.3085C13.1124 14.2346 13.1561 14.1137 13.1561 13.9994C13.1561 13.8852 13.1124 13.7576 13.0251 13.6904C12.8442 13.5225 12.5822 13.5225 12.4014 13.6904C12.314 13.7643 12.2704 13.8852 12.2704 13.9994C12.2704 14.1137 12.314 14.2413 12.4014 14.3085C12.4887 14.4025 12.601 14.4496 12.7132 14.4496C12.8255 14.4496 12.9378 14.4092 13.0251 14.3085Z" fill="black"/>
<path fill-rule="evenodd" clip-rule="evenodd" d="M14.2032 15.5866C14.2718 15.5126 14.3155 15.3915 14.3155 15.2772C14.3155 15.1561 14.2718 15.062 14.2032 14.9678C14.0472 14.7996 13.779 14.7996 13.6044 14.9678C13.517 15.062 13.4734 15.1628 13.4734 15.2772C13.4734 15.5193 13.673 15.7077 13.8975 15.7077C14.0285 15.7077 14.1346 15.6538 14.2032 15.5866Z" fill="black"/>
<path fill-rule="evenodd" clip-rule="evenodd" d="M15.3882 16.8561C15.5442 16.6882 15.5442 16.3993 15.3882 16.2112C15.2323 16.0432 14.9641 16.0432 14.7894 16.2112C14.6335 16.3791 14.6335 16.668 14.7894 16.8561C14.8767 16.9502 14.9703 16.977 15.0763 16.977C15.1824 16.977 15.2947 16.93 15.3882 16.8561Z" fill="black"/>
<path fill-rule="evenodd" clip-rule="evenodd" d="M16.4777 18.1073C16.565 18.0131 16.6087 17.9123 16.6087 17.7979C16.6087 17.6769 16.565 17.5558 16.4777 17.4885C16.3217 17.3204 16.0535 17.3204 15.8976 17.4885C15.829 17.5827 15.7853 17.6836 15.7853 17.7979C15.7853 17.919 15.829 18.0401 15.8976 18.1073C15.9849 18.2015 16.0785 18.2284 16.1845 18.2284C16.2968 18.2284 16.4091 18.2015 16.4777 18.1073Z" fill="black"/>
<path fill-rule="evenodd" clip-rule="evenodd" d="M17.6987 19.3778C17.7861 19.2836 17.8297 19.1827 17.8297 19.0415C17.8297 18.9204 17.7861 18.7993 17.6987 18.7321C17.5428 18.5639 17.2746 18.5639 17.1186 18.7321C17.0313 18.8262 16.9876 18.9271 17.0063 19.0415C17.0063 19.1625 17.05 19.2836 17.1186 19.3509C17.2746 19.5459 17.5428 19.5459 17.6987 19.3778Z" fill="black"/>
<path fill-rule="evenodd" clip-rule="evenodd" d="M18.8788 20.6271C19.0348 20.4592 19.0348 20.1972 18.9038 20.0023C18.9038 20.0023 18.9038 20.0023 18.8788 19.9755C18.6979 19.8075 18.4359 19.8075 18.2551 19.9755C18.0991 20.1165 18.0742 20.4054 18.2114 20.5734C18.2363 20.6003 18.2363 20.6003 18.2551 20.6204C18.4359 20.8152 18.7042 20.8152 18.8788 20.6271Z" fill="black"/>
<path fill-rule="evenodd" clip-rule="evenodd" d="M7.61376 5.90643C9.99491 4.25282 13.068 4.25282 15.4491 5.90643L17.9674 3.21762C14.2024 -0.00222844 8.87913 -0.00222844 5.09547 3.21762L7.61376 5.90643Z" fill="black"/>
<path fill-rule="evenodd" clip-rule="evenodd" d="M5.09625 16.9976C3.51298 14.4298 3.51298 11.1159 5.09625 8.54806L2.60291 5.85925C-0.339234 9.91935 -0.339234 15.6331 2.60291 19.6932L5.09625 16.9976Z" fill="black"/>
<path fill-rule="evenodd" clip-rule="evenodd" d="M15.4741 19.6934C14.3147 20.5605 12.9558 21.0109 11.5533 21.0109C10.1508 21.0378 8.74825 20.5807 7.58884 19.7135L5.09547 22.4023C6.92186 23.9887 9.21576 24.829 11.5533 24.8021C13.8721 24.8021 16.1161 23.935 17.9425 22.3755L15.4741 19.6934Z" fill="black"/>
<path fill-rule="evenodd" clip-rule="evenodd" d="M17.9239 8.54808C18.728 9.81855 19.1269 11.3108 19.102 12.8435C19.0771 14.329 18.6781 15.7743 17.9239 16.9977L20.4422 19.6865C21.8883 17.7438 22.6675 15.3172 22.6924 12.8166C22.7174 10.2958 21.9382 7.8221 20.4671 5.85254L17.9239 8.54808Z" fill="black"/>
<path fill-rule="evenodd" clip-rule="evenodd" d="M20.53 20.5067C21.5087 20.5067 22.2878 21.347 22.2878 22.4023C22.2878 23.4577 21.5087 24.2979 20.53 24.2979C19.5514 24.2979 18.7723 23.4577 18.7723 22.4023C18.791 21.347 19.5701 20.5067 20.53 20.5067Z" fill="black"/>
<path fill-rule="evenodd" clip-rule="evenodd" d="M2.57282 20.5067C3.53274 20.5538 4.28697 21.4209 4.26204 22.4763C4.2371 23.4577 3.48288 24.2509 2.57282 24.2979C1.61289 24.2509 0.858663 23.3837 0.883596 22.3284C0.927229 21.347 1.66276 20.5538 2.57282 20.5067Z" fill="black"/>
<path fill-rule="evenodd" clip-rule="evenodd" d="M20.5731 1.17444C21.5331 1.17444 22.3123 2.04158 22.3123 3.07005C22.3123 4.09852 21.5331 4.92533 20.5731 4.92533C19.6132 4.92533 18.834 4.08508 18.834 3.07677C18.834 2.04158 19.5945 1.20133 20.5731 1.17444Z" fill="black"/>
<path fill-rule="evenodd" clip-rule="evenodd" d="M2.55756 1.17444C3.5175 1.17444 4.29668 1.98781 4.31538 3.02301C4.31538 4.05821 3.51127 4.89847 2.55756 4.89847C1.59762 4.89847 0.818444 4.0851 0.799744 3.02301C0.799744 2.0147 1.59762 1.17444 2.55756 1.17444Z" fill="black"/>
</svg>
