<svg width="20" height="20" viewBox="0 0 20 20" fill="none" xmlns="http://www.w3.org/2000/svg">
<path d="M16.8421 5.26316V8.41053C16.8421 8.41053 14.7474 8.42105 14.7368 8.41053V5.26316H11.5789C11.5789 5.26316 11.5895 3.16842 11.5789 3.15789H14.7368V0H16.8421V3.15789H20V5.26316H16.8421ZM13.6842 9.47368V6.31579H10.5263V3.15789H2.10526C0.947368 3.15789 0 4.10526 0 5.26316V17.8947C0 19.0526 0.947368 20 2.10526 20H14.7368C15.8947 20 16.8421 19.0526 16.8421 17.8947V9.47368H13.6842ZM2.10526 17.8947L5.26316 13.6842L7.36842 16.8421L10.5263 12.6316L14.7368 17.8947H2.10526Z" fill="#4C2FFC"/>
</svg>
