<svg width="15" height="16" viewBox="0 0 15 16" fill="none" xmlns="http://www.w3.org/2000/svg">
<g clip-path="url(#clip0_203_3766)">
<path d="M12.3172 0.514761H5.63289V9.54405H14.6579V2.85119C14.6579 1.56905 13.604 0.514761 12.3243 0.514761H12.3172V0.514761ZM3.54896 0.514761H2.39718C1.11754 0.514761 0.0639648 1.56976 0.0639648 2.85119V4.00476H3.54896V0.514404V0.514761ZM0.0639648 6.09119H3.54896V9.58048H0.064322V6.09119H0.0639648ZM11.2018 15.1276H12.3536C13.634 15.1276 14.6868 14.0726 14.6868 12.7912V11.6673H11.2018V15.1276ZM5.63289 11.6673H9.11789V15.1569H5.63289V11.6673V11.6673ZM0.0639648 11.6673V12.8208C0.0639648 14.1019 1.11754 15.1569 2.39718 15.1569H3.54896V11.6673H0.064322H0.0639648Z" fill="#142533"/>
</g>
<defs>
<clipPath id="clip0_203_3766">
<rect width="15" height="15" fill="white" transform="translate(0 0.5)"/>
</clipPath>
</defs>
</svg>
