<svg width="20" height="16" viewBox="0 0 20 16" fill="none" xmlns="http://www.w3.org/2000/svg">
<path d="M1.5625 6.25C0.697917 6.25 0 6.94792 0 7.8125C0 8.67708 0.697917 9.375 1.5625 9.375C2.42708 9.375 3.125 8.67708 3.125 7.8125C3.125 6.94792 2.42708 6.25 1.5625 6.25ZM1.5625 0C0.697917 0 0 0.697917 0 1.5625C0 2.42708 0.697917 3.125 1.5625 3.125C2.42708 3.125 3.125 2.42708 3.125 1.5625C3.125 0.697917 2.42708 0 1.5625 0ZM1.5625 12.5C0.697917 12.5 0 13.2083 0 14.0625C0 14.9167 0.708333 15.625 1.5625 15.625C2.41667 15.625 3.125 14.9167 3.125 14.0625C3.125 13.2083 2.42708 12.5 1.5625 12.5ZM5.72917 15.1042H18.2292C18.8021 15.1042 19.2708 14.6354 19.2708 14.0625C19.2708 13.4896 18.8021 13.0208 18.2292 13.0208H5.72917C5.15625 13.0208 4.6875 13.4896 4.6875 14.0625C4.6875 14.6354 5.15625 15.1042 5.72917 15.1042ZM5.72917 8.85417H18.2292C18.8021 8.85417 19.2708 8.38542 19.2708 7.8125C19.2708 7.23958 18.8021 6.77083 18.2292 6.77083H5.72917C5.15625 6.77083 4.6875 7.23958 4.6875 7.8125C4.6875 8.38542 5.15625 8.85417 5.72917 8.85417ZM4.6875 1.5625C4.6875 2.13542 5.15625 2.60417 5.72917 2.60417H18.2292C18.8021 2.60417 19.2708 2.13542 19.2708 1.5625C19.2708 0.989583 18.8021 0.520833 18.2292 0.520833H5.72917C5.15625 0.520833 4.6875 0.989583 4.6875 1.5625Z" fill="#F0F6FF" fill-opacity="0.34"/>
</svg>
