<svg width="20" height="17" viewBox="0 0 20 17" fill="none" xmlns="http://www.w3.org/2000/svg">
<path d="M2.1665 6.9375C1.30192 6.9375 0.604004 7.63542 0.604004 8.5C0.604004 9.36458 1.30192 10.0625 2.1665 10.0625C3.03109 10.0625 3.729 9.36458 3.729 8.5C3.729 7.63542 3.03109 6.9375 2.1665 6.9375ZM2.1665 0.6875C1.30192 0.6875 0.604004 1.38542 0.604004 2.25C0.604004 3.11458 1.30192 3.8125 2.1665 3.8125C3.03109 3.8125 3.729 3.11458 3.729 2.25C3.729 1.38542 3.03109 0.6875 2.1665 0.6875ZM2.1665 13.1875C1.30192 13.1875 0.604004 13.8958 0.604004 14.75C0.604004 15.6042 1.31234 16.3125 2.1665 16.3125C3.02067 16.3125 3.729 15.6042 3.729 14.75C3.729 13.8958 3.03109 13.1875 2.1665 13.1875ZM6.33317 15.7917H18.8332C19.4061 15.7917 19.8748 15.3229 19.8748 14.75C19.8748 14.1771 19.4061 13.7083 18.8332 13.7083H6.33317C5.76025 13.7083 5.2915 14.1771 5.2915 14.75C5.2915 15.3229 5.76025 15.7917 6.33317 15.7917ZM6.33317 9.54167H18.8332C19.4061 9.54167 19.8748 9.07292 19.8748 8.5C19.8748 7.92708 19.4061 7.45833 18.8332 7.45833H6.33317C5.76025 7.45833 5.2915 7.92708 5.2915 8.5C5.2915 9.07292 5.76025 9.54167 6.33317 9.54167ZM5.2915 2.25C5.2915 2.82292 5.76025 3.29167 6.33317 3.29167H18.8332C19.4061 3.29167 19.8748 2.82292 19.8748 2.25C19.8748 1.67708 19.4061 1.20833 18.8332 1.20833H6.33317C5.76025 1.20833 5.2915 1.67708 5.2915 2.25Z" fill="#4C2FFC"/>
</svg>
