<svg width="15" height="24" viewBox="0 0 15 24" fill="none" xmlns="http://www.w3.org/2000/svg">
<path d="M12.75 0H2.25C1.65333 0.000227172 1.08117 0.237354 0.659261 0.659261C0.237353 1.08117 0.000227172 1.65333 0 2.25L0 21.75C0.000227172 22.3467 0.237353 22.9188 0.659261 23.3407C1.08117 23.7626 1.65333 23.9998 2.25 24H12.75C13.3467 23.9998 13.9188 23.7626 14.3407 23.3407C14.7626 22.9188 14.9998 22.3467 15 21.75V2.25C14.9998 1.65333 14.7626 1.08117 14.3407 0.659261C13.9188 0.237354 13.3467 0.000227172 12.75 0V0Z" fill="#1F43F7"/>
<path d="M5.57582 12.7886L5.58252 12.7802L3.64307 14.7155V7.00122L7.50021 10.8584L11.3574 7.00122V14.7155L9.42878 12.7886L7.50021 14.7155L5.57582 12.7886Z" fill="white"/>
<path d="M7.50007 21.8554C8.21015 21.8554 8.78578 21.2797 8.78578 20.5696C8.78578 19.8596 8.21015 19.2839 7.50007 19.2839C6.78999 19.2839 6.21436 19.8596 6.21436 20.5696C6.21436 21.2797 6.78999 21.8554 7.50007 21.8554Z" fill="white"/>
</svg>
