<svg width="15" height="14" viewBox="0 0 15 14" fill="none" xmlns="http://www.w3.org/2000/svg">
    <path
        d="M13.5119 3.24976H2.34375C2.21943 3.24976 2.1002 3.20037 2.01229 3.11246C1.92439 3.02455 1.875 2.90533 1.875 2.78101C1.875 2.65669 1.92439 2.53746 2.01229 2.44955C2.1002 2.36164 2.21943 2.31226 2.34375 2.31226H13.5938C13.7181 2.31226 13.8373 2.26287 13.9252 2.17496C14.0131 2.08705 14.0625 1.96783 14.0625 1.84351C14.0625 1.47054 13.9143 1.11286 13.6506 0.849137C13.3869 0.585414 13.0292 0.437256 12.6562 0.437256H1.875C1.37772 0.437256 0.900805 0.6348 0.549175 0.98643C0.197544 1.33806 0 1.81497 0 2.31226L0 11.6873C0 12.1845 0.197544 12.6614 0.549175 13.0131C0.900805 13.3647 1.37772 13.5623 1.875 13.5623H13.5119C13.8955 13.5723 14.2675 13.43 14.5464 13.1665C14.8253 12.9029 14.9884 12.5396 15 12.156V4.65601C14.9884 4.27244 14.8253 3.9091 14.5464 3.64554C14.2675 3.38197 13.8955 3.23966 13.5119 3.24976V3.24976Z"
        fill="#1F43F7" />
    <path
        d="M5.55041 9.73706L5.55469 9.73096L4.21924 11.064V5.75146L6.87488 8.41016L9.53174 5.75146V11.064L8.20361 9.73706L6.87549 11.064L5.55041 9.73706Z"
        fill="#FFFF" />
    <path
        d="M12.8393 9.46428C13.2929 9.46428 13.6606 9.09659 13.6606 8.64303C13.6606 8.18946 13.2929 7.82178 12.8393 7.82178C12.3858 7.82178 12.0181 8.18946 12.0181 8.64303C12.0181 9.09659 12.3858 9.46428 12.8393 9.46428Z"
        fill="#FFFF" />
</svg>