<svg width="35" height="35" viewBox="0 0 35 35" fill="none" xmlns="http://www.w3.org/2000/svg">
<circle cx="17.5" cy="17.5" r="17" fill="#14131C" stroke="#24F7DD"/>
<path d="M18.2422 17.7595L17.5004 18.1579L16.7585 17.7595L9.07084 13.6307L10.0005 11.835L17.0144 14.6869C17.0144 14.6869 17.0144 14.687 17.0145 14.687C17.3268 14.814 17.674 14.814 17.9863 14.687C17.9864 14.687 17.9864 14.6869 17.9864 14.6869L25.0002 11.835L25.9299 13.6307L18.2422 17.7595ZM16.7585 18.6405L17.5004 18.2421L18.2422 18.6405L25.9299 22.7693L25.0002 24.565L17.9863 21.713L17.9863 21.713C17.6739 21.586 17.3268 21.586 17.0145 21.713L17.0145 21.713L10.0005 24.565L9.07084 22.7693L16.7585 18.6405Z" fill="#24F7DD" stroke="#24F7DD"/>
</svg>
