<svg width="80" height="80" viewBox="0 0 80 80" fill="none" xmlns="http://www.w3.org/2000/svg">
<circle opacity="0.1" cx="40" cy="40" r="40" fill="#96A0B5"/>
<path d="M46.4375 33.2969V32.7812C46.4375 30.7656 44.5625 29.2188 42.5469 29.7344C41.3281 27.3906 38.1406 27.4844 37.0156 29.7812C35.0938 29.2656 33.1719 30.7188 33.1719 32.7812V38.7344C32.2344 38.3594 31.1094 38.5 30.2656 39.1562C28.8594 40.1406 28.5781 42.1094 29.5625 43.5156L35.1875 51.3906C35.4688 51.7656 35.8906 52.0469 36.4062 52.0469H46.8594C47.5625 52.0469 48.1719 51.5312 48.3125 50.875L49.7188 44.7344C49.9062 44.0312 49.9531 43.3281 50 42.5781V36.3906C50 34.5156 48.3125 33.0625 46.4375 33.2969ZM47.7031 42.5781C47.7031 43.1406 47.6562 43.7031 47.5625 44.2188L46.25 49.75H36.7812L31.3906 42.2031C30.7344 41.2656 32.0938 40.1875 32.75 41.125L34.0625 42.9062C34.4844 43.5156 35.4219 43.2344 35.4219 42.4844V32.7812C35.4219 31.6094 37.1094 31.6562 37.1094 32.8281V40C37.1094 40.4219 37.4375 40.75 37.8594 40.75H38.1875C38.6094 40.75 38.9375 40.4219 38.9375 40V31.1406C38.9375 29.9688 40.6719 30.0156 40.6719 31.1875V40C40.6719 40.4219 41 40.75 41.4219 40.75H41.7031C42.125 40.75 42.4531 40.4219 42.4531 40V32.7812C42.4531 31.5625 44.1875 31.6094 44.1875 32.7812V40C44.1875 40.4219 44.5156 40.75 44.9375 40.75H45.2656C45.6875 40.75 46.0156 40.4219 46.0156 40V36.4375C46.0156 35.2188 47.7031 35.2656 47.7031 36.3906V42.5781Z" fill="#9DABBD"/>
</svg>
