<svg width="56" height="56" viewBox="0 0 56 56" fill="none" xmlns="http://www.w3.org/2000/svg">
<circle cx="28" cy="28" r="27.5" fill="black" stroke="#F1F1F1"/>
<path fill-rule="evenodd" clip-rule="evenodd" d="M35.2021 20.7634C35.1081 20.6896 35.0612 20.5687 35.0612 20.4545C35.0612 20.3403 35.1081 20.2127 35.2021 20.1456C35.3966 19.9776 35.6784 19.9776 35.873 20.1456C35.9669 20.2194 36.0139 20.3403 36.0139 20.4545C36.0139 20.5687 35.9669 20.6963 35.873 20.7634C35.7053 20.9313 35.3899 20.9313 35.2021 20.7634Z" fill="white"/>
<path fill-rule="evenodd" clip-rule="evenodd" d="M34.0013 22.0126C33.9275 21.9186 33.8805 21.8179 33.8805 21.7037C33.8805 21.4619 34.0751 21.247 34.3367 21.247C34.4575 21.247 34.5783 21.294 34.6454 21.388C34.7192 21.482 34.7661 21.5828 34.7661 21.697C34.7661 21.8179 34.7192 21.9387 34.6454 22.0059C34.5514 22.0798 34.4508 22.1268 34.3367 22.1268C34.1958 22.1335 34.0952 22.0865 34.0013 22.0126Z" fill="white"/>
<path fill-rule="evenodd" clip-rule="evenodd" d="M32.6861 23.2619C32.5184 23.094 32.5184 22.8052 32.6861 22.6373C32.8538 22.4693 33.1423 22.4693 33.3302 22.6373C33.4979 22.8052 33.4979 23.094 33.3302 23.2619C33.2564 23.3559 33.1356 23.4029 33.0216 23.4029C32.874 23.4029 32.78 23.3559 32.6861 23.2619Z" fill="white"/>
<path fill-rule="evenodd" clip-rule="evenodd" d="M31.4384 24.5312C31.2706 24.3633 31.2438 24.1014 31.4115 23.9066L31.4384 23.8798C31.6329 23.7119 31.9147 23.7119 32.1093 23.8798C32.277 24.0477 32.3039 24.3096 32.1361 24.5044L32.1093 24.5312C32.0154 24.6253 31.8946 24.6521 31.7738 24.6521C31.6531 24.6521 31.5323 24.6253 31.4384 24.5312Z" fill="white"/>
<path fill-rule="evenodd" clip-rule="evenodd" d="M30.2372 25.8006C30.1433 25.7267 30.0963 25.6058 30.0963 25.4916C30.0963 25.2498 30.311 25.0349 30.5525 25.0618C30.6733 25.0618 30.7672 25.1088 30.8411 25.1827C30.935 25.2566 30.9618 25.3774 30.9618 25.4916C30.9618 25.7334 30.7672 25.9483 30.5056 25.9483C30.4318 25.9215 30.311 25.8744 30.2372 25.8006Z" fill="white"/>
<path fill-rule="evenodd" clip-rule="evenodd" d="M28.7747 26.7408C28.7747 26.6199 28.8216 26.499 28.9156 26.4318C29.1101 26.2639 29.3919 26.2908 29.5597 26.4587C29.7006 26.6266 29.7006 26.8885 29.5597 27.0564C29.3919 27.2243 29.1034 27.2243 28.9357 27.0564C28.8283 26.9557 28.7747 26.855 28.7747 26.7408Z" fill="white"/>
<path fill-rule="evenodd" clip-rule="evenodd" d="M26.4531 29.4945C26.3592 29.4004 26.3122 29.2997 26.3324 29.1855C26.3324 29.0646 26.3793 28.9437 26.4531 28.8766C26.6209 28.7087 26.9094 28.7087 27.0972 28.8766C27.171 28.9504 27.218 29.0713 27.218 29.1855C27.218 29.2997 27.171 29.4273 27.0771 29.4945C27.0033 29.5885 26.8825 29.6355 26.7685 29.6355C26.641 29.6422 26.5471 29.5952 26.4531 29.4945Z" fill="white"/>
<path fill-rule="evenodd" clip-rule="evenodd" d="M25.1315 30.7706C25.0376 30.6967 24.9906 30.5758 24.9906 30.4616C24.9906 30.3407 25.0376 30.2467 25.1315 30.1527C25.3261 29.9848 25.6347 29.9848 25.8293 30.1527C25.9232 30.2265 25.9702 30.3474 25.9702 30.4616C25.9702 30.5825 25.9232 30.6765 25.8293 30.7706C25.7353 30.8646 25.6146 30.9116 25.4938 30.9116C25.3529 30.8914 25.2321 30.8377 25.1315 30.7706Z" fill="white"/>
<path fill-rule="evenodd" clip-rule="evenodd" d="M23.9372 32.0399C23.7695 31.872 23.7695 31.5832 23.9372 31.3952C24.1049 31.2273 24.3934 31.2273 24.5813 31.3952C24.749 31.5631 24.749 31.8519 24.5813 32.0399C24.4874 32.1138 24.3867 32.1608 24.2727 32.1608C24.1251 32.1608 24.0311 32.1138 23.9372 32.0399Z" fill="white"/>
<path fill-rule="evenodd" clip-rule="evenodd" d="M22.6892 33.2892C22.5953 33.1951 22.5483 33.0944 22.5483 32.9802C22.5483 32.7384 22.763 32.5235 23.0046 32.5235C23.1253 32.5235 23.2461 32.5705 23.3132 32.6444C23.387 32.7384 23.434 32.8392 23.434 32.9534C23.434 33.0675 23.387 33.1951 23.3132 33.2623C23.2193 33.3362 23.1186 33.3832 23.0046 33.3832C22.8838 33.4101 22.763 33.3832 22.6892 33.2892Z" fill="white"/>
<path fill-rule="evenodd" clip-rule="evenodd" d="M21.3742 34.5584C21.2802 34.4845 21.2333 34.3637 21.2333 34.2495C21.2333 34.1286 21.2802 34.0077 21.3742 33.9405C21.5687 33.7726 21.8505 33.7726 22.0451 33.9405C22.139 34.0144 22.186 34.1353 22.186 34.2495C22.186 34.3704 22.139 34.4913 22.0451 34.5584C21.8505 34.7263 21.562 34.7263 21.3742 34.5584Z" fill="white"/>
<path fill-rule="evenodd" clip-rule="evenodd" d="M20.1733 35.8077C20.0056 35.6398 20.0056 35.351 20.1733 35.1629C20.341 34.995 20.6295 34.995 20.7973 35.1629C20.965 35.3309 20.965 35.6196 20.7973 35.8077C20.6295 35.9756 20.341 35.9756 20.1733 35.8077Z" fill="white"/>
<path fill-rule="evenodd" clip-rule="evenodd" d="M20.7972 20.7635C20.871 20.6694 20.918 20.5687 20.918 20.4545C20.918 20.2128 20.7234 19.9978 20.4617 19.9978C20.341 19.9978 20.2202 20.0448 20.1531 20.1187C20.0592 20.1926 20.0122 20.3135 20.0122 20.4277C20.0122 20.5486 20.0592 20.6694 20.1531 20.7366C20.341 20.9314 20.6295 20.9314 20.7972 20.7635Z" fill="white"/>
<path fill-rule="evenodd" clip-rule="evenodd" d="M22.0451 22.0126C22.139 21.9387 22.186 21.8178 22.186 21.7037C22.186 21.5828 22.139 21.4619 22.0451 21.3947C21.8505 21.2268 21.5687 21.2268 21.3742 21.3947C21.2802 21.4686 21.2333 21.5895 21.2333 21.7037C21.2333 21.8246 21.2802 21.9455 21.3742 22.0126C21.562 22.1805 21.8505 22.1805 22.0451 22.0126Z" fill="white"/>
<path fill-rule="evenodd" clip-rule="evenodd" d="M23.3133 23.2619C23.481 23.0939 23.481 22.8052 23.3133 22.6373C23.1456 22.4693 22.8571 22.4693 22.6692 22.6373C22.5954 22.7111 22.5484 22.832 22.5283 22.9462C22.5283 23.0671 22.5753 23.188 22.6491 23.2551C22.7229 23.3492 22.8437 23.3962 22.9577 23.3962C23.1187 23.4029 23.2395 23.3559 23.3133 23.2619Z" fill="white"/>
<path fill-rule="evenodd" clip-rule="evenodd" d="M24.5813 24.5312C24.749 24.3633 24.749 24.0745 24.5813 23.8865C24.4136 23.7186 24.1251 23.7186 23.9372 23.8865C23.7695 24.0544 23.7695 24.3432 23.9372 24.5312C24.0311 24.6253 24.1318 24.6521 24.2458 24.6521C24.3599 24.6521 24.4874 24.6051 24.5813 24.5312Z" fill="white"/>
<path fill-rule="evenodd" clip-rule="evenodd" d="M25.8292 25.8006C25.9231 25.7268 25.9701 25.6059 25.9701 25.4917C25.9701 25.3775 25.9231 25.2499 25.8292 25.1828C25.6346 24.988 25.3528 24.988 25.1582 25.1828C25.0643 25.2566 25.0173 25.3775 25.0173 25.4917C25.0173 25.6059 25.0643 25.7335 25.1582 25.8006C25.3528 25.9686 25.6346 25.9686 25.8292 25.8006Z" fill="white"/>
<path fill-rule="evenodd" clip-rule="evenodd" d="M27.2181 26.7409C27.2181 26.62 27.1711 26.4991 27.0772 26.4319C26.9094 26.264 26.6209 26.264 26.4532 26.4319C26.2855 26.5998 26.2855 26.8886 26.4532 27.0767C26.6209 27.2446 26.9094 27.2446 27.0973 27.0767C27.1711 26.9558 27.2181 26.855 27.2181 26.7409Z" fill="white"/>
<path fill-rule="evenodd" clip-rule="evenodd" d="M28.3452 28.3192C28.513 28.1513 28.513 27.8625 28.3452 27.6745C28.1775 27.5065 27.889 27.5065 27.7011 27.6745C27.5334 27.8424 27.5334 28.1312 27.7011 28.3192C27.889 28.4871 28.1775 28.4871 28.3452 28.3192Z" fill="white"/>
<path fill-rule="evenodd" clip-rule="evenodd" d="M29.5931 29.4945C29.687 29.4206 29.734 29.2997 29.734 29.1855C29.734 29.0713 29.687 28.9437 29.5931 28.8766C29.3985 28.7087 29.1167 28.7087 28.9221 28.8766C28.8282 28.9504 28.7812 29.0713 28.7812 29.1855C28.7812 29.2997 28.8282 29.4273 28.9221 29.4945C29.0161 29.5885 29.1368 29.6355 29.2576 29.6355C29.3784 29.6355 29.4992 29.5952 29.5931 29.4945Z" fill="white"/>
<path fill-rule="evenodd" clip-rule="evenodd" d="M30.8612 30.7705C30.935 30.6967 30.9819 30.5758 30.9819 30.4616C30.9819 30.3407 30.935 30.2467 30.8612 30.1527C30.6934 29.9848 30.4049 29.9848 30.2171 30.1527C30.1231 30.2467 30.0762 30.3474 30.0762 30.4616C30.0762 30.7034 30.2909 30.8914 30.5324 30.8914C30.6733 30.8914 30.7874 30.8377 30.8612 30.7705Z" fill="white"/>
<path fill-rule="evenodd" clip-rule="evenodd" d="M32.136 32.0399C32.3037 31.872 32.3037 31.5832 32.136 31.3952C31.9683 31.2273 31.6798 31.2273 31.4919 31.3952C31.3242 31.5631 31.3242 31.8519 31.4919 32.0399C31.5858 32.134 31.6865 32.1608 31.8005 32.1608C31.9146 32.1608 32.0353 32.1138 32.136 32.0399Z" fill="white"/>
<path fill-rule="evenodd" clip-rule="evenodd" d="M33.3102 33.2891C33.4041 33.1951 33.4511 33.0943 33.4511 32.9802C33.4511 32.8593 33.4041 32.7384 33.3102 32.6712C33.1424 32.5033 32.8539 32.5033 32.6862 32.6712C32.6124 32.7652 32.5654 32.866 32.5654 32.9802C32.5654 33.1011 32.6124 33.2219 32.6862 33.2891C32.7801 33.3831 32.8808 33.41 32.9948 33.41C33.1156 33.41 33.2364 33.3831 33.3102 33.2891Z" fill="white"/>
<path fill-rule="evenodd" clip-rule="evenodd" d="M34.6252 34.5584C34.7191 34.4644 34.7661 34.3636 34.7661 34.2226C34.7661 34.1017 34.7191 33.9808 34.6252 33.9136C34.4575 33.7457 34.169 33.7457 34.0012 33.9136C33.9073 34.0077 33.8603 34.1084 33.8805 34.2226C33.8805 34.3435 33.9274 34.4644 34.0012 34.5315C34.169 34.7263 34.4575 34.7263 34.6252 34.5584Z" fill="white"/>
<path fill-rule="evenodd" clip-rule="evenodd" d="M35.8931 35.8076C36.0609 35.6397 36.0609 35.3778 35.92 35.183C35.92 35.183 35.92 35.183 35.8931 35.1562C35.6986 34.9883 35.4168 34.9883 35.2222 35.1562C35.0545 35.2972 35.0276 35.586 35.1752 35.7539C35.2021 35.7808 35.2021 35.7808 35.2222 35.8009C35.4168 35.9957 35.7053 35.9957 35.8931 35.8076Z" fill="white"/>
<path fill-rule="evenodd" clip-rule="evenodd" d="M23.7695 21.0993C26.3325 19.4471 29.6402 19.4471 32.2032 21.0993L34.9138 18.4128C30.8613 15.1957 25.1315 15.1957 21.059 18.4128L23.7695 21.0993Z" fill="white"/>
<path fill-rule="evenodd" clip-rule="evenodd" d="M21.0589 32.1809C19.3547 29.6154 19.3547 26.3043 21.0589 23.7387L18.3751 21.0522C15.2083 25.1088 15.2083 30.8176 18.3751 34.8741L21.0589 32.1809Z" fill="white"/>
<path fill-rule="evenodd" clip-rule="evenodd" d="M32.23 34.8741C30.9821 35.7405 29.5195 36.1905 28.0099 36.1905C26.5002 36.2174 24.9906 35.7607 23.7427 34.8943L21.059 37.5808C23.0248 39.1658 25.4938 40.0053 28.0099 39.9784C30.5057 39.9784 32.9211 39.112 34.8869 37.5539L32.23 34.8741Z" fill="white"/>
<path fill-rule="evenodd" clip-rule="evenodd" d="M34.8667 23.7387C35.7322 25.0081 36.1616 26.4991 36.1348 28.0303C36.1079 29.5146 35.6785 30.9586 34.8667 32.1809L37.5773 34.8674C39.1339 32.9264 39.9725 30.5019 39.9994 28.0035C40.0262 25.4849 39.1875 23.0134 37.6041 21.0455L34.8667 23.7387Z" fill="white"/>
<path fill-rule="evenodd" clip-rule="evenodd" d="M37.6713 35.6868C38.7247 35.6868 39.5634 36.5263 39.5634 37.5807C39.5634 38.6352 38.7247 39.4747 37.6713 39.4747C36.618 39.4747 35.7793 38.6352 35.7793 37.5807C35.7994 36.5263 36.6381 35.6868 37.6713 35.6868Z" fill="white"/>
<path fill-rule="evenodd" clip-rule="evenodd" d="M18.3482 35.6868C19.3814 35.7338 20.1933 36.6002 20.1664 37.6546C20.1396 38.6352 19.3277 39.4277 18.3482 39.4747C17.3149 39.4277 16.5031 38.5613 16.5299 37.5069C16.5769 36.5263 17.3686 35.7338 18.3482 35.6868Z" fill="white"/>
<path fill-rule="evenodd" clip-rule="evenodd" d="M37.7181 16.3711C38.7513 16.3711 39.59 17.2374 39.59 18.265C39.59 19.2926 38.7513 20.1187 37.7181 20.1187C36.6849 20.1187 35.8462 19.2792 35.8462 18.2717C35.8462 17.2374 36.6647 16.3979 37.7181 16.3711Z" fill="white"/>
<path fill-rule="evenodd" clip-rule="evenodd" d="M18.3282 16.3711C19.3614 16.3711 20.2001 17.1837 20.2202 18.218C20.2202 19.2523 19.3547 20.0918 18.3282 20.0918C17.295 20.0918 16.4563 19.2792 16.4362 18.218C16.4362 17.2106 17.295 16.3711 18.3282 16.3711Z" fill="white"/>
</svg>
