<svg width="68" height="24" viewBox="0 0 68 24" fill="none" xmlns="http://www.w3.org/2000/svg">
<g filter="url(#filter0_iii_3013_6735)">
<path fill-rule="evenodd" clip-rule="evenodd" d="M14.5476 6.39284L12.2706 4.09668L5.68436 10.5726L2.29543 7.18367L0 9.4791L3.36954 12.8486L0.214444 15.9509L2.60201 18.3384L5.73068 15.2098L11.634 21.1131L13.9295 18.8177L8.02611 12.9143L14.5476 6.39284Z" fill="url(#paint0_linear_3013_6735)"/>
</g>
<path d="M18.2002 23.4902C16.4259 23.4902 14.9136 23.1676 13.6635 22.5224C12.4335 21.8771 11.375 21.0101 10.4878 19.9213L12.8469 17.7134C13.5929 18.6208 14.4095 19.3063 15.2967 19.7701C16.2041 20.2338 17.2324 20.4657 18.3817 20.4657C19.7326 20.4657 20.7509 20.1633 21.4364 19.5584C22.122 18.9535 22.4647 18.1369 22.4647 17.1085C22.4647 16.2818 22.2228 15.6265 21.7389 15.1426C21.2549 14.6587 20.398 14.2958 19.1681 14.0538L17.2929 13.7211C15.2362 13.338 13.6937 12.6625 12.6654 11.6947C11.6371 10.7269 11.1229 9.39611 11.1229 7.7024C11.1229 6.77489 11.2943 5.93812 11.6371 5.19208C12 4.42588 12.494 3.79074 13.1191 3.28666C13.7643 2.76241 14.5406 2.35915 15.4479 2.07686C16.3553 1.79458 17.3735 1.65344 18.5027 1.65344C20.0956 1.65344 21.4767 1.93572 22.6462 2.50029C23.8157 3.0447 24.8137 3.84114 25.6404 4.88963L23.2511 7.00677C22.7067 6.30106 22.0413 5.73649 21.2549 5.31306C20.4686 4.88963 19.4907 4.67792 18.3212 4.67792C17.1114 4.67792 16.1738 4.91988 15.5084 5.40379C14.843 5.88771 14.5104 6.59342 14.5104 7.52093C14.5104 8.40811 14.7826 9.0735 15.327 9.51709C15.8714 9.94051 16.7182 10.2631 17.8675 10.4849L19.7427 10.8781C21.8598 11.2814 23.4023 11.9669 24.3702 12.9348C25.3582 13.9026 25.8522 15.2334 25.8522 16.9271C25.8522 17.9151 25.6808 18.8123 25.338 19.6189C24.9952 20.4254 24.4911 21.121 23.8258 21.7057C23.1805 22.2703 22.3841 22.7139 21.4364 23.0365C20.4887 23.339 19.41 23.4902 18.2002 23.4902Z" fill="#F0F6FF"/>
<path d="M40.6315 23.1272C39.7644 23.1272 39.0991 22.8853 38.6353 22.4014C38.1716 21.8973 37.8893 21.2622 37.7885 20.496H37.6372C37.3348 21.4839 36.7803 22.23 35.9738 22.7341C35.1672 23.2381 34.1893 23.4902 33.04 23.4902C31.4068 23.4902 30.1466 23.0668 29.2594 22.2199C28.3924 21.3731 27.9589 20.2338 27.9589 18.8022C27.9589 17.2295 28.5235 16.05 29.6526 15.2636C30.8019 14.4772 32.4755 14.0841 34.6732 14.0841H37.5163V12.7533C37.5163 11.7854 37.2541 11.0394 36.7299 10.5152C36.2056 9.99092 35.389 9.7288 34.2801 9.7288C33.3526 9.7288 32.5964 9.93043 32.0117 10.3337C31.427 10.737 30.933 11.2511 30.5297 11.8762L28.5638 10.0917C29.088 9.20456 29.824 8.47868 30.7717 7.91411C31.7193 7.32938 32.9594 7.03701 34.4918 7.03701C36.5283 7.03701 38.0909 7.51085 39.1797 8.45852C40.2685 9.40619 40.8129 10.7672 40.8129 12.5416V20.4355H42.4764V23.1272H40.6315ZM33.9776 20.9799C35.0059 20.9799 35.8528 20.7581 36.5182 20.3145C37.1836 19.8507 37.5163 19.2358 37.5163 18.4695V16.2012H34.7337C32.4553 16.2012 31.3161 16.9069 31.3161 18.3183V18.8627C31.3161 19.5684 31.5479 20.1028 32.0117 20.4657C32.4956 20.8085 33.1509 20.9799 33.9776 20.9799Z" fill="#F0F6FF"/>
<path d="M45.9191 10.0917H43.5298V7.39995H45.9191V4.7989C45.9191 3.52862 46.2518 2.54062 46.9172 1.83491C47.5826 1.10903 48.5807 0.746094 49.9114 0.746094H52.5125V3.43788H49.2158V7.39995H52.5125V10.0917H49.2158V23.1272H45.9191V10.0917Z" fill="#F0F6FF"/>
<path d="M60.8279 23.4902C59.6988 23.4902 58.6906 23.2986 57.8034 22.9155C56.9162 22.5324 56.1601 21.988 55.5351 21.2823C54.91 20.5564 54.4261 19.6894 54.0833 18.6813C53.7607 17.6529 53.5994 16.5137 53.5994 15.2636C53.5994 14.0135 53.7607 12.8843 54.0833 11.8762C54.4261 10.8479 54.91 9.98084 55.5351 9.27513C56.1601 8.54925 56.9162 7.99476 57.8034 7.61166C58.6906 7.22856 59.6988 7.03701 60.8279 7.03701C61.9772 7.03701 62.9854 7.23864 63.8524 7.64191C64.7396 8.04517 65.4755 8.60974 66.0603 9.33562C66.645 10.0413 67.0785 10.868 67.3608 11.8157C67.6632 12.7634 67.8145 13.7816 67.8145 14.8704V16.1105H57.0171V16.6246C57.0171 17.8344 57.3699 18.8325 58.0756 19.6189C58.8015 20.3851 59.8298 20.7682 61.1606 20.7682C62.1284 20.7682 62.945 20.5564 63.6104 20.133C64.2758 19.7096 64.8404 19.1349 65.3041 18.4091L67.2398 20.3145C66.6551 21.2823 65.8082 22.0586 64.6992 22.6433C63.5903 23.2079 62.2998 23.4902 60.8279 23.4902ZM60.8279 9.60782C60.2633 9.60782 59.7391 9.70864 59.2552 9.91027C58.7914 10.1119 58.3882 10.3942 58.0454 10.7571C57.7228 11.1201 57.4707 11.5536 57.2893 12.0576C57.1078 12.5617 57.0171 13.1162 57.0171 13.7211V13.9328H64.3363V13.6304C64.3363 12.4206 64.0238 11.4528 63.3987 10.7269C62.7737 9.98084 61.9167 9.60782 60.8279 9.60782Z" fill="#F0F6FF"/>
<defs>
<filter id="filter0_iii_3013_6735" x="0" y="4.09668" width="14.5479" height="17.7274" filterUnits="userSpaceOnUse" color-interpolation-filters="sRGB">
<feFlood flood-opacity="0" result="BackgroundImageFix"/>
<feBlend mode="normal" in="SourceGraphic" in2="BackgroundImageFix" result="shape"/>
<feColorMatrix in="SourceAlpha" type="matrix" values="0 0 0 0 0 0 0 0 0 0 0 0 0 0 0 0 0 0 127 0" result="hardAlpha"/>
<feOffset dx="-2.13226" dy="-2.13226"/>
<feComposite in2="hardAlpha" operator="arithmetic" k2="-1" k3="1"/>
<feColorMatrix type="matrix" values="0 0 0 0 0.0392157 0 0 0 0 0.113725 0 0 0 0 0.47451 0 0 0 0.5 0"/>
<feBlend mode="normal" in2="shape" result="effect1_innerShadow_3013_6735"/>
<feColorMatrix in="SourceAlpha" type="matrix" values="0 0 0 0 0 0 0 0 0 0 0 0 0 0 0 0 0 0 127 0" result="hardAlpha"/>
<feOffset dy="1.42151"/>
<feGaussianBlur stdDeviation="0.355376"/>
<feComposite in2="hardAlpha" operator="arithmetic" k2="-1" k3="1"/>
<feColorMatrix type="matrix" values="0 0 0 0 0.34875 0 0 0 0 0.682 0 0 0 0 0.775 0 0 0 1 0"/>
<feBlend mode="normal" in2="effect1_innerShadow_3013_6735" result="effect2_innerShadow_3013_6735"/>
<feColorMatrix in="SourceAlpha" type="matrix" values="0 0 0 0 0 0 0 0 0 0 0 0 0 0 0 0 0 0 127 0" result="hardAlpha"/>
<feOffset dy="2.13226"/>
<feGaussianBlur stdDeviation="0.355376"/>
<feComposite in2="hardAlpha" operator="arithmetic" k2="-1" k3="1"/>
<feColorMatrix type="matrix" values="0 0 0 0 0.187031 0 0 0 0 0.283106 0 0 0 0 0.7875 0 0 0 1 0"/>
<feBlend mode="normal" in2="effect2_innerShadow_3013_6735" result="effect3_innerShadow_3013_6735"/>
</filter>
<linearGradient id="paint0_linear_3013_6735" x1="-2.60671" y1="12.8999" x2="14.5454" y2="12.6279" gradientUnits="userSpaceOnUse">
<stop stop-color="#8B54FF"/>
<stop offset="1" stop-color="#2A3ACA"/>
</linearGradient>
</defs>
</svg>
