<svg width="129" height="129" viewBox="0 0 129 129" fill="none" xmlns="http://www.w3.org/2000/svg">
<circle cx="64.5" cy="64.5" r="64.5" fill="#1E1D2A"/>
<path d="M67.7955 86.9999L91 73.2914L87.0975 65L65.8503 74.5033C65.3028 74.7483 64.6972 74.7483 64.1497 74.5033L42.9025 65L39 73.2914L62.2045 86.9999L39 100.709L42.9025 109L64.1497 99.4965C64.6972 99.2517 65.3028 99.2517 65.8503 99.4965L87.0975 109L91 100.709L67.7955 86.9999Z" fill="#4C2FFC"/>
<path d="M35.8 54.48C33.4533 54.48 31.4533 54.0533 29.8 53.2C28.1733 52.3467 26.7733 51.2 25.6 49.76L28.72 46.84C29.7067 48.04 30.7867 48.9467 31.96 49.56C33.16 50.1733 34.52 50.48 36.04 50.48C37.8267 50.48 39.1733 50.08 40.08 49.28C40.9867 48.48 41.44 47.4 41.44 46.04C41.44 44.9467 41.12 44.08 40.48 43.44C39.84 42.8 38.7067 42.32 37.08 42L34.6 41.56C31.88 41.0533 29.84 40.16 28.48 38.88C27.12 37.6 26.44 35.84 26.44 33.6C26.44 32.3733 26.6667 31.2667 27.12 30.28C27.6 29.2667 28.2533 28.4267 29.08 27.76C29.9333 27.0667 30.96 26.5333 32.16 26.16C33.36 25.7867 34.7067 25.6 36.2 25.6C38.3067 25.6 40.1333 25.9733 41.68 26.72C43.2267 27.44 44.5467 28.4933 45.64 29.88L42.48 32.68C41.76 31.7467 40.88 31 39.84 30.44C38.8 29.88 37.5067 29.6 35.96 29.6C34.36 29.6 33.12 29.92 32.24 30.56C31.36 31.2 30.92 32.1333 30.92 33.36C30.92 34.5333 31.28 35.4133 32 36C32.72 36.56 33.84 36.9867 35.36 37.28L37.84 37.8C40.64 38.3333 42.68 39.24 43.96 40.52C45.2667 41.8 45.92 43.56 45.92 45.8C45.92 47.1067 45.6933 48.2933 45.24 49.36C44.7867 50.4267 44.12 51.3467 43.24 52.12C42.3867 52.8667 41.3333 53.4533 40.08 53.88C38.8267 54.28 37.4 54.48 35.8 54.48ZM66.2663 54C65.1196 54 64.2396 53.68 63.6263 53.04C63.0129 52.3733 62.6396 51.5333 62.5063 50.52H62.3063C61.9063 51.8267 61.1729 52.8133 60.1063 53.48C59.0396 54.1467 57.7463 54.48 56.2263 54.48C54.0663 54.48 52.3996 53.92 51.2263 52.8C50.0796 51.68 49.5063 50.1733 49.5063 48.28C49.5063 46.2 50.2529 44.64 51.7463 43.6C53.2663 42.56 55.4796 42.04 58.3863 42.04H62.1463V40.28C62.1463 39 61.7996 38.0133 61.1063 37.32C60.4129 36.6267 59.3329 36.28 57.8663 36.28C56.6396 36.28 55.6396 36.5467 54.8663 37.08C54.0929 37.6133 53.4396 38.2933 52.9062 39.12L50.3063 36.76C50.9996 35.5867 51.9729 34.6267 53.2263 33.88C54.4796 33.1067 56.1196 32.72 58.1463 32.72C60.8396 32.72 62.9063 33.3467 64.3463 34.6C65.7863 35.8533 66.5063 37.6533 66.5063 40V50.44H68.7063V54H66.2663ZM57.4663 51.16C58.8263 51.16 59.9463 50.8667 60.8263 50.28C61.7063 49.6667 62.1463 48.8533 62.1463 47.84V44.84H58.4662C55.4529 44.84 53.9463 45.7733 53.9463 47.64V48.36C53.9463 49.2933 54.2529 50 54.8663 50.48C55.5063 50.9333 56.3729 51.16 57.4663 51.16ZM74.0594 36.76H70.8994V33.2H74.0594V29.76C74.0594 28.08 74.4994 26.7733 75.3794 25.84C76.2594 24.88 77.5794 24.4 79.3394 24.4H82.7794V27.96H78.4194V33.2H82.7794V36.76H78.4194V54H74.0594V36.76ZM94.5769 54.48C93.0835 54.48 91.7502 54.2267 90.5769 53.72C89.4035 53.2133 88.4035 52.4933 87.5769 51.56C86.7502 50.6 86.1102 49.4533 85.6569 48.12C85.2302 46.76 85.0169 45.2533 85.0169 43.6C85.0169 41.9467 85.2302 40.4533 85.6569 39.12C86.1102 37.76 86.7502 36.6133 87.5769 35.68C88.4035 34.72 89.4035 33.9867 90.5769 33.48C91.7502 32.9733 93.0835 32.72 94.5769 32.72C96.0969 32.72 97.4302 32.9867 98.5769 33.52C99.7502 34.0533 100.724 34.8 101.497 35.76C102.27 36.6933 102.844 37.7867 103.217 39.04C103.617 40.2933 103.817 41.64 103.817 43.08V44.72H89.5369V45.4C89.5369 47 90.0035 48.32 90.9369 49.36C91.8969 50.3733 93.2569 50.88 95.0169 50.88C96.2969 50.88 97.3769 50.6 98.2569 50.04C99.1369 49.48 99.8835 48.72 100.497 47.76L103.057 50.28C102.284 51.56 101.164 52.5867 99.6969 53.36C98.2302 54.1067 96.5235 54.48 94.5769 54.48ZM94.5769 36.12C93.8302 36.12 93.1369 36.2533 92.4969 36.52C91.8835 36.7867 91.3502 37.16 90.8969 37.64C90.4702 38.12 90.1369 38.6933 89.8969 39.36C89.6569 40.0267 89.5369 40.76 89.5369 41.56V41.84H99.2169V41.44C99.2169 39.84 98.8035 38.56 97.9769 37.6C97.1502 36.6133 96.0169 36.12 94.5769 36.12Z" fill="white"/>
</svg>
