<svg width="106" height="36" viewBox="0 0 106 36" fill="none" xmlns="http://www.w3.org/2000/svg">
<path d="M11.887 13.0698L21.466 8.04138L19.855 5L11.084 8.48592C10.858 8.5758 10.608 8.5758 10.382 8.48592L1.61099 5L0 8.04138L9.57899 13.0698L0 18.0983L1.61099 21.1397L10.382 17.6537C10.608 17.5639 10.858 17.5639 11.084 17.6537L19.855 21.1397L21.466 18.0983L11.887 13.0698Z" fill="#4C2FFC"/>
<path d="M35.8 33.48C33.4533 33.48 31.4533 33.0533 29.8 32.2C28.1733 31.3467 26.7733 30.2 25.6 28.76L28.72 25.84C29.7067 27.04 30.7867 27.9467 31.96 28.56C33.16 29.1733 34.52 29.48 36.04 29.48C37.8267 29.48 39.1733 29.08 40.08 28.28C40.9867 27.48 41.44 26.4 41.44 25.04C41.44 23.9467 41.12 23.08 40.48 22.44C39.84 21.8 38.7067 21.32 37.08 21L34.6 20.56C31.88 20.0533 29.84 19.16 28.48 17.88C27.12 16.6 26.44 14.84 26.44 12.6C26.44 11.3733 26.6667 10.2667 27.12 9.28C27.6 8.26666 28.2533 7.42667 29.08 6.76C29.9333 6.06667 30.96 5.53333 32.16 5.16C33.36 4.78667 34.7067 4.6 36.2 4.6C38.3067 4.6 40.1333 4.97333 41.68 5.72C43.2267 6.44 44.5467 7.49333 45.64 8.88L42.48 11.68C41.76 10.7467 40.88 10 39.84 9.44C38.8 8.88 37.5067 8.6 35.96 8.6C34.36 8.6 33.12 8.92 32.24 9.56C31.36 10.2 30.92 11.1333 30.92 12.36C30.92 13.5333 31.28 14.4133 32 15C32.72 15.56 33.84 15.9867 35.36 16.28L37.84 16.8C40.64 17.3333 42.68 18.24 43.96 19.52C45.2667 20.8 45.92 22.56 45.92 24.8C45.92 26.1067 45.6933 27.2933 45.24 28.36C44.7867 29.4267 44.12 30.3467 43.24 31.12C42.3867 31.8667 41.3333 32.4533 40.08 32.88C38.8267 33.28 37.4 33.48 35.8 33.48ZM66.2663 33C65.1196 33 64.2396 32.68 63.6263 32.04C63.0129 31.3733 62.6396 30.5333 62.5063 29.52H62.3063C61.9063 30.8267 61.1729 31.8133 60.1063 32.48C59.0396 33.1467 57.7463 33.48 56.2263 33.48C54.0663 33.48 52.3996 32.92 51.2263 31.8C50.0796 30.68 49.5063 29.1733 49.5063 27.28C49.5063 25.2 50.2529 23.64 51.7463 22.6C53.2663 21.56 55.4796 21.04 58.3863 21.04H62.1463V19.28C62.1463 18 61.7996 17.0133 61.1063 16.32C60.4129 15.6267 59.3329 15.28 57.8663 15.28C56.6396 15.28 55.6396 15.5467 54.8663 16.08C54.0929 16.6133 53.4396 17.2933 52.9062 18.12L50.3063 15.76C50.9996 14.5867 51.9729 13.6267 53.2263 12.88C54.4796 12.1067 56.1196 11.72 58.1463 11.72C60.8396 11.72 62.9063 12.3467 64.3463 13.6C65.7863 14.8533 66.5063 16.6533 66.5063 19V29.44H68.7063V33H66.2663ZM57.4663 30.16C58.8263 30.16 59.9463 29.8667 60.8263 29.28C61.7063 28.6667 62.1463 27.8533 62.1463 26.84V23.84H58.4662C55.4529 23.84 53.9463 24.7733 53.9463 26.64V27.36C53.9463 28.2933 54.2529 29 54.8663 29.48C55.5063 29.9333 56.3729 30.16 57.4663 30.16ZM74.0594 15.76H70.8994V12.2H74.0594V8.76C74.0594 7.08 74.4994 5.77333 75.3794 4.84C76.2594 3.88 77.5794 3.4 79.3394 3.4H82.7794V6.96H78.4194V12.2H82.7794V15.76H78.4194V33H74.0594V15.76ZM94.5769 33.48C93.0835 33.48 91.7502 33.2267 90.5769 32.72C89.4035 32.2133 88.4035 31.4933 87.5769 30.56C86.7502 29.6 86.1102 28.4533 85.6569 27.12C85.2302 25.76 85.0169 24.2533 85.0169 22.6C85.0169 20.9467 85.2302 19.4533 85.6569 18.12C86.1102 16.76 86.7502 15.6133 87.5769 14.68C88.4035 13.72 89.4035 12.9867 90.5769 12.48C91.7502 11.9733 93.0835 11.72 94.5769 11.72C96.0969 11.72 97.4302 11.9867 98.5769 12.52C99.7502 13.0533 100.724 13.8 101.497 14.76C102.27 15.6933 102.844 16.7867 103.217 18.04C103.617 19.2933 103.817 20.64 103.817 22.08V23.72H89.5369V24.4C89.5369 26 90.0035 27.32 90.9369 28.36C91.8969 29.3733 93.2569 29.88 95.0169 29.88C96.2969 29.88 97.3769 29.6 98.2569 29.04C99.1369 28.48 99.8835 27.72 100.497 26.76L103.057 29.28C102.284 30.56 101.164 31.5867 99.6969 32.36C98.2302 33.1067 96.5235 33.48 94.5769 33.48ZM94.5769 15.12C93.8302 15.12 93.1369 15.2533 92.4969 15.52C91.8835 15.7867 91.3502 16.16 90.8969 16.64C90.4702 17.12 90.1369 17.6933 89.8969 18.36C89.6569 19.0267 89.5369 19.76 89.5369 20.56V20.84H99.2169V20.44C99.2169 18.84 98.8035 17.56 97.9769 16.6C97.1502 15.6133 96.0169 15.12 94.5769 15.12Z" fill="white"/>
</svg>
