<?xml version="1.0" encoding="UTF-8"?>
<svg width="120" height="24" viewBox="0 0 120 24" fill="none" xmlns="http://www.w3.org/2000/svg"
    className="site-logo-img">
    <path
        d="M18.5686 8.10215C18.5686 9.12075 19.4385 9.71829 21.0296 9.917L23.6143 10.1908C26.199 10.4645 28.3863 11.4831 28.3863 14.4416C28.3863 16.8276 26.4728 18.6925 22.5693 18.6925C18.0947 18.6925 16.3549 16.4302 15.7588 14.4166H18.2198C18.6172 15.4116 19.8109 16.6789 22.5693 16.6789C24.8567 16.6789 26.049 15.784 26.049 14.5653C26.049 13.0992 24.9553 12.6268 23.4392 12.4531C22.4693 12.3294 21.8231 12.2794 20.8295 12.1793C18.1698 11.9056 16.2313 10.6132 16.2313 8.15218C16.2313 5.69115 18.4185 4.2251 21.6994 4.2251C26.0003 4.2251 27.5901 6.28869 28.0625 8.07853H25.6765C25.2791 7.28366 24.1354 6.26368 21.6994 6.26368C19.6108 6.26368 18.5672 6.98489 18.5672 8.10354L18.5686 8.10215Z"
        fill="white" />
    <path
        d="M57.5713 12.3029C57.5713 15.9576 54.7629 18.741 51.1082 18.741C47.4534 18.741 44.645 15.9576 44.645 12.3029C44.645 8.64817 47.4284 5.86475 51.1082 5.86475C54.7879 5.86475 57.5713 8.64817 57.5713 12.3029ZM55.2354 12.3029C55.2354 9.84186 53.5692 7.95335 51.1096 7.95335C48.6499 7.95335 46.9838 9.89188 46.9838 12.3029C46.9838 14.7139 48.6485 16.6524 51.1096 16.6524C53.5706 16.6524 55.2354 14.7639 55.2354 12.3029Z"
        fill="white" />
    <path d="M75.9419 0.246582H78.3029V3.80124H75.9419V0.246582ZM75.9919 6.16222H78.2542V18.4423H75.9919V6.16222Z"
        fill="white" />
    <path
        d="M98.6285 18.4425H96.3662V2.60352H98.6285V8.42466C99.101 7.43107 100.517 5.88859 102.804 5.88859C105.912 5.88859 108.049 8.20093 108.049 11.3818V18.4411H105.761V11.8042C105.761 9.49189 104.369 7.97581 102.257 7.97581C100.145 7.97581 98.6271 9.56693 98.6271 11.8042V18.4411L98.6285 18.4425Z"
        fill="white" />
    <path d="M70.6831 2.60352H72.9454V18.4425H70.6831V2.60352Z" fill="white" />
    <path
        d="M68.9021 18.4423H65.9936C63.1351 18.4423 61.6927 17.075 61.6927 14.3402V8.20081H58.063V6.16222H61.6927V3.27319H63.955V6.16222H68.9021V8.20081H63.955V13.8191C63.955 15.6089 64.5261 16.3551 66.4911 16.3551H68.9021V18.4437V18.4423Z"
        fill="white" />
    <path
        d="M120 18.4423H117.092C114.233 18.4423 112.791 17.075 112.791 14.3402V8.20081H109.161V6.16222H112.791V3.27319H115.053V6.16222H120V8.20081H115.053V13.8191C115.053 15.6089 115.624 16.3551 117.589 16.3551H120V18.4437V18.4423Z"
        fill="white" />
    <path
        d="M32.6787 22.001H30.4414V6.16205H32.6787V8.27428C32.9525 7.65312 34.3935 5.86328 37.1533 5.86328C40.4342 5.86328 43.194 8.24927 43.194 12.3014C43.194 16.3536 40.4342 18.7396 37.1533 18.7396C34.4685 18.7396 32.9525 17.0498 32.6787 16.4522V21.9996V22.001ZM36.7559 16.6523C39.2419 16.6523 40.8817 14.7624 40.8817 12.3028C40.8817 9.84317 39.2405 7.95328 36.7559 7.95328C34.2712 7.95328 32.6301 9.84178 32.6301 12.3028C32.6301 14.7638 34.2712 16.6523 36.7559 16.6523Z"
        fill="white" />
    <path
        d="M91.0501 16.3536C90.7263 16.9997 89.3839 18.7646 86.5755 18.7646C83.2946 18.7646 80.5098 16.3786 80.5098 12.3264C80.5098 8.27428 83.2932 5.86328 86.5755 5.86328C89.3589 5.86328 90.7263 7.55307 91.0501 8.22426V6.16066H93.3124V17.8863C93.3124 21.3409 91.0751 23.7533 86.8742 23.7533C82.1023 23.7533 80.8085 20.6461 80.6098 19.8749H83.0959C83.2696 20.1736 84.1395 21.6647 86.8742 21.6647C89.609 21.6647 91.0501 20.2723 91.0501 17.8863V16.3536ZM86.9979 7.95189C84.4869 7.95189 82.8471 9.84039 82.8471 12.3264C82.8471 14.8125 84.4883 16.676 86.9979 16.676C89.5076 16.676 91.0987 14.7374 91.0987 12.3264C91.0987 9.91543 89.4576 7.95189 86.9979 7.95189Z"
        fill="white" />
    <path
        d="M6.72996 7.91736L12.1523 5.04084L11.2407 3.30103L6.27555 5.29514C6.1477 5.34655 6.00596 5.34655 5.87812 5.29514L0.911594 3.30242L0 5.04223L5.42232 7.91875L0 10.7939L0.911594 12.5337L5.87673 10.5396C6.00457 10.4882 6.14631 10.4882 6.27416 10.5396L11.2393 12.5337L12.1509 10.7939L6.72857 7.91736H6.72996Z"
        fill="#FBCA1C" />
</svg>