<svg width="80" height="80" viewBox="0 0 80 80" fill="none" xmlns="http://www.w3.org/2000/svg">
<circle opacity="0.1" cx="40" cy="40" r="40" fill="#96A0B5"/>
<path d="M43.6719 42.25C42.3125 42.25 41.7031 43 39.5 43C37.25 43 36.6406 42.25 35.2812 42.25C31.8125 42.25 29 45.1094 29 48.5781V49.75C29 51.0156 29.9844 52 31.25 52H47.75C48.9688 52 50 51.0156 50 49.75V48.5781C50 45.1094 47.1406 42.25 43.6719 42.25ZM47.75 49.75H31.25V48.5781C31.25 46.3281 33.0312 44.5 35.2812 44.5C35.9844 44.5 37.0625 45.25 39.5 45.25C41.8906 45.25 42.9688 44.5 43.6719 44.5C45.9219 44.5 47.75 46.3281 47.75 48.5781V49.75ZM39.5 41.5C43.2031 41.5 46.25 38.5 46.25 34.75C46.25 31.0469 43.2031 28 39.5 28C35.75 28 32.75 31.0469 32.75 34.75C32.75 38.5 35.75 41.5 39.5 41.5ZM39.5 30.25C41.9375 30.25 44 32.3125 44 34.75C44 37.2344 41.9375 39.25 39.5 39.25C37.0156 39.25 35 37.2344 35 34.75C35 32.3125 37.0156 30.25 39.5 30.25Z" fill="#9DABBD"/>
</svg>
